SplineFontDB: 3.2
FontName: YoungSerif-BoldItalic
FullName: Young Serif Bold Italic
FamilyName: Young Serif Bold Italic
Weight: Bold
Copyright: Copyright 2023 The Young Serif Project Authors \\(https://github.com/noirblancrouge/YoungSerif\\)
Version: 005.002
ItalicAngle: -11
UnderlinePosition: -125
UnderlineWidth: 50
Ascent: 800
Descent: 200
InvalidEm: 0
sfntRevision: 0x00050083
LayerCount: 2
Layer: 0 0 "Back" 1
Layer: 1 0 "Fore" 0
XUID: [1021 735 254010608 4068]
StyleMap: 0x0040
FSType: 0
OS2Version: 4
OS2_WeightWidthSlopeOnly: 0
OS2_UseTypoMetrics: 1
CreationTime: 1750244484
ModificationTime: 1752515018
PfmFamily: 17
TTFWeight: 700
TTFWidth: 5
LineGap: 0
VLineGap: 0
Panose: 2 2 7 4 4 4 6 0 2 3
OS2TypoAscent: 930
OS2TypoAOffset: 0
OS2TypoDescent: -275
OS2TypoDOffset: 0
OS2TypoLinegap: 0
OS2WinAscent: 1150
OS2WinAOffset: 0
OS2WinDescent: 275
OS2WinDOffset: 0
HheadAscent: 930
HheadAOffset: 0
HheadDescent: -275
HheadDOffset: 0
OS2SubXSize: 650
OS2SubYSize: 600
OS2SubXOff: 0
OS2SubYOff: 75
OS2SupXSize: 650
OS2SupYSize: 600
OS2SupXOff: 0
OS2SupYOff: 350
OS2StrikeYSize: 44
OS2StrikeYPos: 300
OS2CapHeight: 660
OS2XHeight: 440
OS2Vendor: 'NBR '
OS2CodePages: 00000001.00000000
OS2UnicodeRanges: 00000003.00000000.00000000.00000000
Lookup: 3 0 0 "'aalt' Access All Alternates in Latin lookup 0" { "'aalt' Access All Alternates in Latin lookup 0 subtable"  } ['aalt' ('DFLT' <'dflt' > 'latn' <'AZE ' 'CAT ' 'CRT ' 'KAZ ' 'MAH ' 'MOL ' 'NLD ' 'ROM ' 'TAT ' 'TRK ' 'dflt' > ) ]
Lookup: 1 0 0 "'smcp' Lowercase to Small Capitals in Latin lookup 1" { "'smcp' Lowercase to Small Capitals in Latin lookup 1 subtable"  } ['smcp' ('DFLT' <'dflt' > 'latn' <'AZE ' 'CAT ' 'CRT ' 'KAZ ' 'MAH ' 'MOL ' 'NLD ' 'ROM ' 'TAT ' 'TRK ' 'dflt' > ) ]
Lookup: 1 0 0 "'sinf' Scientific Inferiors in Latin lookup 2" { "'sinf' Scientific Inferiors in Latin lookup 2 subtable"  } ['sinf' ('DFLT' <'dflt' > 'latn' <'AZE ' 'CAT ' 'CRT ' 'KAZ ' 'MAH ' 'MOL ' 'NLD ' 'ROM ' 'TAT ' 'TRK ' 'dflt' > ) ]

StartChar: .notdef
Encoding: 1114112 -1 0
Width: 440
GlyphClass: 1
Flags: MW
HStem: 0 44<102 338 338 345.5 102 427> 0 134 256 103 482 134 572 44<94.5 102 102 338>
VStem: 0 44<146 157 157 460> 0 85 355 85 396 44<157 459 459 470>
LayerCount: 2
Fore
SplineSet
0 603 m 2x8c80
 0 610 6 616 13 616 c 2
 427 616 l 2
 434 616 440 610 440 603 c 2
 440 13 l 2
 440 6 434 0 427 0 c 2
 13 0 l 2
 6 0 0 6 0 13 c 2
 0 603 l 2x8c80
352 546 m 2xab
 360 558 353 572 338 572 c 2
 102 572 l 2
 87 572 80 558 88 546 c 2
 207 367 l 2
 213 357 227 357 233 367 c 2
 352 546 l 2xab
356 144 m 2x5480
 368 125 396 135 396 157 c 2
 396 459 l 2
 396 481 368 491 356 472 c 2
 251 315 l 2
 248 312 248 304 251 301 c 2
 356 144 l 2x5480
338 44 m 2xab
 353 44 360 58 352 70 c 2
 233 249 l 2
 227 259 213 259 207 249 c 2
 88 70 l 2
 80 58 87 44 102 44 c 2
 338 44 l 2xab
44 157 m 2x5480
 44 135 72 125 84 144 c 2
 189 301 l 2
 192 304 192 312 189 315 c 2
 84 472 l 2
 72 491 44 482 44 460 c 2
 44 157 l 2x5480
EndSplineSet
EndChar

StartChar: A
Encoding: 65 65 4
Width: 692
GlyphClass: 2
Flags: MW
HStem: 640 20G<375.291 481.291 481.291 484.791>
AnchorPoint: "Anchor-6" 631 0 basechar 0
AnchorPoint: "Anchor-5" 427 660 basechar 0
AnchorPoint: "Anchor-4" 278 0 basechar 0
LayerCount: 2
Fore
SplineSet
592.440429688 136 m 2
 602.110351562 88 609.301757812 53 641.301757812 53 c 0
 653.301757812 53 653.33203125 48 651.782226562 40 c 2
 646.532226562 13 l 2
 644.782226562 4 640.001953125 0 631.001953125 0 c 2
 361.001953125 0 l 2
 353.001953125 0 348.782226562 4 350.532226562 13 c 2
 355.782226562 40 l 2
 357.33203125 48 359.301757812 53 371.301757812 53 c 0
 425.301757812 53 458.69140625 91 451.44140625 136 c 2
 439.291015625 211 l 1
 197.80078125 211 l 1
 156.440429688 136 l 2
 133.470703125 95 152.30078125 53 206.30078125 53 c 0
 218.30078125 53 218.331054688 48 216.78125 40 c 2
 211.53125 13 l 2
 209.78125 4 204.000976562 0 196.000976562 0 c 2
 -23.9990234375 0 l 2
 -31.9990234375 0 -36.21875 4 -34.46875 13 c 2
 -29.21875 40 l 2
 -27.6689453125 48 -25.69921875 53 -13.69921875 53 c 0
 22.30078125 53 43.6904296875 91 68.4404296875 136 c 2
 358.150390625 649 l 2
 361.510742188 656 367.291015625 660 375.291015625 660 c 2
 481.291015625 660 l 2
 488.291015625 660 492.510742188 656 494.150390625 649 c 2
 592.440429688 136 l 2
239.611328125 288 m 1
 426.141601562 288 l 1
 381.021484375 544.73046875 l 1
 239.611328125 288 l 1
EndSplineSet
Substitution2: "Single Substitution lookup 36 subtable" ordfeminine
Substitution2: "'ss04' Style Set 4 in Latin lookup 33 subtable" u1F150
Substitution2: "'ss03' Style Set 3 in Latin lookup 31 subtable" uni24B6
Substitution2: "'c2sc' Capitals to Small Capitals in Latin lookup 11 subtable" A.sc
AlternateSubs2: "'aalt' Access All Alternates in Latin lookup 0 subtable" ordfeminine A.sc uni24B6 u1F150
Position2: "'cpsp' Capital Spacing in Latin lookup 0 subtable" dx=5 dy=0 dh=10 dv=0
EndChar

StartChar: Aacute
Encoding: 193 193 5
Width: 692
GlyphClass: 2
Flags: MW
HStem: 640 20G<375.291 481.291 481.291 484.791> 710 189
VStem: 379 213
AnchorPoint: "Anchor-6" 631 0 basechar 0
AnchorPoint: "Anchor-5" 506 899 basechar 0
AnchorPoint: "Anchor-4" 278 0 basechar 0
LayerCount: 2
Fore
SplineSet
592.440429688 136 m 2
 602.110351562 88 609.301757812 53 641.301757812 53 c 0
 653.301757812 53 653.33203125 48 651.782226562 40 c 2
 646.532226562 13 l 2
 644.782226562 4 640.001953125 0 631.001953125 0 c 2
 361.001953125 0 l 2
 353.001953125 0 348.782226562 4 350.532226562 13 c 2
 355.782226562 40 l 2
 357.33203125 48 359.301757812 53 371.301757812 53 c 0
 425.301757812 53 458.69140625 91 451.44140625 136 c 2
 439.291015625 211 l 1
 197.80078125 211 l 1
 156.440429688 136 l 2
 133.470703125 95 152.30078125 53 206.30078125 53 c 0
 218.30078125 53 218.331054688 48 216.78125 40 c 2
 211.53125 13 l 2
 209.78125 4 204.000976562 0 196.000976562 0 c 2
 -23.9990234375 0 l 2
 -31.9990234375 0 -36.21875 4 -34.46875 13 c 2
 -29.21875 40 l 2
 -27.6689453125 48 -25.69921875 53 -13.69921875 53 c 0
 22.30078125 53 43.6904296875 91 68.4404296875 136 c 2
 358.150390625 649 l 2
 361.510742188 656 367.291015625 660 375.291015625 660 c 2
 481.291015625 660 l 2
 488.291015625 660 492.510742188 656 494.150390625 649 c 2
 592.440429688 136 l 2
378.701171875 729 m 1
 448.510742188 800 469.33984375 830 503.419921875 887 c 0
 510.549804688 898 526.75 899 538.75 899 c 0
 571.75 899 597.030273438 885 591 854 c 0
 578.169921875 788 492.650390625 739 432.98046875 715 c 0
 427.590820312 713 422.090820312 710.379882812 417.170898438 710.379882812 c 0
 414.090820312 710.379882812 411.53125 711.4296875 408.590820312 713 c 2
 378.701171875 729 l 1
239.610351562 288 m 1
 426.140625 288 l 1
 381.020507812 544.73046875 l 1
 239.610351562 288 l 1
EndSplineSet
Substitution2: "'c2sc' Capitals to Small Capitals in Latin lookup 11 subtable" Aacute.sc
AlternateSubs2: "'aalt' Access All Alternates in Latin lookup 0 subtable" Aacute.sc
Position2: "'cpsp' Capital Spacing in Latin lookup 0 subtable" dx=5 dy=0 dh=10 dv=0
EndChar

StartChar: Abreve
Encoding: 258 258 6
Width: 692
GlyphClass: 2
Flags: MW
HStem: 640 20G<375.291 481.291 481.291 484.791> 711 72<432.201 470.701 432.201 482.711>
VStem: 314 293
AnchorPoint: "Anchor-6" 631 0 basechar 0
AnchorPoint: "Anchor-5" 462 837 basechar 0
AnchorPoint: "Anchor-4" 278 0 basechar 0
LayerCount: 2
Fore
SplineSet
592.440429688 136 m 2
 602.110351562 88 609.301757812 53 641.301757812 53 c 0
 653.301757812 53 653.33203125 48 651.782226562 40 c 2
 646.532226562 13 l 2
 644.782226562 4 640.001953125 0 631.001953125 0 c 2
 361.001953125 0 l 2
 353.001953125 0 348.782226562 4 350.532226562 13 c 2
 355.782226562 40 l 2
 357.33203125 48 359.301757812 53 371.301757812 53 c 0
 425.301757812 53 458.69140625 91 451.44140625 136 c 2
 439.291015625 211 l 1
 197.80078125 211 l 1
 156.440429688 136 l 2
 133.470703125 95 152.30078125 53 206.30078125 53 c 0
 218.30078125 53 218.331054688 48 216.78125 40 c 2
 211.53125 13 l 2
 209.78125 4 204.000976562 0 196.000976562 0 c 2
 -23.9990234375 0 l 2
 -31.9990234375 0 -36.21875 4 -34.46875 13 c 2
 -29.21875 40 l 2
 -27.6689453125 48 -25.69921875 53 -13.69921875 53 c 0
 22.30078125 53 43.6904296875 91 68.4404296875 136 c 2
 358.150390625 649 l 2
 361.510742188 656 367.291015625 660 375.291015625 660 c 2
 481.291015625 660 l 2
 488.291015625 660 492.510742188 656 494.150390625 649 c 2
 592.440429688 136 l 2
437.2109375 711 m 0
 347.2109375 711 305.98046875 787 314.73046875 832 c 0
 316.670898438 842 324.451171875 846 332.641601562 847 c 0
 351.03125 849 378.811523438 853 388.811523438 853 c 0
 396.811523438 853 400.03125 849 400.28125 840 c 0
 401.090820312 803 413.201171875 783 451.201171875 783 c 0
 490.201171875 783 510.090820312 803 525.28125 840 c 0
 528.03125 849 533.811523438 853 541.811523438 853 c 0
 550.811523438 853 578.03125 849 594.641601562 847 c 0
 602.451171875 846 608.670898438 842 606.73046875 832 c 0
 597.98046875 787 528.2109375 711 437.2109375 711 c 0
239.611328125 288 m 1
 426.141601562 288 l 1
 381.021484375 544.73046875 l 1
 239.611328125 288 l 1
EndSplineSet
Substitution2: "'c2sc' Capitals to Small Capitals in Latin lookup 11 subtable" Abreve.sc
AlternateSubs2: "'aalt' Access All Alternates in Latin lookup 0 subtable" Abreve.sc
Position2: "'cpsp' Capital Spacing in Latin lookup 0 subtable" dx=5 dy=0 dh=10 dv=0
EndChar

StartChar: uni1EAE
Encoding: 7854 7854 7
Width: 692
GlyphClass: 2
Flags: MW
HStem: 640 20G<375.291 481.291 481.291 484.791> 711 72<432.201 470.701 432.201 482.711> 887 189
VStem: 314 293 413 213
AnchorPoint: "Anchor-6" 631 0 basechar 0
AnchorPoint: "Anchor-5" 540 1076 basechar 0
AnchorPoint: "Anchor-4" 278 0 basechar 0
LayerCount: 2
Fore
SplineSet
592.440429688 136 m 2xf0
 602.110351562 88 609.301757812 53 641.301757812 53 c 0
 653.301757812 53 653.33203125 48 651.782226562 40 c 2
 646.532226562 13 l 2
 644.782226562 4 640.001953125 0 631.001953125 0 c 2
 361.001953125 0 l 2
 353.001953125 0 348.782226562 4 350.532226562 13 c 2
 355.782226562 40 l 2
 357.33203125 48 359.301757812 53 371.301757812 53 c 0
 425.301757812 53 458.69140625 91 451.44140625 136 c 2
 439.291015625 211 l 1
 197.80078125 211 l 1
 156.440429688 136 l 2
 133.470703125 95 152.30078125 53 206.30078125 53 c 0
 218.30078125 53 218.331054688 48 216.78125 40 c 2
 211.53125 13 l 2
 209.78125 4 204.000976562 0 196.000976562 0 c 2
 -23.9990234375 0 l 2
 -31.9990234375 0 -36.21875 4 -34.46875 13 c 2
 -29.21875 40 l 2
 -27.6689453125 48 -25.69921875 53 -13.69921875 53 c 0
 22.30078125 53 43.6904296875 91 68.4404296875 136 c 2
 358.150390625 649 l 2
 361.510742188 656 367.291015625 660 375.291015625 660 c 2
 481.291015625 660 l 2
 488.291015625 660 492.510742188 656 494.150390625 649 c 2
 592.440429688 136 l 2xf0
437.2109375 711 m 0
 347.2109375 711 305.98046875 787 314.73046875 832 c 0
 316.670898438 842 324.451171875 846 332.641601562 847 c 0
 351.03125 849 378.811523438 853 388.811523438 853 c 0
 396.811523438 853 400.03125 849 400.28125 840 c 0
 401.090820312 803 413.201171875 783 451.201171875 783 c 0
 490.201171875 783 510.090820312 803 525.28125 840 c 0
 528.03125 849 533.811523438 853 541.811523438 853 c 0
 550.811523438 853 578.03125 849 594.641601562 847 c 0
 602.451171875 846 608.670898438 842 606.73046875 832 c 0
 597.98046875 787 528.2109375 711 437.2109375 711 c 0
413.130859375 906.120117188 m 1xe8
 482.940429688 977.120117188 503.76953125 1007.12011719 537.849609375 1064.12011719 c 0
 544.979492188 1075.12011719 561.1796875 1076.12011719 573.1796875 1076.12011719 c 0
 606.1796875 1076.12011719 631.459960938 1062.12011719 625.4296875 1031.12011719 c 0
 612.599609375 965.120117188 527.080078125 916.120117188 467.41015625 892.120117188 c 0
 462.020507812 890.120117188 456.520507812 887.509765625 451.600585938 887.509765625 c 0
 448.520507812 887.509765625 445.9609375 888.549804688 443.020507812 890.120117188 c 2
 413.130859375 906.120117188 l 1xe8
239.610351562 288 m 1
 426.140625 288 l 1
 381.020507812 544.73046875 l 1
 239.610351562 288 l 1
EndSplineSet
Substitution2: "'c2sc' Capitals to Small Capitals in Latin lookup 11 subtable" uni1EAE.sc
AlternateSubs2: "'aalt' Access All Alternates in Latin lookup 0 subtable" uni1EAE.sc
Position2: "'cpsp' Capital Spacing in Latin lookup 0 subtable" dx=5 dy=0 dh=10 dv=0
EndChar

StartChar: uni1EB6
Encoding: 7862 7862 8
Width: 692
GlyphClass: 2
Flags: MW
HStem: -207 157 640 20G<375.291 481.291 481.291 484.791> 711 72<432.201 470.701 432.201 482.711>
VStem: 175 158 314 293
AnchorPoint: "Anchor-6" 631 0 basechar 0
AnchorPoint: "Anchor-5" 462 837 basechar 0
AnchorPoint: "Anchor-4" 278 0 basechar 0
LayerCount: 2
Fore
SplineSet
592.440429688 136 m 2xf0
 602.110351562 88 609.301757812 53 641.301757812 53 c 0
 653.301757812 53 653.33203125 48 651.782226562 40 c 2
 646.532226562 13 l 2
 644.782226562 4 640.001953125 0 631.001953125 0 c 2
 361.001953125 0 l 2
 353.001953125 0 348.782226562 4 350.532226562 13 c 2
 355.782226562 40 l 2
 357.33203125 48 359.301757812 53 371.301757812 53 c 0
 425.301757812 53 458.69140625 91 451.44140625 136 c 2
 439.291015625 211 l 1
 197.80078125 211 l 1
 156.440429688 136 l 2
 133.470703125 95 152.30078125 53 206.30078125 53 c 0
 218.30078125 53 218.331054688 48 216.78125 40 c 2
 211.53125 13 l 2
 209.78125 4 204.000976562 0 196.000976562 0 c 2
 -23.9990234375 0 l 2
 -31.9990234375 0 -36.21875 4 -34.46875 13 c 2
 -29.21875 40 l 2
 -27.6689453125 48 -25.69921875 53 -13.69921875 53 c 0
 22.30078125 53 43.6904296875 91 68.4404296875 136 c 2
 358.150390625 649 l 2
 361.510742188 656 367.291015625 660 375.291015625 660 c 2
 481.291015625 660 l 2
 488.291015625 660 492.510742188 656 494.150390625 649 c 2
 592.440429688 136 l 2xf0
269.051757812 -50.5400390625 m 0
 288.071289062 -54.240234375 302.129882812 -64.3701171875 317.450195312 -87.08984375 c 0
 332.770507812 -109.799804688 337.130859375 -125.450195312 333.440429688 -144.469726562 c 0
 329.740234375 -163.489257812 318.419921875 -177.319335938 297.120117188 -191.6796875 c 0
 274.41015625 -207.009765625 257.5703125 -211.129882812 238.55078125 -207.439453125 c 0
 220.720703125 -203.969726562 207.840820312 -194.069335938 191.340820312 -171.119140625 c 0
 175.78125 -149.599609375 171.661132812 -132.759765625 175.3515625 -113.740234375 c 0
 179.051757812 -94.720703125 188.952148438 -81.8505859375 211.671875 -66.5205078125 c 0
 234.381835938 -51.2001953125 251.221679688 -47.080078125 269.051757812 -50.5400390625 c 0
437.2109375 711 m 0
 347.2109375 711 305.98046875 787 314.73046875 832 c 0xe8
 316.670898438 842 324.451171875 846 332.641601562 847 c 0xf0
 351.03125 849 378.811523438 853 388.811523438 853 c 0
 396.811523438 853 400.03125 849 400.28125 840 c 0
 401.090820312 803 413.201171875 783 451.201171875 783 c 0
 490.201171875 783 510.090820312 803 525.28125 840 c 0
 528.03125 849 533.811523438 853 541.811523438 853 c 0
 550.811523438 853 578.03125 849 594.641601562 847 c 0
 602.451171875 846 608.670898438 842 606.73046875 832 c 0xe8
 597.98046875 787 528.2109375 711 437.2109375 711 c 0
239.611328125 288 m 1
 426.141601562 288 l 1
 381.021484375 544.73046875 l 1
 239.611328125 288 l 1
EndSplineSet
Substitution2: "'c2sc' Capitals to Small Capitals in Latin lookup 11 subtable" uni1EB6.sc
AlternateSubs2: "'aalt' Access All Alternates in Latin lookup 0 subtable" uni1EB6.sc
Position2: "'cpsp' Capital Spacing in Latin lookup 0 subtable" dx=5 dy=0 dh=10 dv=0
EndChar

StartChar: uni1EB0
Encoding: 7856 7856 9
Width: 692
GlyphClass: 2
Flags: MW
HStem: 640 20G<375.291 481.291 481.291 484.791> 711 72<432.201 470.701 432.201 482.711> 887 189
VStem: 314 293 341 213
AnchorPoint: "Anchor-6" 631 0 basechar 0
AnchorPoint: "Anchor-5" 483 1076 basechar 0
AnchorPoint: "Anchor-4" 278 0 basechar 0
LayerCount: 2
Fore
SplineSet
592.440429688 136 m 2xe8
 602.110351562 88 609.301757812 53 641.301757812 53 c 0
 653.301757812 53 653.33203125 48 651.782226562 40 c 2
 646.532226562 13 l 2
 644.782226562 4 640.001953125 0 631.001953125 0 c 2
 361.001953125 0 l 2
 353.001953125 0 348.782226562 4 350.532226562 13 c 2
 355.782226562 40 l 2
 357.33203125 48 359.301757812 53 371.301757812 53 c 0
 425.301757812 53 458.69140625 91 451.44140625 136 c 2
 439.291015625 211 l 1
 197.80078125 211 l 1
 156.440429688 136 l 2
 133.470703125 95 152.30078125 53 206.30078125 53 c 0
 218.30078125 53 218.331054688 48 216.78125 40 c 2
 211.53125 13 l 2
 209.78125 4 204.000976562 0 196.000976562 0 c 2
 -23.9990234375 0 l 2
 -31.9990234375 0 -36.21875 4 -34.46875 13 c 2
 -29.21875 40 l 2
 -27.6689453125 48 -25.69921875 53 -13.69921875 53 c 0
 22.30078125 53 43.6904296875 91 68.4404296875 136 c 2
 358.150390625 649 l 2
 361.510742188 656 367.291015625 660 375.291015625 660 c 2
 481.291015625 660 l 2
 488.291015625 660 492.510742188 656 494.150390625 649 c 2
 592.440429688 136 l 2xe8
437.2109375 711 m 0
 347.2109375 711 305.98046875 787 314.73046875 832 c 0
 316.670898438 842 324.451171875 846 332.641601562 847 c 0
 351.03125 849 378.811523438 853 388.811523438 853 c 0
 396.811523438 853 400.03125 849 400.28125 840 c 0
 401.090820312 803 413.201171875 783 451.201171875 783 c 0
 490.201171875 783 510.090820312 803 525.28125 840 c 0
 528.03125 849 533.811523438 853 541.811523438 853 c 0
 550.811523438 853 578.03125 849 594.641601562 847 c 0
 602.451171875 846 608.670898438 842 606.73046875 832 c 0xf0
 597.98046875 787 528.2109375 711 437.2109375 711 c 0
524.571289062 890.120117188 m 2
 521.630859375 888.549804688 519.081054688 887.509765625 516.000976562 887.509765625 c 0
 511.081054688 887.509765625 505.571289062 890.120117188 500.181640625 892.120117188 c 0
 440.51171875 916.120117188 354.991210938 965.120117188 342.161132812 1031.12011719 c 0
 336.130859375 1062.12011719 361.411132812 1076.12011719 394.411132812 1076.12011719 c 0
 406.411132812 1076.12011719 422.611328125 1075.12011719 429.750976562 1064.12011719 c 0
 463.831054688 1007.12011719 484.661132812 977.120117188 554.4609375 906.120117188 c 1xe8
 524.571289062 890.120117188 l 2
239.611328125 288 m 1
 426.141601562 288 l 1
 381.021484375 544.73046875 l 1
 239.611328125 288 l 1
EndSplineSet
Substitution2: "'c2sc' Capitals to Small Capitals in Latin lookup 11 subtable" uni1EB0.sc
AlternateSubs2: "'aalt' Access All Alternates in Latin lookup 0 subtable" uni1EB0.sc
Position2: "'cpsp' Capital Spacing in Latin lookup 0 subtable" dx=5 dy=0 dh=10 dv=0
EndChar

StartChar: uni1EB2
Encoding: 7858 7858 10
Width: 692
GlyphClass: 2
Flags: MW
HStem: 640 20G<375.291 481.291 481.291 484.791> 711 72<432.201 470.701 432.201 482.711> 996 97 1013 80
VStem: 314 293 411 162
AnchorPoint: "Anchor-6" 631 0 basechar 0
AnchorPoint: "Anchor-5" 517 1123 basechar 0
AnchorPoint: "Anchor-4" 278 0 basechar 0
LayerCount: 2
Fore
SplineSet
592.440429688 136 m 2xe8
 602.110351562 88 609.301757812 53 641.301757812 53 c 0
 653.301757812 53 653.33203125 48 651.782226562 40 c 2
 646.532226562 13 l 2
 644.782226562 4 640.001953125 0 631.001953125 0 c 2
 361.001953125 0 l 2
 353.001953125 0 348.782226562 4 350.532226562 13 c 2
 355.782226562 40 l 2
 357.33203125 48 359.301757812 53 371.301757812 53 c 0
 425.301757812 53 458.69140625 91 451.44140625 136 c 2
 439.291015625 211 l 1
 197.80078125 211 l 1
 156.440429688 136 l 2
 133.470703125 95 152.30078125 53 206.30078125 53 c 0
 218.30078125 53 218.331054688 48 216.78125 40 c 2
 211.53125 13 l 2
 209.78125 4 204.000976562 0 196.000976562 0 c 2
 -23.9990234375 0 l 2
 -31.9990234375 0 -36.21875 4 -34.46875 13 c 2
 -29.21875 40 l 2
 -27.6689453125 48 -25.69921875 53 -13.69921875 53 c 0
 22.30078125 53 43.6904296875 91 68.4404296875 136 c 2
 358.150390625 649 l 2
 361.510742188 656 367.291015625 660 375.291015625 660 c 2
 481.291015625 660 l 2
 488.291015625 660 492.510742188 656 494.150390625 649 c 2
 592.440429688 136 l 2xe8
437.2109375 711 m 0
 347.2109375 711 305.98046875 787 314.73046875 832 c 0
 316.670898438 842 324.451171875 846 332.641601562 847 c 0
 351.03125 849 378.811523438 853 388.811523438 853 c 0
 396.811523438 853 400.03125 849 400.28125 840 c 0
 401.090820312 803 413.201171875 783 451.201171875 783 c 0
 490.201171875 783 510.090820312 803 525.28125 840 c 0
 528.03125 849 533.811523438 853 541.811523438 853 c 0
 550.811523438 853 578.03125 849 594.641601562 847 c 0
 602.451171875 846 608.670898438 842 606.73046875 832 c 0
 597.98046875 787 528.2109375 711 437.2109375 711 c 0
511.2109375 891.120117188 m 0
 494.901367188 874.120117188 446.559570312 901.440429688 461.669921875 917.440429688 c 0
 477.969726562 934.440429688 489.290039062 948.130859375 494 972.400390625 c 0
 500.91015625 1007.91992188 484.830078125 1013.19042969 471.669921875 1013.19042969 c 0xd4
 447.990234375 1013.19042969 424.959960938 986.630859375 419.120117188 1000.03125 c 0
 411.650390625 1017.13085938 409.220703125 1030.890625 411.911132812 1049.890625 c 0xe4
 414.041015625 1064.890625 469.470703125 1093.12011719 505.470703125 1093.12011719 c 0
 568.470703125 1093.12011719 579.750976562 1043.12011719 571.201171875 999.120117188 c 0
 564.010742188 962.120117188 542.430664062 923.120117188 511.2109375 891.120117188 c 0
239.598632812 288.010742188 m 1
 426.12890625 288.009765625 l 1
 381.008789062 544.740234375 l 1
 239.598632812 288.010742188 l 1
EndSplineSet
Substitution2: "'c2sc' Capitals to Small Capitals in Latin lookup 11 subtable" uni1EB2.sc
AlternateSubs2: "'aalt' Access All Alternates in Latin lookup 0 subtable" uni1EB2.sc
Position2: "'cpsp' Capital Spacing in Latin lookup 0 subtable" dx=5 dy=0 dh=10 dv=0
EndChar

StartChar: uni1EB4
Encoding: 7860 7860 11
Width: 692
GlyphClass: 2
Flags: MW
HStem: 640 20G<375.291 481.291 481.291 484.791> 711 72<432.201 470.701 432.201 482.711> 889 76 973 75
VStem: 314 293 329 316 564 79
AnchorPoint: "Anchor-6" 631 0 basechar 0
AnchorPoint: "Anchor-5" 498 1022 basechar 0
AnchorPoint: "Anchor-4" 278 0 basechar 0
LayerCount: 2
Fore
SplineSet
592.440429688 136 m 2xf4
 602.110351562 88 609.301757812 53 641.301757812 53 c 0
 653.301757812 53 653.33203125 48 651.782226562 40 c 2
 646.532226562 13 l 2
 644.782226562 4 640.001953125 0 631.001953125 0 c 2
 361.001953125 0 l 2
 353.001953125 0 348.782226562 4 350.532226562 13 c 2
 355.782226562 40 l 2
 357.33203125 48 359.301757812 53 371.301757812 53 c 0
 425.301757812 53 458.69140625 91 451.44140625 136 c 2
 439.291015625 211 l 1
 197.80078125 211 l 1
 156.440429688 136 l 2
 133.470703125 95 152.30078125 53 206.30078125 53 c 0
 218.30078125 53 218.331054688 48 216.78125 40 c 2
 211.53125 13 l 2
 209.78125 4 204.000976562 0 196.000976562 0 c 2
 -23.9990234375 0 l 2
 -31.9990234375 0 -36.21875 4 -34.46875 13 c 2
 -29.21875 40 l 2
 -27.6689453125 48 -25.69921875 53 -13.69921875 53 c 0
 22.30078125 53 43.6904296875 91 68.4404296875 136 c 2
 358.150390625 649 l 2
 361.510742188 656 367.291015625 660 375.291015625 660 c 2
 481.291015625 660 l 2
 488.291015625 660 492.510742188 656 494.150390625 649 c 2
 592.440429688 136 l 2xf4
437.2109375 711 m 0
 347.2109375 711 305.98046875 787 314.73046875 832 c 0
 316.670898438 842 324.451171875 846 332.641601562 847 c 0
 351.03125 849 378.811523438 853 388.811523438 853 c 0
 396.811523438 853 400.03125 849 400.28125 840 c 0
 401.090820312 803 413.201171875 783 451.201171875 783 c 0
 490.201171875 783 510.090820312 803 525.28125 840 c 0
 528.03125 849 533.811523438 853 541.811523438 853 c 0
 550.811523438 853 578.03125 849 594.641601562 847 c 0
 602.451171875 846 608.670898438 842 606.73046875 832 c 0xf8
 597.98046875 787 528.2109375 711 437.2109375 711 c 0
520.270507812 989.120117188 m 0
 527.9609375 972.120117188 534.599609375 965.120117188 544.599609375 965.120117188 c 0
 556.599609375 965.120117188 562.549804688 975.120117188 564.490234375 985.120117188 c 0
 566.8203125 997.120117188 566.16015625 1009.12011719 558.680664062 1022.12011719 c 1
 570.8203125 1033.12011719 593.930664062 1049.12011719 612.930664062 1049.12011719 c 0
 627.930664062 1049.12011719 650.7109375 1017.12011719 643.7109375 981.120117188 c 0xf2
 632.630859375 924.120117188 583.831054688 889.120117188 539.831054688 889.120117188 c 0
 478.831054688 889.120117188 463.630859375 924.120117188 454.30078125 948.120117188 c 0
 447.80078125 966.120117188 441.161132812 973.120117188 431.161132812 973.120117188 c 0
 419.161132812 973.120117188 411.821289062 961.120117188 410.081054688 952.120117188 c 0
 407.741210938 940.120117188 409.411132812 928.120117188 416.880859375 915.120117188 c 1
 404.750976562 904.120117188 381.640625 888.120117188 361.640625 888.120117188 c 0
 346.640625 888.120117188 324.05078125 921.120117188 330.661132812 955.120117188 c 0
 341.930664062 1013.12011719 391.740234375 1048.12011719 435.740234375 1048.12011719 c 0
 495.740234375 1048.12011719 511.540039062 1011.12011719 520.270507812 989.120117188 c 0
239.609375 288 m 1
 426.139648438 288 l 1
 381.01953125 544.73046875 l 1
 239.609375 288 l 1
EndSplineSet
Substitution2: "'c2sc' Capitals to Small Capitals in Latin lookup 11 subtable" uni1EB4.sc
AlternateSubs2: "'aalt' Access All Alternates in Latin lookup 0 subtable" uni1EB4.sc
Position2: "'cpsp' Capital Spacing in Latin lookup 0 subtable" dx=5 dy=0 dh=10 dv=0
EndChar

StartChar: uni01CD
Encoding: 461 461 12
Width: 692
GlyphClass: 2
Flags: MW
HStem: 640 20G<375.291 481.291 481.291 484.791> 708 189
VStem: 290 346
AnchorPoint: "Anchor-6" 631 0 basechar 0
AnchorPoint: "Anchor-5" 470 845 basechar 0
AnchorPoint: "Anchor-4" 278 0 basechar 0
LayerCount: 2
Fore
SplineSet
592.440429688 136 m 2
 602.110351562 88 609.301757812 53 641.301757812 53 c 0
 653.301757812 53 653.33203125 48 651.782226562 40 c 2
 646.532226562 13 l 2
 644.782226562 4 640.001953125 0 631.001953125 0 c 2
 361.001953125 0 l 2
 353.001953125 0 348.782226562 4 350.532226562 13 c 2
 355.782226562 40 l 2
 357.33203125 48 359.301757812 53 371.301757812 53 c 0
 425.301757812 53 458.69140625 91 451.44140625 136 c 2
 439.291015625 211 l 1
 197.80078125 211 l 1
 156.440429688 136 l 2
 133.470703125 95 152.30078125 53 206.30078125 53 c 0
 218.30078125 53 218.331054688 48 216.78125 40 c 2
 211.53125 13 l 2
 209.78125 4 204.000976562 0 196.000976562 0 c 2
 -23.9990234375 0 l 2
 -31.9990234375 0 -36.21875 4 -34.46875 13 c 2
 -29.21875 40 l 2
 -27.6689453125 48 -25.69921875 53 -13.69921875 53 c 0
 22.30078125 53 43.6904296875 91 68.4404296875 136 c 2
 358.150390625 649 l 2
 361.510742188 656 367.291015625 660 375.291015625 660 c 2
 481.291015625 660 l 2
 488.291015625 660 492.510742188 656 494.150390625 649 c 2
 592.440429688 136 l 2
454.671875 793 m 1
 490.19140625 842 544.881835938 897 601.881835938 897 c 0
 631.881835938 897 640.251953125 868 633.83203125 835 c 0
 630.921875 820 627.391601562 807 615.421875 802 c 0
 553.141601562 780 520.231445312 765 438.151367188 708 c 1
 378.231445312 765 351.141601562 780 297.421875 802 c 0
 287.391601562 807 288.921875 820 291.83203125 835 c 0
 298.251953125 868 317.881835938 897 347.881835938 897 c 0
 404.881835938 897 438.19140625 842 454.671875 793 c 1
239.612304688 288 m 1
 426.142578125 288 l 1
 381.022460938 544.73046875 l 1
 239.612304688 288 l 1
EndSplineSet
Substitution2: "'c2sc' Capitals to Small Capitals in Latin lookup 11 subtable" uni01CD.sc
AlternateSubs2: "'aalt' Access All Alternates in Latin lookup 0 subtable" uni01CD.sc
Position2: "'cpsp' Capital Spacing in Latin lookup 0 subtable" dx=5 dy=0 dh=10 dv=0
EndChar

StartChar: Acircumflex
Encoding: 194 194 13
Width: 692
GlyphClass: 2
Flags: MW
HStem: 640 20G<375.291 481.291 481.291 484.791> 708 189
VStem: 276 346
AnchorPoint: "Anchor-7" 457 812 basechar 0
AnchorPoint: "Anchor-6" 631 0 basechar 0
AnchorPoint: "Anchor-5" 468 867 basechar 0
AnchorPoint: "Anchor-4" 278 0 basechar 0
LayerCount: 2
Fore
SplineSet
592.440429688 136 m 2
 602.110351562 88 609.301757812 53 641.301757812 53 c 0
 653.301757812 53 653.33203125 48 651.782226562 40 c 2
 646.532226562 13 l 2
 644.782226562 4 640.001953125 0 631.001953125 0 c 2
 361.001953125 0 l 2
 353.001953125 0 348.782226562 4 350.532226562 13 c 2
 355.782226562 40 l 2
 357.33203125 48 359.301757812 53 371.301757812 53 c 0
 425.301757812 53 458.69140625 91 451.44140625 136 c 2
 439.291015625 211 l 1
 197.80078125 211 l 1
 156.440429688 136 l 2
 133.470703125 95 152.30078125 53 206.30078125 53 c 0
 218.30078125 53 218.331054688 48 216.78125 40 c 2
 211.53125 13 l 2
 209.78125 4 204.000976562 0 196.000976562 0 c 2
 -23.9990234375 0 l 2
 -31.9990234375 0 -36.21875 4 -34.46875 13 c 2
 -29.21875 40 l 2
 -27.6689453125 48 -25.69921875 53 -13.69921875 53 c 0
 22.30078125 53 43.6904296875 91 68.4404296875 136 c 2
 358.150390625 649 l 2
 361.510742188 656 367.291015625 660 375.291015625 660 c 2
 481.291015625 660 l 2
 488.291015625 660 492.510742188 656 494.150390625 649 c 2
 592.440429688 136 l 2
456.841796875 812 m 1
 421.311523438 763 366.62109375 708 309.62109375 708 c 0
 279.62109375 708 271.260742188 737 277.670898438 770 c 0
 280.590820312 785 284.12109375 798 296.090820312 803 c 0
 358.360351562 825 391.280273438 840 473.360351562 897 c 1
 533.280273438 840 560.360351562 825 614.090820312 803 c 0
 624.12109375 798 622.590820312 785 619.670898438 770 c 0
 613.260742188 737 593.62109375 708 563.62109375 708 c 0
 506.62109375 708 473.311523438 763 456.841796875 812 c 1
239.611328125 288 m 1
 426.141601562 288 l 1
 381.021484375 544.73046875 l 1
 239.611328125 288 l 1
EndSplineSet
Substitution2: "'c2sc' Capitals to Small Capitals in Latin lookup 11 subtable" Acircumflex.sc
AlternateSubs2: "'aalt' Access All Alternates in Latin lookup 0 subtable" Acircumflex.sc
Position2: "'cpsp' Capital Spacing in Latin lookup 0 subtable" dx=5 dy=0 dh=10 dv=0
EndChar

StartChar: uni1EA4
Encoding: 7844 7844 14
Width: 692
GlyphClass: 2
Flags: MW
HStem: 640 20G<375.291 481.291 481.291 484.791> 708 189 862 189
VStem: 556 213
AnchorPoint: "Anchor-7" 683 1051 basechar 0
AnchorPoint: "Anchor-6" 631 0 basechar 0
AnchorPoint: "Anchor-5" 468 867 basechar 0
AnchorPoint: "Anchor-4" 278 0 basechar 0
LayerCount: 2
Fore
SplineSet
592.440429688 136 m 2xd0
 602.110351562 88 609.301757812 53 641.301757812 53 c 0
 653.301757812 53 653.33203125 48 651.782226562 40 c 2
 646.532226562 13 l 2
 644.782226562 4 640.001953125 0 631.001953125 0 c 2
 361.001953125 0 l 2
 353.001953125 0 348.782226562 4 350.532226562 13 c 2
 355.782226562 40 l 2
 357.33203125 48 359.301757812 53 371.301757812 53 c 0
 425.301757812 53 458.69140625 91 451.44140625 136 c 2
 439.291015625 211 l 1
 197.80078125 211 l 1
 156.440429688 136 l 2
 133.470703125 95 152.30078125 53 206.30078125 53 c 0
 218.30078125 53 218.331054688 48 216.78125 40 c 2
 211.53125 13 l 2
 209.78125 4 204.000976562 0 196.000976562 0 c 2
 -23.9990234375 0 l 2
 -31.9990234375 0 -36.21875 4 -34.46875 13 c 2
 -29.21875 40 l 2
 -27.6689453125 48 -25.69921875 53 -13.69921875 53 c 0
 22.30078125 53 43.6904296875 91 68.4404296875 136 c 2
 358.150390625 649 l 2
 361.510742188 656 367.291015625 660 375.291015625 660 c 2
 481.291015625 660 l 2
 488.291015625 660 492.510742188 656 494.150390625 649 c 2
 592.440429688 136 l 2xd0
456.841796875 812 m 1
 421.311523438 763 366.62109375 708 309.62109375 708 c 0
 279.62109375 708 271.260742188 737 277.670898438 770 c 0
 280.590820312 785 284.12109375 798 296.090820312 803 c 0
 358.360351562 825 391.280273438 840 473.360351562 897 c 1
 533.280273438 840 560.360351562 825 614.090820312 803 c 0
 624.12109375 798 622.590820312 785 619.670898438 770 c 0
 613.260742188 737 593.62109375 708 563.62109375 708 c 0
 506.62109375 708 473.311523438 763 456.841796875 812 c 1
556.251953125 881 m 1
 626.051757812 952 646.881835938 982 680.961914062 1039 c 0
 688.1015625 1050 704.291992188 1051 716.291992188 1051 c 0
 749.291992188 1051 774.572265625 1037 768.551757812 1006 c 0
 755.721679688 940 670.19140625 891 610.53125 867 c 0
 605.141601562 865 599.631835938 862.379882812 594.711914062 862.379882812 c 0xb0
 591.631835938 862.379882812 589.08203125 863.4296875 586.141601562 865 c 2
 556.251953125 881 l 1
239.612304688 288 m 1
 426.142578125 288 l 1
 381.022460938 544.73046875 l 1
 239.612304688 288 l 1
EndSplineSet
Substitution2: "'c2sc' Capitals to Small Capitals in Latin lookup 11 subtable" uni1EA4.sc
AlternateSubs2: "'aalt' Access All Alternates in Latin lookup 0 subtable" uni1EA4.sc
Position2: "'cpsp' Capital Spacing in Latin lookup 0 subtable" dx=5 dy=0 dh=10 dv=0
EndChar

StartChar: uni1EAC
Encoding: 7852 7852 15
Width: 692
GlyphClass: 2
Flags: MW
HStem: -207 157 640 20G<375.291 481.291 481.291 484.791> 708 189
VStem: 175 158 276 346
AnchorPoint: "Anchor-7" 457 812 basechar 0
AnchorPoint: "Anchor-6" 631 0 basechar 0
AnchorPoint: "Anchor-5" 468 867 basechar 0
AnchorPoint: "Anchor-4" 278 0 basechar 0
LayerCount: 2
Fore
SplineSet
592.440429688 136 m 2xe8
 602.110351562 88 609.301757812 53 641.301757812 53 c 0
 653.301757812 53 653.33203125 48 651.782226562 40 c 2
 646.532226562 13 l 2
 644.782226562 4 640.001953125 0 631.001953125 0 c 2
 361.001953125 0 l 2
 353.001953125 0 348.782226562 4 350.532226562 13 c 2
 355.782226562 40 l 2
 357.33203125 48 359.301757812 53 371.301757812 53 c 0
 425.301757812 53 458.69140625 91 451.44140625 136 c 2
 439.291015625 211 l 1
 197.80078125 211 l 1
 156.440429688 136 l 2
 133.470703125 95 152.30078125 53 206.30078125 53 c 0
 218.30078125 53 218.331054688 48 216.78125 40 c 2
 211.53125 13 l 2
 209.78125 4 204.000976562 0 196.000976562 0 c 2
 -23.9990234375 0 l 2
 -31.9990234375 0 -36.21875 4 -34.46875 13 c 2
 -29.21875 40 l 2
 -27.6689453125 48 -25.69921875 53 -13.69921875 53 c 0
 22.30078125 53 43.6904296875 91 68.4404296875 136 c 2
 358.150390625 649 l 2
 361.510742188 656 367.291015625 660 375.291015625 660 c 2
 481.291015625 660 l 2
 488.291015625 660 492.510742188 656 494.150390625 649 c 2
 592.440429688 136 l 2xe8
269.051757812 -50.5400390625 m 0
 288.071289062 -54.240234375 302.129882812 -64.3701171875 317.450195312 -87.08984375 c 0
 332.770507812 -109.799804688 337.130859375 -125.450195312 333.440429688 -144.469726562 c 0
 329.740234375 -163.489257812 318.419921875 -177.319335938 297.120117188 -191.6796875 c 0
 274.41015625 -207.009765625 257.5703125 -211.129882812 238.55078125 -207.439453125 c 0
 220.720703125 -203.969726562 207.840820312 -194.069335938 191.340820312 -171.119140625 c 0
 175.78125 -149.599609375 171.661132812 -132.759765625 175.3515625 -113.740234375 c 0xf0
 179.051757812 -94.720703125 188.952148438 -81.8505859375 211.671875 -66.5205078125 c 0
 234.381835938 -51.2001953125 251.221679688 -47.080078125 269.051757812 -50.5400390625 c 0
456.840820312 812 m 1
 421.310546875 763 366.620117188 708 309.620117188 708 c 0
 279.620117188 708 271.259765625 737 277.669921875 770 c 0
 280.58984375 785 284.120117188 798 296.08984375 803 c 0
 358.359375 825 391.279296875 840 473.359375 897 c 1
 533.279296875 840 560.359375 825 614.08984375 803 c 0
 624.120117188 798 622.58984375 785 619.669921875 770 c 0
 613.259765625 737 593.620117188 708 563.620117188 708 c 0
 506.620117188 708 473.310546875 763 456.840820312 812 c 1
239.610351562 288 m 1
 426.140625 288 l 1
 381.020507812 544.73046875 l 1
 239.610351562 288 l 1
EndSplineSet
Substitution2: "'c2sc' Capitals to Small Capitals in Latin lookup 11 subtable" uni1EAC.sc
AlternateSubs2: "'aalt' Access All Alternates in Latin lookup 0 subtable" uni1EAC.sc
Position2: "'cpsp' Capital Spacing in Latin lookup 0 subtable" dx=5 dy=0 dh=10 dv=0
EndChar

StartChar: uni1EA6
Encoding: 7846 7846 16
Width: 692
GlyphClass: 2
Flags: MW
HStem: 640 20G<375.291 481.291 481.291 484.791> 708 189 862 189
VStem: 193 213 276 346
AnchorPoint: "Anchor-7" 335 1051 basechar 0
AnchorPoint: "Anchor-6" 631 0 basechar 0
AnchorPoint: "Anchor-5" 468 867 basechar 0
AnchorPoint: "Anchor-4" 278 0 basechar 0
LayerCount: 2
Fore
SplineSet
592.440429688 136 m 2xa8
 602.110351562 88 609.301757812 53 641.301757812 53 c 0
 653.301757812 53 653.33203125 48 651.782226562 40 c 2
 646.532226562 13 l 2
 644.782226562 4 640.001953125 0 631.001953125 0 c 2
 361.001953125 0 l 2
 353.001953125 0 348.782226562 4 350.532226562 13 c 2
 355.782226562 40 l 2
 357.33203125 48 359.301757812 53 371.301757812 53 c 0
 425.301757812 53 458.69140625 91 451.44140625 136 c 2
 439.291015625 211 l 1
 197.80078125 211 l 1
 156.440429688 136 l 2
 133.470703125 95 152.30078125 53 206.30078125 53 c 0
 218.30078125 53 218.331054688 48 216.78125 40 c 2
 211.53125 13 l 2
 209.78125 4 204.000976562 0 196.000976562 0 c 2
 -23.9990234375 0 l 2
 -31.9990234375 0 -36.21875 4 -34.46875 13 c 2
 -29.21875 40 l 2
 -27.6689453125 48 -25.69921875 53 -13.69921875 53 c 0
 22.30078125 53 43.6904296875 91 68.4404296875 136 c 2
 358.150390625 649 l 2
 361.510742188 656 367.291015625 660 375.291015625 660 c 2
 481.291015625 660 l 2
 488.291015625 660 492.510742188 656 494.150390625 649 c 2
 592.440429688 136 l 2xa8
456.841796875 812 m 1
 421.311523438 763 366.62109375 708 309.62109375 708 c 0
 279.62109375 708 271.260742188 737 277.670898438 770 c 0
 280.590820312 785 284.12109375 798 296.090820312 803 c 0
 358.360351562 825 391.280273438 840 473.360351562 897 c 1
 533.280273438 840 560.360351562 825 614.090820312 803 c 0
 624.12109375 798 622.590820312 785 619.670898438 770 c 0
 613.260742188 737 593.62109375 708 563.62109375 708 c 0xc8
 506.62109375 708 473.311523438 763 456.841796875 812 c 1
376.681640625 865 m 2
 373.751953125 863.4296875 371.190429688 862.379882812 368.110351562 862.379882812 c 0
 363.190429688 862.379882812 357.680664062 865 352.30078125 867 c 0
 292.630859375 891 207.111328125 940 194.28125 1006 c 0
 188.250976562 1037 213.53125 1051 246.53125 1051 c 0xb0
 258.53125 1051 274.721679688 1050 281.861328125 1039 c 0
 315.94140625 982 336.771484375 952 406.571289062 881 c 1xd0
 376.681640625 865 l 2
239.609375 288 m 1
 426.139648438 288 l 1
 381.01953125 544.73046875 l 1
 239.609375 288 l 1
EndSplineSet
Substitution2: "'c2sc' Capitals to Small Capitals in Latin lookup 11 subtable" uni1EA6.sc
AlternateSubs2: "'aalt' Access All Alternates in Latin lookup 0 subtable" uni1EA6.sc
Position2: "'cpsp' Capital Spacing in Latin lookup 0 subtable" dx=5 dy=0 dh=10 dv=0
EndChar

StartChar: uni1EA8
Encoding: 7848 7848 17
Width: 692
GlyphClass: 2
Flags: MW
HStem: 640 20G<375.291 481.291 481.291 484.791> 708 189 861 207 988 80
VStem: 276 346 522 162
AnchorPoint: "Anchor-7" 628 1098 basechar 0
AnchorPoint: "Anchor-6" 631 0 basechar 0
AnchorPoint: "Anchor-5" 468 867 basechar 0
AnchorPoint: "Anchor-4" 278 0 basechar 0
LayerCount: 2
Fore
SplineSet
592.440429688 136 m 2xa8
 602.110351562 88 609.301757812 53 641.301757812 53 c 0
 653.301757812 53 653.33203125 48 651.782226562 40 c 2
 646.532226562 13 l 2
 644.782226562 4 640.001953125 0 631.001953125 0 c 2
 361.001953125 0 l 2
 353.001953125 0 348.782226562 4 350.532226562 13 c 2
 355.782226562 40 l 2
 357.33203125 48 359.301757812 53 371.301757812 53 c 0
 425.301757812 53 458.69140625 91 451.44140625 136 c 2
 439.291015625 211 l 1
 197.80078125 211 l 1
 156.440429688 136 l 2
 133.470703125 95 152.30078125 53 206.30078125 53 c 0
 218.30078125 53 218.331054688 48 216.78125 40 c 2
 211.53125 13 l 2
 209.78125 4 204.000976562 0 196.000976562 0 c 2
 -23.9990234375 0 l 2
 -31.9990234375 0 -36.21875 4 -34.46875 13 c 2
 -29.21875 40 l 2
 -27.6689453125 48 -25.69921875 53 -13.69921875 53 c 0
 22.30078125 53 43.6904296875 91 68.4404296875 136 c 2
 358.150390625 649 l 2
 361.510742188 656 367.291015625 660 375.291015625 660 c 2
 481.291015625 660 l 2
 488.291015625 660 492.510742188 656 494.150390625 649 c 2
 592.440429688 136 l 2xa8
456.841796875 812 m 1
 421.311523438 763 366.62109375 708 309.62109375 708 c 0
 279.62109375 708 271.260742188 737 277.670898438 770 c 0
 280.590820312 785 284.12109375 798 296.090820312 803 c 0
 358.360351562 825 391.280273438 840 473.360351562 897 c 1
 533.280273438 840 560.360351562 825 614.090820312 803 c 0
 624.12109375 798 622.590820312 785 619.670898438 770 c 0
 613.260742188 737 593.62109375 708 563.62109375 708 c 0xc8
 506.62109375 708 473.311523438 763 456.841796875 812 c 1
622.33203125 866 m 0
 606.032226562 849 557.681640625 876.319335938 572.791992188 892.319335938 c 0
 589.1015625 909.319335938 600.411132812 923.009765625 605.130859375 947.280273438 c 0
 612.041015625 982.799804688 595.9609375 988.059570312 582.80078125 988.059570312 c 0x94
 559.12109375 988.059570312 536.090820312 961.509765625 530.241210938 974.91015625 c 0
 522.78125 992.009765625 520.340820312 1005.76953125 523.041015625 1024.76953125 c 0xa4
 525.161132812 1039.76953125 580.6015625 1068 616.6015625 1068 c 0xa8
 679.6015625 1068 690.881835938 1018 682.33203125 974 c 0
 675.141601562 937 653.551757812 898 622.33203125 866 c 0
239.611328125 288.009765625 m 1
 426.141601562 288.009765625 l 1
 381.021484375 544.740234375 l 1
 239.611328125 288.009765625 l 1
EndSplineSet
Substitution2: "'c2sc' Capitals to Small Capitals in Latin lookup 11 subtable" uni1EA8.sc
AlternateSubs2: "'aalt' Access All Alternates in Latin lookup 0 subtable" uni1EA8.sc
Position2: "'cpsp' Capital Spacing in Latin lookup 0 subtable" dx=5 dy=0 dh=10 dv=0
EndChar

StartChar: uni1EAA
Encoding: 7850 7850 18
Width: 692
GlyphClass: 2
Flags: MW
HStem: 640 20G<375.291 481.291 481.291 484.791> 708 189 919 76<545.412 556.412 545.412 567.644> 1003 75<430.964 441.964>
VStem: 335 316 570 79
AnchorPoint: "Anchor-7" 457 812 basechar 0
AnchorPoint: "Anchor-6" 631 0 basechar 0
AnchorPoint: "Anchor-5" 503 1052 basechar 0
AnchorPoint: "Anchor-4" 278 0 basechar 0
LayerCount: 2
Fore
SplineSet
592.440429688 136 m 2xf4
 602.110351562 88 609.301757812 53 641.301757812 53 c 0
 653.301757812 53 653.33203125 48 651.782226562 40 c 2xf8
 646.532226562 13 l 2
 644.782226562 4 640.001953125 0 631.001953125 0 c 2
 361.001953125 0 l 2
 353.001953125 0 348.782226562 4 350.532226562 13 c 2
 355.782226562 40 l 2
 357.33203125 48 359.301757812 53 371.301757812 53 c 0
 425.301757812 53 458.69140625 91 451.44140625 136 c 2
 439.291015625 211 l 1
 197.80078125 211 l 1
 156.440429688 136 l 2
 133.470703125 95 152.30078125 53 206.30078125 53 c 0
 218.30078125 53 218.331054688 48 216.78125 40 c 2
 211.53125 13 l 2
 209.78125 4 204.000976562 0 196.000976562 0 c 2
 -23.9990234375 0 l 2
 -31.9990234375 0 -36.21875 4 -34.46875 13 c 2
 -29.21875 40 l 2
 -27.6689453125 48 -25.69921875 53 -13.69921875 53 c 0
 22.30078125 53 43.6904296875 91 68.4404296875 136 c 2
 358.150390625 649 l 2
 361.510742188 656 367.291015625 660 375.291015625 660 c 2
 481.291015625 660 l 2
 488.291015625 660 492.510742188 656 494.150390625 649 c 2
 592.440429688 136 l 2xf4
456.841796875 812 m 1
 421.311523438 763 366.62109375 708 309.62109375 708 c 0
 279.62109375 708 271.260742188 737 277.670898438 770 c 0
 280.590820312 785 284.12109375 798 296.090820312 803 c 0
 358.360351562 825 391.280273438 840 473.360351562 897 c 1
 533.280273438 840 560.360351562 825 614.090820312 803 c 0
 624.12109375 798 622.590820312 785 619.670898438 770 c 0
 613.260742188 737 593.62109375 708 563.62109375 708 c 0
 506.62109375 708 473.311523438 763 456.841796875 812 c 1
526.072265625 1019 m 0
 533.772460938 1002 540.412109375 995 550.412109375 995 c 0
 562.412109375 995 568.352539062 1005 570.302734375 1015 c 0
 572.6328125 1027 571.962890625 1039 564.493164062 1052 c 1
 576.6328125 1063 599.743164062 1079 618.743164062 1079 c 0
 633.743164062 1079 656.5234375 1047 649.5234375 1011 c 0xf4
 638.443359375 954 589.643554688 919 545.643554688 919 c 0
 484.643554688 919 469.443359375 954 460.11328125 978 c 0
 453.603515625 996 446.963867188 1003 436.963867188 1003 c 0
 424.963867188 1003 417.633789062 991 415.883789062 982 c 0
 413.553710938 970 415.223632812 958 422.693359375 945 c 1
 410.553710938 934 387.443359375 918 367.443359375 918 c 0
 352.443359375 918 329.86328125 951 336.473632812 985 c 0
 347.743164062 1043 397.54296875 1078 441.54296875 1078 c 0
 501.54296875 1078 517.352539062 1041 526.072265625 1019 c 0
239.612304688 288 m 1
 426.142578125 288 l 1
 381.022460938 544.73046875 l 1
 239.612304688 288 l 1
EndSplineSet
Substitution2: "'c2sc' Capitals to Small Capitals in Latin lookup 11 subtable" uni1EAA.sc
AlternateSubs2: "'aalt' Access All Alternates in Latin lookup 0 subtable" uni1EAA.sc
Position2: "'cpsp' Capital Spacing in Latin lookup 0 subtable" dx=5 dy=0 dh=10 dv=0
EndChar

StartChar: uni0200
Encoding: 512 512 19
Width: 692
GlyphClass: 2
Flags: MW
HStem: 640 20G<375.291 481.291 481.291 484.791> 710 189
VStem: 289 213 462 213
AnchorPoint: "Anchor-6" 631 0 basechar 0
AnchorPoint: "Anchor-5" 427 899 basechar 0
AnchorPoint: "Anchor-4" 278 0 basechar 0
LayerCount: 2
Fore
SplineSet
592.440429688 136 m 2xd0
 602.110351562 88 609.301757812 53 641.301757812 53 c 0
 653.301757812 53 653.33203125 48 651.782226562 40 c 2
 646.532226562 13 l 2
 644.782226562 4 640.001953125 0 631.001953125 0 c 2
 361.001953125 0 l 2
 353.001953125 0 348.782226562 4 350.532226562 13 c 2
 355.782226562 40 l 2
 357.33203125 48 359.301757812 53 371.301757812 53 c 0
 425.301757812 53 458.69140625 91 451.44140625 136 c 2
 439.291015625 211 l 1
 197.80078125 211 l 1
 156.440429688 136 l 2
 133.470703125 95 152.30078125 53 206.30078125 53 c 0
 218.30078125 53 218.331054688 48 216.78125 40 c 2
 211.53125 13 l 2
 209.78125 4 204.000976562 0 196.000976562 0 c 2
 -23.9990234375 0 l 2
 -31.9990234375 0 -36.21875 4 -34.46875 13 c 2
 -29.21875 40 l 2
 -27.6689453125 48 -25.69921875 53 -13.69921875 53 c 0
 22.30078125 53 43.6904296875 91 68.4404296875 136 c 2
 358.150390625 649 l 2
 361.510742188 656 367.291015625 660 375.291015625 660 c 2
 481.291015625 660 l 2
 488.291015625 660 492.510742188 656 494.150390625 649 c 2
 592.440429688 136 l 2xd0
645.01171875 713 m 2
 642.08203125 711.4296875 639.520507812 710.379882812 636.440429688 710.379882812 c 0
 631.520507812 710.379882812 626.010742188 713 620.630859375 715 c 0
 560.9609375 739 475.44140625 788 462.611328125 854 c 0
 456.581054688 885 481.861328125 899 514.861328125 899 c 0
 526.861328125 899 543.051757812 898 550.19140625 887 c 0
 584.271484375 830 605.1015625 800 674.901367188 729 c 1
 645.01171875 713 l 2
472.399414062 713 m 2
 469.458984375 711.4296875 466.909179688 710.379882812 463.829101562 710.379882812 c 0
 458.909179688 710.379882812 453.399414062 713 448.009765625 715 c 0
 388.349609375 739 302.819335938 788 289.989257812 854 c 0
 283.969726562 885 309.239257812 899 342.239257812 899 c 0
 354.239257812 899 370.439453125 898 377.579101562 887 c 0
 411.659179688 830 432.489257812 800 502.2890625 729 c 1xe0
 472.399414062 713 l 2
239.609375 288 m 1
 426.139648438 288 l 1
 381.01953125 544.73046875 l 1
 239.609375 288 l 1
EndSplineSet
Substitution2: "'c2sc' Capitals to Small Capitals in Latin lookup 11 subtable" uni0200.sc
AlternateSubs2: "'aalt' Access All Alternates in Latin lookup 0 subtable" uni0200.sc
Position2: "'cpsp' Capital Spacing in Latin lookup 0 subtable" dx=5 dy=0 dh=10 dv=0
EndChar

StartChar: Adieresis
Encoding: 196 196 20
Width: 692
GlyphClass: 2
Flags: MW
HStem: 640 20G<375.291 481.291 481.291 484.791> 707 157
VStem: 273 158 478 158
AnchorPoint: "Anchor-6" 631 0 basechar 0
AnchorPoint: "Anchor-5" 463 845 basechar 0
AnchorPoint: "Anchor-4" 278 0 basechar 0
LayerCount: 2
Fore
SplineSet
592.440429688 136 m 2
 602.110351562 88 609.301757812 53 641.301757812 53 c 0
 653.301757812 53 653.33203125 48 651.782226562 40 c 2
 646.532226562 13 l 2
 644.782226562 4 640.001953125 0 631.001953125 0 c 2
 361.001953125 0 l 2
 353.001953125 0 348.782226562 4 350.532226562 13 c 2
 355.782226562 40 l 2
 357.33203125 48 359.301757812 53 371.301757812 53 c 0
 425.301757812 53 458.69140625 91 451.44140625 136 c 2
 439.291015625 211 l 1
 197.80078125 211 l 1
 156.440429688 136 l 2
 133.470703125 95 152.30078125 53 206.30078125 53 c 0
 218.30078125 53 218.331054688 48 216.78125 40 c 2
 211.53125 13 l 2
 209.78125 4 204.000976562 0 196.000976562 0 c 2
 -23.9990234375 0 l 2
 -31.9990234375 0 -36.21875 4 -34.46875 13 c 2
 -29.21875 40 l 2
 -27.6689453125 48 -25.69921875 53 -13.69921875 53 c 0
 22.30078125 53 43.6904296875 91 68.4404296875 136 c 2
 358.150390625 649 l 2
 361.510742188 656 367.291015625 660 375.291015625 660 c 2
 481.291015625 660 l 2
 488.291015625 660 492.510742188 656 494.150390625 649 c 2
 592.440429688 136 l 2
366.321289062 863.559570312 m 0
 385.340820312 859.869140625 399.400390625 849.728515625 414.720703125 827.018554688 c 0
 430.05078125 804.298828125 434.400390625 788.6484375 430.709960938 769.6484375 c 0
 427.009765625 750.62890625 415.689453125 736.7890625 394.389648438 722.428710938 c 0
 371.6796875 707.108398438 354.83984375 702.978515625 335.8203125 706.678710938 c 0
 317.990234375 710.138671875 305.120117188 720.048828125 288.610351562 742.989257812 c 0
 273.05078125 764.51953125 268.930664062 781.359375 272.62109375 800.359375 c 0
 276.321289062 819.37890625 286.221679688 832.258789062 308.94140625 847.579101562 c 0
 331.651367188 862.899414062 348.491210938 867.029296875 366.321289062 863.559570312 c 0
571.321289062 863.55859375 m 0
 590.341796875 859.868164062 604.400390625 849.7265625 619.720703125 827.016601562 c 0
 635.05078125 804.296875 639.400390625 788.646484375 635.709960938 769.646484375 c 0
 632.009765625 750.626953125 620.689453125 736.787109375 599.389648438 722.426757812 c 0
 576.6796875 707.106445312 559.83984375 702.9765625 540.8203125 706.676757812 c 0
 522.990234375 710.13671875 510.120117188 720.046875 493.610351562 742.987304688 c 0
 478.05078125 764.517578125 473.930664062 781.357421875 477.62109375 800.357421875 c 0
 481.321289062 819.377929688 491.221679688 832.2578125 513.94140625 847.578125 c 0
 536.651367188 862.8984375 553.491210938 867.028320312 571.321289062 863.55859375 c 0
239.610351562 287.997070312 m 1
 426.140625 287.99609375 l 1
 381.020507812 544.7265625 l 1
 239.610351562 287.997070312 l 1
EndSplineSet
Substitution2: "'c2sc' Capitals to Small Capitals in Latin lookup 11 subtable" Adieresis.sc
AlternateSubs2: "'aalt' Access All Alternates in Latin lookup 0 subtable" Adieresis.sc
Position2: "'cpsp' Capital Spacing in Latin lookup 0 subtable" dx=5 dy=0 dh=10 dv=0
EndChar

StartChar: uni1EA0
Encoding: 7840 7840 21
Width: 692
GlyphClass: 2
Flags: MW
HStem: -207 157 640 20G<375.291 481.291 481.291 484.791>
VStem: 175 158
AnchorPoint: "Anchor-6" 631 0 basechar 0
AnchorPoint: "Anchor-5" 427 660 basechar 0
AnchorPoint: "Anchor-4" 278 0 basechar 0
LayerCount: 2
Fore
SplineSet
592.440429688 136 m 2
 602.110351562 88 609.301757812 53 641.301757812 53 c 0
 653.301757812 53 653.33203125 48 651.782226562 40 c 2
 646.532226562 13 l 2
 644.782226562 4 640.001953125 0 631.001953125 0 c 2
 361.001953125 0 l 2
 353.001953125 0 348.782226562 4 350.532226562 13 c 2
 355.782226562 40 l 2
 357.33203125 48 359.301757812 53 371.301757812 53 c 0
 425.301757812 53 458.69140625 91 451.44140625 136 c 2
 439.291015625 211 l 1
 197.80078125 211 l 1
 156.440429688 136 l 2
 133.470703125 95 152.30078125 53 206.30078125 53 c 0
 218.30078125 53 218.331054688 48 216.78125 40 c 2
 211.53125 13 l 2
 209.78125 4 204.000976562 0 196.000976562 0 c 2
 -23.9990234375 0 l 2
 -31.9990234375 0 -36.21875 4 -34.46875 13 c 2
 -29.21875 40 l 2
 -27.6689453125 48 -25.69921875 53 -13.69921875 53 c 0
 22.30078125 53 43.6904296875 91 68.4404296875 136 c 2
 358.150390625 649 l 2
 361.510742188 656 367.291015625 660 375.291015625 660 c 2
 481.291015625 660 l 2
 488.291015625 660 492.510742188 656 494.150390625 649 c 2
 592.440429688 136 l 2
269.051757812 -50.5400390625 m 0
 288.071289062 -54.240234375 302.129882812 -64.3701171875 317.450195312 -87.08984375 c 0
 332.770507812 -109.799804688 337.130859375 -125.450195312 333.440429688 -144.469726562 c 0
 329.740234375 -163.489257812 318.419921875 -177.319335938 297.120117188 -191.6796875 c 0
 274.41015625 -207.009765625 257.5703125 -211.129882812 238.55078125 -207.439453125 c 0
 220.720703125 -203.969726562 207.840820312 -194.069335938 191.340820312 -171.119140625 c 0
 175.78125 -149.599609375 171.661132812 -132.759765625 175.3515625 -113.740234375 c 0
 179.051757812 -94.720703125 188.952148438 -81.8505859375 211.671875 -66.5205078125 c 0
 234.381835938 -51.2001953125 251.221679688 -47.080078125 269.051757812 -50.5400390625 c 0
239.610351562 288 m 1
 426.140625 288 l 1
 381.020507812 544.73046875 l 1
 239.610351562 288 l 1
EndSplineSet
Substitution2: "'c2sc' Capitals to Small Capitals in Latin lookup 11 subtable" uni1EA0.sc
AlternateSubs2: "'aalt' Access All Alternates in Latin lookup 0 subtable" uni1EA0.sc
Position2: "'cpsp' Capital Spacing in Latin lookup 0 subtable" dx=5 dy=0 dh=10 dv=0
EndChar

StartChar: Agrave
Encoding: 192 192 22
Width: 692
GlyphClass: 2
Flags: MW
HStem: 640 20G<375.291 481.291 481.291 484.791> 710 189
VStem: 307 213
AnchorPoint: "Anchor-6" 631 0 basechar 0
AnchorPoint: "Anchor-5" 449 899 basechar 0
AnchorPoint: "Anchor-4" 278 0 basechar 0
LayerCount: 2
Fore
SplineSet
592.440429688 136 m 2
 602.110351562 88 609.301757812 53 641.301757812 53 c 0
 653.301757812 53 653.33203125 48 651.782226562 40 c 2
 646.532226562 13 l 2
 644.782226562 4 640.001953125 0 631.001953125 0 c 2
 361.001953125 0 l 2
 353.001953125 0 348.782226562 4 350.532226562 13 c 2
 355.782226562 40 l 2
 357.33203125 48 359.301757812 53 371.301757812 53 c 0
 425.301757812 53 458.69140625 91 451.44140625 136 c 2
 439.291015625 211 l 1
 197.80078125 211 l 1
 156.440429688 136 l 2
 133.470703125 95 152.30078125 53 206.30078125 53 c 0
 218.30078125 53 218.331054688 48 216.78125 40 c 2
 211.53125 13 l 2
 209.78125 4 204.000976562 0 196.000976562 0 c 2
 -23.9990234375 0 l 2
 -31.9990234375 0 -36.21875 4 -34.46875 13 c 2
 -29.21875 40 l 2
 -27.6689453125 48 -25.69921875 53 -13.69921875 53 c 0
 22.30078125 53 43.6904296875 91 68.4404296875 136 c 2
 358.150390625 649 l 2
 361.510742188 656 367.291015625 660 375.291015625 660 c 2
 481.291015625 660 l 2
 488.291015625 660 492.510742188 656 494.150390625 649 c 2
 592.440429688 136 l 2
490.141601562 713 m 2
 487.201171875 711.4296875 484.650390625 710.379882812 481.5703125 710.379882812 c 0
 476.650390625 710.379882812 471.140625 713 465.750976562 715 c 0
 406.081054688 739 320.561523438 788 307.731445312 854 c 0
 301.701171875 885 326.981445312 899 359.981445312 899 c 0
 371.981445312 899 388.181640625 898 395.321289062 887 c 0
 429.401367188 830 450.231445312 800 520.03125 729 c 1
 490.141601562 713 l 2
239.610351562 288 m 1
 426.140625 288 l 1
 381.020507812 544.73046875 l 1
 239.610351562 288 l 1
EndSplineSet
Substitution2: "'c2sc' Capitals to Small Capitals in Latin lookup 11 subtable" Agrave.sc
AlternateSubs2: "'aalt' Access All Alternates in Latin lookup 0 subtable" Agrave.sc
Position2: "'cpsp' Capital Spacing in Latin lookup 0 subtable" dx=5 dy=0 dh=10 dv=0
EndChar

StartChar: uni1EA2
Encoding: 7842 7842 23
Width: 692
GlyphClass: 2
Flags: MW
HStem: 640 20G<375.291 481.291 481.291 484.791> 709 207 836 80
VStem: 377 162
AnchorPoint: "Anchor-6" 631 0 basechar 0
AnchorPoint: "Anchor-5" 483 946 basechar 0
AnchorPoint: "Anchor-4" 278 0 basechar 0
LayerCount: 2
Fore
SplineSet
592.440429688 136 m 2xd0
 602.110351562 88 609.301757812 53 641.301757812 53 c 0
 653.301757812 53 653.33203125 48 651.782226562 40 c 2
 646.532226562 13 l 2
 644.782226562 4 640.001953125 0 631.001953125 0 c 2
 361.001953125 0 l 2
 353.001953125 0 348.782226562 4 350.532226562 13 c 2
 355.782226562 40 l 2
 357.33203125 48 359.301757812 53 371.301757812 53 c 0
 425.301757812 53 458.69140625 91 451.44140625 136 c 2
 439.291015625 211 l 1
 197.80078125 211 l 1
 156.440429688 136 l 2
 133.470703125 95 152.30078125 53 206.30078125 53 c 0
 218.30078125 53 218.331054688 48 216.78125 40 c 2
 211.53125 13 l 2
 209.78125 4 204.000976562 0 196.000976562 0 c 2
 -23.9990234375 0 l 2
 -31.9990234375 0 -36.21875 4 -34.46875 13 c 2
 -29.21875 40 l 2
 -27.6689453125 48 -25.69921875 53 -13.69921875 53 c 0
 22.30078125 53 43.6904296875 91 68.4404296875 136 c 2
 358.150390625 649 l 2
 361.510742188 656 367.291015625 660 375.291015625 660 c 2
 481.291015625 660 l 2
 488.291015625 660 492.510742188 656 494.150390625 649 c 2
 592.440429688 136 l 2xd0
476.791015625 714 m 0
 460.481445312 697 412.139648438 724.319335938 427.25 740.319335938 c 0
 443.549804688 757.319335938 454.870117188 771.009765625 459.580078125 795.280273438 c 0
 466.490234375 830.799804688 450.41015625 836.059570312 437.25 836.059570312 c 0xb0
 413.5703125 836.059570312 390.540039062 809.509765625 384.700195312 822.91015625 c 0
 377.23046875 840.009765625 374.80078125 853.76953125 377.491210938 872.76953125 c 0
 379.62109375 887.76953125 435.05078125 916 471.05078125 916 c 0
 534.05078125 916 545.331054688 866 536.78125 822 c 0
 529.590820312 785 508.010742188 746 476.791015625 714 c 0
239.609375 288.009765625 m 1
 426.139648438 288.009765625 l 1
 381.01953125 544.740234375 l 1
 239.609375 288.009765625 l 1
EndSplineSet
Substitution2: "'c2sc' Capitals to Small Capitals in Latin lookup 11 subtable" uni1EA2.sc
AlternateSubs2: "'aalt' Access All Alternates in Latin lookup 0 subtable" uni1EA2.sc
Position2: "'cpsp' Capital Spacing in Latin lookup 0 subtable" dx=5 dy=0 dh=10 dv=0
EndChar

StartChar: uni0202
Encoding: 514 514 24
Width: 692
GlyphClass: 2
Flags: MW
HStem: 640 20G<375.291 481.291 481.291 484.791> 801 72<437.701 476.201>
VStem: 301 293
AnchorPoint: "Anchor-6" 631 0 basechar 0
AnchorPoint: "Anchor-5" 474 899 basechar 0
AnchorPoint: "Anchor-4" 278 0 basechar 0
LayerCount: 2
Fore
SplineSet
592.440429688 136 m 2
 602.110351562 88 609.301757812 53 641.301757812 53 c 0
 653.301757812 53 653.33203125 48 651.782226562 40 c 2
 646.532226562 13 l 2
 644.782226562 4 640.001953125 0 631.001953125 0 c 2
 361.001953125 0 l 2
 353.001953125 0 348.782226562 4 350.532226562 13 c 2
 355.782226562 40 l 2
 357.33203125 48 359.301757812 53 371.301757812 53 c 0
 425.301757812 53 458.69140625 91 451.44140625 136 c 2
 439.291015625 211 l 1
 197.80078125 211 l 1
 156.440429688 136 l 2
 133.470703125 95 152.30078125 53 206.30078125 53 c 0
 218.30078125 53 218.331054688 48 216.78125 40 c 2
 211.53125 13 l 2
 209.78125 4 204.000976562 0 196.000976562 0 c 2
 -23.9990234375 0 l 2
 -31.9990234375 0 -36.21875 4 -34.46875 13 c 2
 -29.21875 40 l 2
 -27.6689453125 48 -25.69921875 53 -13.69921875 53 c 0
 22.30078125 53 43.6904296875 91 68.4404296875 136 c 2
 358.150390625 649 l 2
 361.510742188 656 367.291015625 660 375.291015625 660 c 2
 481.291015625 660 l 2
 488.291015625 660 492.510742188 656 494.150390625 649 c 2
 592.440429688 136 l 2
470.69140625 873 m 0
 561.69140625 873 601.921875 797 593.171875 752 c 0
 591.231445312 742 583.451171875 738 575.260742188 737 c 0
 557.87109375 735 529.090820312 731 520.090820312 731 c 0
 512.090820312 731 507.87109375 735 508.62109375 744 c 0
 507.811523438 781 495.701171875 801 456.701171875 801 c 0
 418.701171875 801 398.811523438 781 383.62109375 744 c 0
 379.87109375 735 375.090820312 731 367.090820312 731 c 0
 357.090820312 731 330.87109375 735 313.260742188 737 c 0
 305.451171875 738 299.231445312 742 301.171875 752 c 0
 309.921875 797 380.69140625 873 470.69140625 873 c 0
239.611328125 288 m 1
 426.141601562 288 l 1
 381.021484375 544.73046875 l 1
 239.611328125 288 l 1
EndSplineSet
Substitution2: "'c2sc' Capitals to Small Capitals in Latin lookup 11 subtable" uni0202.sc
AlternateSubs2: "'aalt' Access All Alternates in Latin lookup 0 subtable" uni0202.sc
Position2: "'cpsp' Capital Spacing in Latin lookup 0 subtable" dx=5 dy=0 dh=10 dv=0
EndChar

StartChar: Amacron
Encoding: 256 256 25
Width: 692
GlyphClass: 2
Flags: MW
HStem: 640 20G<375.291 481.291 481.291 484.791> 721 79<316.652 572.512 336.512 557.152>
VStem: 311 273
AnchorPoint: "Anchor-6" 631 0 basechar 0
AnchorPoint: "Anchor-5" 453 792 basechar 0
AnchorPoint: "Anchor-4" 278 0 basechar 0
LayerCount: 2
Fore
SplineSet
592.440429688 136 m 2
 602.110351562 88 609.301757812 53 641.301757812 53 c 0
 653.301757812 53 653.33203125 48 651.782226562 40 c 2
 646.532226562 13 l 2
 644.782226562 4 640.001953125 0 631.001953125 0 c 2
 361.001953125 0 l 2
 353.001953125 0 348.782226562 4 350.532226562 13 c 2
 355.782226562 40 l 2
 357.33203125 48 359.301757812 53 371.301757812 53 c 0
 425.301757812 53 458.69140625 91 451.44140625 136 c 2
 439.291015625 211 l 1
 197.80078125 211 l 1
 156.440429688 136 l 2
 133.470703125 95 152.30078125 53 206.30078125 53 c 0
 218.30078125 53 218.331054688 48 216.78125 40 c 2
 211.53125 13 l 2
 209.78125 4 204.000976562 0 196.000976562 0 c 2
 -23.9990234375 0 l 2
 -31.9990234375 0 -36.21875 4 -34.46875 13 c 2
 -29.21875 40 l 2
 -27.6689453125 48 -25.69921875 53 -13.69921875 53 c 0
 22.30078125 53 43.6904296875 91 68.4404296875 136 c 2
 358.150390625 649 l 2
 361.510742188 656 367.291015625 660 375.291015625 660 c 2
 481.291015625 660 l 2
 488.291015625 660 492.510742188 656 494.150390625 649 c 2
 592.440429688 136 l 2
572.681640625 734 m 2
 571.122070312 726 566.15234375 721 557.15234375 721 c 2
 321.15234375 721 l 2
 312.15234375 721 309.122070312 726 310.681640625 734 c 2
 320.981445312 787 l 2
 322.731445312 796 327.51171875 800 336.51171875 800 c 2
 572.51171875 800 l 2
 581.51171875 800 584.731445312 796 582.981445312 787 c 2
 572.681640625 734 l 2
239.611328125 288 m 1
 426.141601562 288 l 1
 381.021484375 544.73046875 l 1
 239.611328125 288 l 1
EndSplineSet
Substitution2: "'c2sc' Capitals to Small Capitals in Latin lookup 11 subtable" Amacron.sc
AlternateSubs2: "'aalt' Access All Alternates in Latin lookup 0 subtable" Amacron.sc
Position2: "'cpsp' Capital Spacing in Latin lookup 0 subtable" dx=5 dy=0 dh=10 dv=0
EndChar

StartChar: Aogonek
Encoding: 260 260 26
Width: 692
GlyphClass: 2
Flags: MW
HStem: -223 68<563.372 569.652> 0 44 640 20G<375.291 481.291 481.291 484.791>
VStem: 439 234
AnchorPoint: "Anchor-6" 631 0 basechar 0
AnchorPoint: "Anchor-5" 427 660 basechar 0
AnchorPoint: "Anchor-4" 278 0 basechar 0
LayerCount: 2
Fore
SplineSet
592.440429688 136 m 2
 602.110351562 88 609.291015625 53 641.291015625 53 c 0
 653.291015625 53 653.321289062 48 651.771484375 40 c 2
 646.521484375 13 l 2
 645.681640625 8.7099609375 644.161132812 5.5595703125 641.821289062 3.4296875 c 0
 640.561523438 2.0595703125 638.561523438 1.099609375 636.171875 0.5498046875 c 0
 634.631835938 0.1796875 632.912109375 0 631.001953125 0 c 0
 620.001953125 0 542.501953125 -18 529.872070312 -83 c 0
 521.90234375 -124 540.872070312 -155 585.872070312 -155 c 0
 617.872070312 -155 658.341796875 -132 667.341796875 -132 c 0
 671.341796875 -132 674.561523438 -136 673.201171875 -143 c 2
 666.401367188 -178 l 2
 665.231445312 -184 662.26171875 -189 656.681640625 -192 c 0
 619.791992188 -212 584.65234375 -223 554.65234375 -223 c 0
 458.65234375 -223 430.622070312 -146 441.122070312 -92 c 0
 449.162109375 -50.599609375 473.352539062 -20.8798828125 501.4921875 0 c 1
 361.001953125 0 l 2
 353.001953125 0 348.782226562 4 350.532226562 13 c 2
 355.782226562 40 l 2
 357.33203125 48 359.301757812 53 371.301757812 53 c 0
 425.301757812 53 458.69140625 91 451.44140625 136 c 2
 439.291015625 211 l 1
 197.80078125 211 l 1
 156.440429688 136 l 2
 133.470703125 95 152.30078125 53 206.30078125 53 c 0
 218.30078125 53 218.331054688 48 216.78125 40 c 2
 211.53125 13 l 2
 209.78125 4 204.000976562 0 196.000976562 0 c 2
 -23.9990234375 0 l 2
 -31.9990234375 0 -36.21875 4 -34.46875 13 c 2
 -29.21875 40 l 2
 -27.6689453125 48 -25.69921875 53 -13.69921875 53 c 0
 22.30078125 53 43.6904296875 91 68.4404296875 136 c 2
 358.150390625 649 l 2
 361.510742188 656 367.291015625 660 375.291015625 660 c 2
 481.291015625 660 l 2
 488.291015625 660 492.510742188 656 494.150390625 649 c 2
 592.440429688 136 l 2
239.600585938 288 m 1
 426.130859375 288 l 1
 381.010742188 544.73046875 l 1
 239.600585938 288 l 1
EndSplineSet
Substitution2: "'c2sc' Capitals to Small Capitals in Latin lookup 11 subtable" Aogonek.sc
AlternateSubs2: "'aalt' Access All Alternates in Latin lookup 0 subtable" Aogonek.sc
Position2: "'cpsp' Capital Spacing in Latin lookup 0 subtable" dx=5 dy=0 dh=10 dv=0
EndChar

StartChar: Aring
Encoding: 197 197 27
Width: 692
GlyphClass: 2
Flags: MW
HStem: 630 62 639 20G 687 20G 797 62
AnchorPoint: "Anchor-6" 631 0 basechar 0
AnchorPoint: "Anchor-5" 464 832 basechar 0
AnchorPoint: "Anchor-4" 278 0 basechar 0
LayerCount: 2
Fore
SplineSet
592.440429688 136 m 2x70
 602.110351562 88 609.302734375 52.9990234375 641.302734375 52.9990234375 c 0
 653.302734375 52.9990234375 653.333007812 47.9990234375 651.783203125 39.9990234375 c 2
 646.533203125 12.9990234375 l 2
 644.783203125 3.9990234375 640.002929688 -0.0009765625 631.002929688 -0.0009765625 c 2
 361.002929688 -0.0009765625 l 2
 353.002929688 -0.0009765625 348.783203125 3.9990234375 350.533203125 12.9990234375 c 2
 355.783203125 39.9990234375 l 2
 357.333007812 47.9990234375 359.302734375 52.9990234375 371.302734375 52.9990234375 c 0
 425.302734375 52.9990234375 458.692382812 90.9990234375 451.442382812 135.999023438 c 2
 439.291992188 210.999023438 l 1
 197.801757812 210.999023438 l 1
 156.44140625 135.999023438 l 2
 133.471679688 94.9990234375 152.301757812 52.9990234375 206.301757812 52.9990234375 c 0
 218.301757812 52.9990234375 218.33203125 47.9990234375 216.782226562 39.9990234375 c 2
 211.532226562 12.9990234375 l 2
 209.782226562 3.9990234375 204.001953125 -0.0009765625 196.001953125 -0.0009765625 c 2
 -23.998046875 -0.0009765625 l 2
 -31.998046875 -0.0009765625 -36.2177734375 3.9990234375 -34.4677734375 12.9990234375 c 2
 -29.2177734375 39.9990234375 l 2
 -27.66796875 47.9990234375 -25.6982421875 52.9990234375 -13.6982421875 52.9990234375 c 0
 22.3017578125 52.9990234375 43.69140625 90.9990234375 68.44140625 135.999023438 c 2
 358.151367188 648.999023438 l 2
 358.581054688 649.87890625 359.041015625 650.71875 359.541015625 651.499023438 c 0
 332.911132812 672.19921875 319.720703125 705.899414062 327.130859375 743.999023438 c 0
 339.571289062 807.999023438 403.481445312 858.999023438 471.481445312 858.999023438 c 0
 538.481445312 858.999023438 582.571289062 807.999023438 570.130859375 743.999023438 c 0
 562.190429688 703.189453125 532.580078125 667.409179688 494.48046875 647.26953125 c 1
 592.440429688 136 l 2x70
395.1328125 743.999023438 m 0
 389.102539062 712.999023438 406.022460938 691.999023438 439.022460938 691.999023438 c 0x90
 471.022460938 691.999023438 496.102539062 712.999023438 502.1328125 743.999023438 c 0
 508.352539062 775.999023438 491.432617188 796.999023438 459.432617188 796.999023438 c 0
 426.432617188 796.999023438 401.352539062 775.999023438 395.1328125 743.999023438 c 0
239.61328125 287.999023438 m 1
 426.143554688 287.998046875 l 1
 381.0234375 544.728515625 l 1
 239.61328125 287.999023438 l 1
EndSplineSet
Substitution2: "'c2sc' Capitals to Small Capitals in Latin lookup 11 subtable" Aring.sc
AlternateSubs2: "'aalt' Access All Alternates in Latin lookup 0 subtable" Aring.sc
Position2: "'cpsp' Capital Spacing in Latin lookup 0 subtable" dx=5 dy=0 dh=10 dv=0
EndChar

StartChar: Aringacute
Encoding: 506 506 28
Width: 692
GlyphClass: 2
Flags: MW
HStem: 630 62 797 62 882 189
VStem: 416 213
AnchorPoint: "Anchor-6" 631 0 basechar 0
AnchorPoint: "Anchor-5" 543 1071 basechar 0
AnchorPoint: "Anchor-4" 278 0 basechar 0
LayerCount: 2
Fore
SplineSet
592.440429688 136 m 2
 602.110351562 88 609.302734375 52.9990234375 641.302734375 52.9990234375 c 0
 653.302734375 52.9990234375 653.333007812 47.9990234375 651.783203125 39.9990234375 c 2
 646.533203125 12.9990234375 l 2
 644.783203125 3.9990234375 640.002929688 -0.0009765625 631.002929688 -0.0009765625 c 2
 361.002929688 -0.0009765625 l 2
 353.002929688 -0.0009765625 348.783203125 3.9990234375 350.533203125 12.9990234375 c 2
 355.783203125 39.9990234375 l 2
 357.333007812 47.9990234375 359.302734375 52.9990234375 371.302734375 52.9990234375 c 0
 425.302734375 52.9990234375 458.692382812 90.9990234375 451.442382812 135.999023438 c 2
 439.291992188 210.999023438 l 1
 197.801757812 210.999023438 l 1
 156.44140625 135.999023438 l 2
 133.471679688 94.9990234375 152.301757812 52.9990234375 206.301757812 52.9990234375 c 0
 218.301757812 52.9990234375 218.33203125 47.9990234375 216.782226562 39.9990234375 c 2
 211.532226562 12.9990234375 l 2
 209.782226562 3.9990234375 204.001953125 -0.0009765625 196.001953125 -0.0009765625 c 2
 -23.998046875 -0.0009765625 l 2
 -31.998046875 -0.0009765625 -36.2177734375 3.9990234375 -34.4677734375 12.9990234375 c 2
 -29.2177734375 39.9990234375 l 2
 -27.66796875 47.9990234375 -25.6982421875 52.9990234375 -13.6982421875 52.9990234375 c 0
 22.3017578125 52.9990234375 43.69140625 90.9990234375 68.44140625 135.999023438 c 2
 358.151367188 648.999023438 l 2
 358.581054688 649.87890625 359.041015625 650.71875 359.541015625 651.499023438 c 0
 332.911132812 672.19921875 319.720703125 705.899414062 327.130859375 743.999023438 c 0
 339.571289062 807.999023438 403.481445312 858.999023438 471.481445312 858.999023438 c 0
 538.481445312 858.999023438 582.571289062 807.999023438 570.130859375 743.999023438 c 0
 562.190429688 703.189453125 532.580078125 667.409179688 494.48046875 647.26953125 c 1
 592.440429688 136 l 2
395.1328125 743.999023438 m 0
 389.102539062 712.999023438 406.022460938 691.999023438 439.022460938 691.999023438 c 0
 471.022460938 691.999023438 496.102539062 712.999023438 502.1328125 743.999023438 c 0
 508.352539062 775.999023438 491.432617188 796.999023438 459.432617188 796.999023438 c 0
 426.432617188 796.999023438 401.352539062 775.999023438 395.1328125 743.999023438 c 0
415.642578125 900.999023438 m 1
 485.452148438 971.999023438 506.28125 1001.99902344 540.361328125 1058.99902344 c 0
 547.491210938 1069.99902344 563.69140625 1070.99902344 575.69140625 1070.99902344 c 0
 608.69140625 1070.99902344 633.971679688 1056.99902344 627.94140625 1025.99902344 c 0
 615.111328125 959.999023438 529.591796875 910.999023438 469.921875 886.999023438 c 0
 464.532226562 884.999023438 459.032226562 882.37890625 454.112304688 882.37890625 c 0
 451.032226562 882.37890625 448.47265625 883.428710938 445.532226562 884.999023438 c 2
 415.642578125 900.999023438 l 1
239.611328125 287.999023438 m 1
 426.141601562 287.998046875 l 1
 381.021484375 544.728515625 l 1
 239.611328125 287.999023438 l 1
EndSplineSet
Substitution2: "'c2sc' Capitals to Small Capitals in Latin lookup 11 subtable" Aringacute.sc
AlternateSubs2: "'aalt' Access All Alternates in Latin lookup 0 subtable" Aringacute.sc
Position2: "'cpsp' Capital Spacing in Latin lookup 0 subtable" dx=5 dy=0 dh=10 dv=0
EndChar

StartChar: Atilde
Encoding: 195 195 29
Width: 692
GlyphClass: 2
Flags: MW
HStem: 640 20G<375.291 481.291 481.291 484.791> 712 76<505.172 516.172 505.172 527.402> 796 75<390.732 401.732>
VStem: 295 316 530 79
AnchorPoint: "Anchor-6" 631 0 basechar 0
AnchorPoint: "Anchor-5" 463 845 basechar 0
AnchorPoint: "Anchor-4" 278 0 basechar 0
LayerCount: 2
Fore
SplineSet
592.440429688 136 m 2xf0
 602.110351562 88 609.301757812 53 641.301757812 53 c 0
 653.301757812 53 653.33203125 48 651.782226562 40 c 2
 646.532226562 13 l 2
 644.782226562 4 640.001953125 0 631.001953125 0 c 2
 361.001953125 0 l 2
 353.001953125 0 348.782226562 4 350.532226562 13 c 2
 355.782226562 40 l 2
 357.33203125 48 359.301757812 53 371.301757812 53 c 0
 425.301757812 53 458.69140625 91 451.44140625 136 c 2
 439.291015625 211 l 1
 197.80078125 211 l 1
 156.440429688 136 l 2
 133.470703125 95 152.30078125 53 206.30078125 53 c 0
 218.30078125 53 218.331054688 48 216.78125 40 c 2
 211.53125 13 l 2
 209.78125 4 204.000976562 0 196.000976562 0 c 2
 -23.9990234375 0 l 2
 -31.9990234375 0 -36.21875 4 -34.46875 13 c 2
 -29.21875 40 l 2
 -27.6689453125 48 -25.69921875 53 -13.69921875 53 c 0
 22.30078125 53 43.6904296875 91 68.4404296875 136 c 2
 358.150390625 649 l 2
 361.510742188 656 367.291015625 660 375.291015625 660 c 2
 481.291015625 660 l 2
 488.291015625 660 492.510742188 656 494.150390625 649 c 2
 592.440429688 136 l 2xf0
485.841796875 812 m 0
 493.532226562 795 500.171875 788 510.171875 788 c 0
 522.171875 788 528.122070312 798 530.0625 808 c 0
 532.392578125 820 531.732421875 832 524.251953125 845 c 1
 536.391601562 856 559.501953125 872 578.501953125 872 c 0
 593.501953125 872 616.282226562 840 609.282226562 804 c 0xe8
 598.202148438 747 549.40234375 712 505.40234375 712 c 0
 444.40234375 712 429.202148438 747 419.872070312 771 c 0
 413.372070312 789 406.732421875 796 396.732421875 796 c 0
 384.732421875 796 377.392578125 784 375.65234375 775 c 0
 373.3125 763 374.982421875 751 382.452148438 738 c 1
 370.322265625 727 347.211914062 711 327.211914062 711 c 0
 312.211914062 711 289.622070312 744 296.232421875 778 c 0
 307.501953125 836 357.311523438 871 401.311523438 871 c 0
 461.311523438 871 477.111328125 834 485.841796875 812 c 0
239.611328125 288 m 1
 426.141601562 288 l 1
 381.021484375 544.73046875 l 1
 239.611328125 288 l 1
EndSplineSet
Substitution2: "'c2sc' Capitals to Small Capitals in Latin lookup 11 subtable" Atilde.sc
AlternateSubs2: "'aalt' Access All Alternates in Latin lookup 0 subtable" Atilde.sc
Position2: "'cpsp' Capital Spacing in Latin lookup 0 subtable" dx=5 dy=0 dh=10 dv=0
EndChar

StartChar: AE
Encoding: 198 198 30
Width: 1026
GlyphClass: 2
Flags: MW
HStem: -12 21G<867.14 870.64> 0 57 0 60 0 62 210 77 320 71 598 62 606 54 651 20G
VStem: -35 1052 813.45 53.17
AnchorPoint: "Anchor-6" 841 0 basechar 0
AnchorPoint: "Anchor-5" 732 660 basechar 0
AnchorPoint: "Anchor-4" 649 0 basechar 0
LayerCount: 2
Fore
SplineSet
868.639648438 -12 m 0x8e40
 865.639648438 -12 862.899414062 -11.8486328125 861.19921875 -9.0390625 c 2
 858.1796875 -4.0390625 l 2
 855.830078125 -0.138671875 851.969726562 -0.048828125 840.969726562 -0.048828125 c 2
 361 -0.048828125 l 2
 353 -0.048828125 348.780273438 3.951171875 350.530273438 12.951171875 c 2x1e40
 357.129882812 46.951171875 l 2
 358.6796875 54.951171875 362.639648438 59.951171875 372.639648438 59.951171875 c 0
 407.639648438 59.951171875 441.69921875 85.951171875 451.409179688 135.951171875 c 2x2e40
 465.779296875 209.951171875 l 1
 256.779296875 209.951171875 l 1
 201.409179688 135.951171875 l 2
 170.76953125 96.791015625 162.439453125 56.9609375 207.059570312 56.9609375 c 0
 220.059570312 56.9609375 219.099609375 51.9609375 217.540039062 43.9609375 c 2x4e40
 211.530273438 12.9609375 l 2
 209.780273438 3.9609375 204.010742188 -0.0390625 196.010742188 -0.0390625 c 2
 -22.9892578125 -0.0390625 l 2
 -31.9892578125 -0.0390625 -36.19921875 3.9609375 -34.44921875 12.9609375 c 2x1e40
 -28.439453125 43.9609375 l 2
 -26.8798828125 51.9609375 -22.919921875 56.9609375 -11.919921875 56.9609375 c 0
 38.0703125 56.9609375 80.2607421875 93.9609375 113.420898438 135.9609375 c 2
 434.470703125 552.9609375 l 2
 464.430664062 592.090820312 462.850585938 605.951171875 417.780273438 605.951171875 c 0
 408.780273438 605.951171875 404.950195312 611.951171875 406.509765625 619.951171875 c 2x4d40
 411.549804688 645.951171875 l 2
 413.299804688 654.951171875 419.26953125 659.951171875 428.26953125 659.951171875 c 2
 928.25 659.951171875 l 2x1e40
 937.25 659.951171875 941.790039062 660.401367188 946.020507812 663.94140625 c 2
 951.990234375 668.94140625 l 2
 954.370117188 670.94140625 957.370117188 670.94140625 960.370117188 670.94140625 c 0
 964.370117188 670.94140625 968.060546875 668.981445312 970.000976562 663.951171875 c 2x1cc0
 1015.87109375 544.951171875 l 2
 1017.06152344 541.831054688 1017.69140625 538.9609375 1017.30175781 536.9609375 c 0
 1016.33203125 531.9609375 1013.03222656 528.350585938 1008.18261719 525.970703125 c 2
 969.4921875 506.970703125 l 2
 963.83203125 504.190429688 961.732421875 502.98046875 958.732421875 502.98046875 c 0
 954.732421875 502.98046875 952.162109375 506.350585938 950.291992188 510.970703125 c 2
 948.26171875 515.970703125 l 2
 923.931640625 575.970703125 891.221679688 597.970703125 823.221679688 597.970703125 c 2
 681.221679688 597.970703125 l 1
 640.981445312 390.970703125 l 1
 717.981445312 390.970703125 l 2
 770.981445312 390.970703125 805.87109375 410.970703125 813.451171875 449.970703125 c 2
 814.611328125 455.970703125 l 2
 816.361328125 464.970703125 821.12109375 468.970703125 830.12109375 468.970703125 c 2
 856.12109375 468.970703125 l 2
 865.12109375 468.970703125 868.350585938 464.970703125 866.600585938 455.970703125 c 2
 827.73046875 255.970703125 l 2
 825.98046875 246.970703125 821.200195312 242.970703125 812.200195312 242.970703125 c 2
 786.200195312 242.970703125 l 2
 777.200195312 242.970703125 773.990234375 246.970703125 775.740234375 255.970703125 c 2
 776.700195312 260.970703125 l 2
 784.48046875 300.970703125 758.180664062 319.970703125 704.180664062 319.970703125 c 2
 627.180664062 319.970703125 l 1
 593.360351562 145.970703125 l 2
 582.860351562 91.970703125 598.020507812 61.970703125 637.020507812 61.970703125 c 2
 695.020507812 61.970703125 l 2x1e20
 824.020507812 61.970703125 879.620117188 95.970703125 947.669921875 193.970703125 c 2
 951.830078125 199.970703125 l 2
 956 205.970703125 964.5703125 208.970703125 970.80078125 204.970703125 c 2
 995.690429688 188.970703125 l 2
 1003.62011719 183.860351562 1002.70996094 178.5 997 169.990234375 c 2
 880.1796875 -4.009765625 l 2
 876.349609375 -9.7099609375 872.639648438 -12 868.639648438 -12 c 0x8e40
314.759765625 286.971679688 m 1x1e40
 480.759765625 286.971679688 l 1
 538.08984375 581.971679688 l 1
 314.759765625 286.971679688 l 1x1e40
EndSplineSet
Substitution2: "'c2sc' Capitals to Small Capitals in Latin lookup 11 subtable" AE.sc
AlternateSubs2: "'aalt' Access All Alternates in Latin lookup 0 subtable" AE.sc
Position2: "'cpsp' Capital Spacing in Latin lookup 0 subtable" dx=5 dy=0 dh=10 dv=0
EndChar

StartChar: AEacute
Encoding: 508 508 31
Width: 1026
GlyphClass: 2
Flags: MW
HStem: -12 21G<867.14 870.64> 0 57 0 60 0 62 210 77 320 71 598 62 606 54 651 20G
VStem: -35 1052 813.45 53.17
AnchorPoint: "Anchor-6" 841 0 basechar 0
AnchorPoint: "Anchor-5" 811 899 basechar 0
AnchorPoint: "Anchor-4" 649 0 basechar 0
LayerCount: 2
Fore
SplineSet
868.639648438 -12 m 0x8e40
 865.639648438 -12 862.899414062 -11.8486328125 861.19921875 -9.0390625 c 2
 858.1796875 -4.0390625 l 2
 855.830078125 -0.138671875 851.969726562 -0.048828125 840.969726562 -0.048828125 c 2
 361 -0.048828125 l 2
 353 -0.048828125 348.780273438 3.951171875 350.530273438 12.951171875 c 2x1e40
 357.129882812 46.951171875 l 2
 358.6796875 54.951171875 362.639648438 59.951171875 372.639648438 59.951171875 c 0
 407.639648438 59.951171875 441.69921875 85.951171875 451.409179688 135.951171875 c 2x2e40
 465.779296875 209.951171875 l 1
 256.779296875 209.951171875 l 1
 201.409179688 135.951171875 l 2
 170.76953125 96.791015625 162.439453125 56.9609375 207.059570312 56.9609375 c 0
 220.059570312 56.9609375 219.099609375 51.9609375 217.540039062 43.9609375 c 2x4e40
 211.530273438 12.9609375 l 2
 209.780273438 3.9609375 204.010742188 -0.0390625 196.010742188 -0.0390625 c 2
 -22.9892578125 -0.0390625 l 2
 -31.9892578125 -0.0390625 -36.19921875 3.9609375 -34.44921875 12.9609375 c 2x1e40
 -28.439453125 43.9609375 l 2
 -26.8798828125 51.9609375 -22.919921875 56.9609375 -11.919921875 56.9609375 c 0
 38.0703125 56.9609375 80.2607421875 93.9609375 113.420898438 135.9609375 c 2
 434.470703125 552.9609375 l 2
 464.430664062 592.090820312 462.850585938 605.951171875 417.780273438 605.951171875 c 0
 408.780273438 605.951171875 404.950195312 611.951171875 406.509765625 619.951171875 c 2x4d40
 411.549804688 645.951171875 l 2
 413.299804688 654.951171875 419.26953125 659.951171875 428.26953125 659.951171875 c 2
 928.25 659.951171875 l 2x1e40
 937.25 659.951171875 941.790039062 660.401367188 946.020507812 663.94140625 c 2
 951.990234375 668.94140625 l 2
 954.370117188 670.94140625 957.370117188 670.94140625 960.370117188 670.94140625 c 0
 964.370117188 670.94140625 968.060546875 668.981445312 970.000976562 663.951171875 c 2x1cc0
 1015.87109375 544.951171875 l 2
 1017.06152344 541.831054688 1017.69140625 538.9609375 1017.30175781 536.9609375 c 0
 1016.33203125 531.9609375 1013.03222656 528.350585938 1008.18261719 525.970703125 c 2
 969.4921875 506.970703125 l 2
 963.83203125 504.190429688 961.732421875 502.98046875 958.732421875 502.98046875 c 0
 954.732421875 502.98046875 952.162109375 506.350585938 950.291992188 510.970703125 c 2
 948.26171875 515.970703125 l 2
 923.931640625 575.970703125 891.221679688 597.970703125 823.221679688 597.970703125 c 2
 681.221679688 597.970703125 l 1
 640.981445312 390.970703125 l 1
 717.981445312 390.970703125 l 2
 770.981445312 390.970703125 805.87109375 410.970703125 813.451171875 449.970703125 c 2
 814.611328125 455.970703125 l 2
 816.361328125 464.970703125 821.12109375 468.970703125 830.12109375 468.970703125 c 2
 856.12109375 468.970703125 l 2
 865.12109375 468.970703125 868.350585938 464.970703125 866.600585938 455.970703125 c 2
 827.73046875 255.970703125 l 2
 825.98046875 246.970703125 821.200195312 242.970703125 812.200195312 242.970703125 c 2
 786.200195312 242.970703125 l 2
 777.200195312 242.970703125 773.990234375 246.970703125 775.740234375 255.970703125 c 2
 776.700195312 260.970703125 l 2
 784.48046875 300.970703125 758.180664062 319.970703125 704.180664062 319.970703125 c 2
 627.180664062 319.970703125 l 1
 593.360351562 145.970703125 l 2
 582.860351562 91.970703125 598.020507812 61.970703125 637.020507812 61.970703125 c 2
 695.020507812 61.970703125 l 2x1e20
 824.020507812 61.970703125 879.620117188 95.970703125 947.669921875 193.970703125 c 2
 951.830078125 199.970703125 l 2
 956 205.970703125 964.5703125 208.970703125 970.80078125 204.970703125 c 2
 995.690429688 188.970703125 l 2
 1003.62011719 183.860351562 1002.70996094 178.5 997 169.990234375 c 2
 880.1796875 -4.009765625 l 2
 876.349609375 -9.7099609375 872.639648438 -12 868.639648438 -12 c 0x8e40
314.759765625 286.971679688 m 1x1e40
 480.759765625 286.971679688 l 1
 538.08984375 581.971679688 l 1
 314.759765625 286.971679688 l 1x1e40
683.669921875 728.971679688 m 1
 753.469726562 799.971679688 774.2890625 829.971679688 808.359375 886.971679688 c 0
 815.479492188 897.971679688 831.6796875 898.971679688 843.6796875 898.971679688 c 0
 876.6796875 898.971679688 901.94921875 884.971679688 895.928710938 853.971679688 c 0
 883.098632812 787.971679688 797.588867188 738.971679688 737.918945312 714.971679688 c 0
 732.5390625 712.971679688 727.0390625 710.3515625 722.119140625 710.3515625 c 0
 719.048828125 710.3515625 716.489257812 711.401367188 713.559570312 712.971679688 c 2
 683.669921875 728.971679688 l 1
EndSplineSet
Substitution2: "'c2sc' Capitals to Small Capitals in Latin lookup 11 subtable" AEacute.sc
AlternateSubs2: "'aalt' Access All Alternates in Latin lookup 0 subtable" AEacute.sc
Position2: "'cpsp' Capital Spacing in Latin lookup 0 subtable" dx=5 dy=0 dh=10 dv=0
EndChar

StartChar: B
Encoding: 66 66 32
Width: 633
GlyphClass: 2
Flags: MW
HStem: 0 53<-6.5 29.79 3.79492 29.79 271.3 293.3 293.3 321> 332 62<279.59 318.52 267.52 329.59> 607 53<126.26 137.47 320.979 320.979 320.979 373.979>
VStem: 465 132
AnchorPoint: "Anchor-5" 403 660 basechar 0
AnchorPoint: "Anchor-4" 274 0 basechar 0
LayerCount: 2
Fore
SplineSet
-2 0 m 2
 -11 0 -15.2001953125 4 -13.4501953125 13 c 2
 -8.2099609375 40 l 2
 -6.66015625 48 -0.7001953125 53 8.2900390625 53 c 0
 51.2900390625 53 78.740234375 81 89.419921875 136 c 2
 164.83984375 524 l 2
 175.51953125 579 158.969726562 607 115.969726562 607 c 0
 106.969726562 607 102.939453125 612 104.499023438 620 c 2
 109.729492188 647 l 2
 111.479492188 656 117.259765625 660 126.259765625 660 c 2
 409.259765625 660 l 2
 531.259765625 660 612.649414062 590 595.359375 501 c 0
 585.44921875 450 546.099609375 407 482.469726562 378 c 1
 569.219726562 351 610.799804688 282 593.700195312 194 c 0
 571.540039062 80 459 0 321 0 c 2
 -2 0 l 2
293.299804688 53 m 2
 382.299804688 53 444.599609375 106 461.69921875 194 c 0
 479.779296875 287 432.51953125 332 318.51953125 332 c 2
 267.51953125 332 l 1
 229.439453125 136 l 2
 219.139648438 83 233.299804688 53 271.299804688 53 c 2
 293.299804688 53 l 2
329.58984375 394 m 2
 401.58984375 394 450.359375 434 463.379882812 501 c 0
 476.389648438 568 443.979492188 607 373.979492188 607 c 2
 320.979492188 607 l 1
 279.58984375 394 l 1
 329.58984375 394 l 2
EndSplineSet
Substitution2: "'ss04' Style Set 4 in Latin lookup 33 subtable" u1F151
Substitution2: "'ss03' Style Set 3 in Latin lookup 31 subtable" uni24B7
Substitution2: "'c2sc' Capitals to Small Capitals in Latin lookup 11 subtable" B.sc
AlternateSubs2: "'aalt' Access All Alternates in Latin lookup 0 subtable" B.sc uni24B7 u1F151
Position2: "'cpsp' Capital Spacing in Latin lookup 0 subtable" dx=5 dy=0 dh=10 dv=0
EndChar

StartChar: uni1E04
Encoding: 7684 7684 33
Width: 633
GlyphClass: 2
Flags: MW
HStem: 0 53<-6.5 29.79 3.79492 29.79 271.3 293.3 293.3 321> 332 62<279.59 318.52 267.52 329.59> 607 53<126.26 137.47 320.979 320.979 320.979 373.979>
VStem: 171.35 158.09 465 132
AnchorPoint: "Anchor-5" 403 660 basechar 0
AnchorPoint: "Anchor-4" 274 0 basechar 0
LayerCount: 2
Fore
SplineSet
-2 0 m 2
 -11 0 -15.2001953125 4 -13.4501953125 13 c 2
 -8.2099609375 40 l 2
 -6.66015625 48 -0.7001953125 53 8.2900390625 53 c 0
 51.2900390625 53 78.740234375 81 89.419921875 136 c 2
 164.83984375 524 l 2
 175.51953125 579 158.969726562 607 115.969726562 607 c 0
 106.969726562 607 102.939453125 612 104.499023438 620 c 2
 109.729492188 647 l 2
 111.479492188 656 117.259765625 660 126.259765625 660 c 2
 409.259765625 660 l 2
 531.259765625 660 612.649414062 590 595.359375 501 c 0
 585.44921875 450 546.099609375 407 482.469726562 378 c 1
 569.219726562 351 610.799804688 282 593.700195312 194 c 0
 571.540039062 80 459 0 321 0 c 2
 -2 0 l 2
293.299804688 53 m 2
 382.299804688 53 444.599609375 106 461.69921875 194 c 0
 479.779296875 287 432.51953125 332 318.51953125 332 c 2
 267.51953125 332 l 1
 229.439453125 136 l 2
 219.139648438 83 233.299804688 53 271.299804688 53 c 2
 293.299804688 53 l 2
329.58984375 394 m 2
 401.58984375 394 450.359375 434 463.379882812 501 c 0
 476.389648438 568 443.979492188 607 373.979492188 607 c 2
 320.979492188 607 l 1
 279.58984375 394 l 1
 329.58984375 394 l 2
265.059570312 -50.5302734375 m 0
 284.069335938 -54.220703125 298.138671875 -64.3310546875 313.458984375 -87.05078125 c 0
 328.779296875 -109.750976562 333.12890625 -125.401367188 329.438476562 -144.411132812 c 0
 325.748046875 -163.420898438 314.427734375 -177.241210938 293.127929688 -191.611328125 c 0
 270.41796875 -206.931640625 253.587890625 -211.051757812 234.578125 -207.361328125 c 0
 216.7578125 -203.901367188 203.887695312 -194.000976562 187.387695312 -171.060546875 c 0
 171.828125 -149.55078125 167.708007812 -132.720703125 171.3984375 -113.7109375 c 0
 175.088867188 -94.701171875 184.989257812 -81.8310546875 207.69921875 -66.5107421875 c 0
 230.409179688 -51.1904296875 247.239257812 -47.0703125 265.059570312 -50.5302734375 c 0
EndSplineSet
Substitution2: "'c2sc' Capitals to Small Capitals in Latin lookup 11 subtable" uni1E04.sc
AlternateSubs2: "'aalt' Access All Alternates in Latin lookup 0 subtable" uni1E04.sc
Position2: "'cpsp' Capital Spacing in Latin lookup 0 subtable" dx=5 dy=0 dh=10 dv=0
EndChar

StartChar: C
Encoding: 67 67 34
Width: 659
GlyphClass: 2
Flags: MW
HStem: -11 85<278.91 398.879> 601 70<360.33 473.33>
VStem: 44 154 530 146.3
AnchorPoint: "Anchor-5" 439 660 basechar 0
AnchorPoint: "Anchor-4" 316 0 basechar 0
LayerCount: 2
Fore
SplineSet
641 211 m 2
 651.030273438 206 655.458007812 203 648.528320312 193 c 0
 592.638671875 101 483.87890625 -11 313.87890625 -11 c 0
 102.87890625 -11 15.0693359375 134 51.8095703125 323 c 0
 80.3798828125 470 190.450195312 671 444.450195312 671 c 0
 654.450195312 671 683.890625 519 676.310546875 480 c 0
 674.380859375 470 668.600585938 466 658.030273438 463 c 2
 536.25 423 l 2
 523.490234375 419 515.490234375 419 517.610351562 430 c 0
 519.55078125 440 524.060546875 453 527.560546875 471 c 0
 537.48046875 522 523.830078125 601 422.830078125 601 c 0
 297.830078125 601 228.440429688 460 209.390625 362 c 0
 176.16015625 191 213.41015625 74 344.41015625 74 c 0
 474.41015625 74 544.959960938 154 585.200195312 217 c 0
 594.91015625 231 601.100585938 232 613.740234375 225 c 2
 641 211 l 2
EndSplineSet
Substitution2: "'ss04' Style Set 4 in Latin lookup 33 subtable" u1F152
Substitution2: "'ss03' Style Set 3 in Latin lookup 31 subtable" uni24B8
Substitution2: "'c2sc' Capitals to Small Capitals in Latin lookup 11 subtable" C.sc
AlternateSubs2: "'aalt' Access All Alternates in Latin lookup 0 subtable" C.sc uni24B8 u1F152
Position2: "'cpsp' Capital Spacing in Latin lookup 0 subtable" dx=5 dy=0 dh=10 dv=0
EndChar

StartChar: Cacute
Encoding: 262 262 35
Width: 659
GlyphClass: 2
Flags: MW
HStem: -11 85<278.91 398.879> 601 70<360.33 473.33>
VStem: 44 154 530 146.3
AnchorPoint: "Anchor-5" 518 899 basechar 0
AnchorPoint: "Anchor-4" 316 0 basechar 0
LayerCount: 2
Fore
SplineSet
641 211 m 2
 651.030273438 206 655.458007812 203 648.528320312 193 c 0
 592.638671875 101 483.87890625 -11 313.87890625 -11 c 0
 102.87890625 -11 15.0693359375 134 51.8095703125 323 c 0
 80.3798828125 470 190.450195312 671 444.450195312 671 c 0
 654.450195312 671 683.890625 519 676.310546875 480 c 0
 674.380859375 470 668.600585938 466 658.030273438 463 c 2
 536.25 423 l 2
 523.490234375 419 515.490234375 419 517.610351562 430 c 0
 519.55078125 440 524.060546875 453 527.560546875 471 c 0
 537.48046875 522 523.830078125 601 422.830078125 601 c 0
 297.830078125 601 228.440429688 460 209.390625 362 c 0
 176.16015625 191 213.41015625 74 344.41015625 74 c 0
 474.41015625 74 544.959960938 154 585.200195312 217 c 0
 594.91015625 231 601.100585938 232 613.740234375 225 c 2
 641 211 l 2
390.717773438 729 m 1
 460.517578125 800 481.3359375 830 515.40625 887 c 0
 522.526367188 898 538.7265625 899 550.7265625 899 c 0
 583.7265625 899 608.99609375 885 602.9765625 854 c 0
 590.146484375 788 504.63671875 739 444.966796875 715 c 0
 439.586914062 713 434.086914062 710.379882812 429.166992188 710.379882812 c 0
 426.096679688 710.379882812 423.537109375 711.4296875 420.607421875 713 c 2
 390.717773438 729 l 1
EndSplineSet
Substitution2: "'c2sc' Capitals to Small Capitals in Latin lookup 11 subtable" Cacute.sc
AlternateSubs2: "'aalt' Access All Alternates in Latin lookup 0 subtable" Cacute.sc
Position2: "'cpsp' Capital Spacing in Latin lookup 0 subtable" dx=5 dy=0 dh=10 dv=0
EndChar

StartChar: Ccaron
Encoding: 268 268 36
Width: 659
GlyphClass: 2
Flags: MW
HStem: -11 85<278.91 398.879> 601 70<360.33 473.33>
VStem: 44 154 530 146.3
AnchorPoint: "Anchor-5" 482 845 basechar 0
AnchorPoint: "Anchor-4" 316 0 basechar 0
LayerCount: 2
Fore
SplineSet
641 211 m 2
 651.030273438 206 655.458007812 203 648.528320312 193 c 0
 592.638671875 101 483.87890625 -11 313.87890625 -11 c 0
 102.87890625 -11 15.0693359375 134 51.8095703125 323 c 0
 80.3798828125 470 190.450195312 671 444.450195312 671 c 0
 654.450195312 671 683.890625 519 676.310546875 480 c 0
 674.380859375 470 668.600585938 466 658.030273438 463 c 2
 536.25 423 l 2
 523.490234375 419 515.490234375 419 517.610351562 430 c 0
 519.55078125 440 524.060546875 453 527.560546875 471 c 0
 537.48046875 522 523.830078125 601 422.830078125 601 c 0
 297.830078125 601 228.440429688 460 209.390625 362 c 0
 176.16015625 191 213.41015625 74 344.41015625 74 c 0
 474.41015625 74 544.959960938 154 585.200195312 217 c 0
 594.91015625 231 601.100585938 232 613.740234375 225 c 2
 641 211 l 2
466.6875 793 m 1
 502.197265625 842 556.877929688 897 613.877929688 897 c 0
 643.877929688 897 652.248046875 868 645.828125 835 c 0
 642.91796875 820 639.387695312 807 627.427734375 802 c 0
 565.147460938 780 532.237304688 765 450.166992188 708 c 1
 390.247070312 765 363.166992188 780 309.45703125 802 c 0
 299.426757812 807 300.95703125 820 303.8671875 835 c 0
 310.287109375 868 329.907226562 897 359.907226562 897 c 0
 416.907226562 897 450.20703125 842 466.6875 793 c 1
EndSplineSet
Substitution2: "'c2sc' Capitals to Small Capitals in Latin lookup 11 subtable" Ccaron.sc
AlternateSubs2: "'aalt' Access All Alternates in Latin lookup 0 subtable" Ccaron.sc
Position2: "'cpsp' Capital Spacing in Latin lookup 0 subtable" dx=5 dy=0 dh=10 dv=0
EndChar

StartChar: Ccedilla
Encoding: 199 199 37
Width: 659
GlyphClass: 2
Flags: MW
HStem: -6 21G
AnchorPoint: "Anchor-5" 439 660 basechar 0
AnchorPoint: "Anchor-4" 316 0 basechar 0
LayerCount: 2
Fore
SplineSet
641 211 m 2
 651.030273438 206 655.455078125 203 648.514648438 193 c 0
 593.8046875 102.940429688 488.404296875 -6.2998046875 324.50390625 -10.849609375 c 1
 280.694335938 -53 l 1
 294.6640625 -48 309.053710938 -46 323.053710938 -46 c 0
 369.053710938 -46 417.00390625 -72 404.75390625 -135 c 0
 394.643554688 -187 341.25390625 -225 273.25390625 -225 c 0
 246.25390625 -225 217.234375 -220 188.75390625 -207 c 0
 173.114257812 -200 177.173828125 -174 180.473632812 -157 c 0
 181.643554688 -151 184.423828125 -147 188.423828125 -147 c 0
 191.423828125 -147 194.223632812 -148 196.033203125 -149 c 0
 215.672851562 -156 243.3125 -163 268.3125 -163 c 0
 292.3125 -163 311.672851562 -156 315.752929688 -135 c 0
 321.583007812 -105 295.913085938 -93 256.913085938 -93 c 0
 238.913085938 -93 221.333007812 -96 205.333007812 -96 c 0
 200.333007812 -96 197.913085938 -93 198.693359375 -89 c 0
 199.2734375 -86 199.663085938 -84 202.252929688 -81 c 2
 260.403320312 -7.6201171875 l 1
 88.203125 15.1796875 18.3134765625 150.83984375 51.783203125 323 c 0
 80.353515625 470 190.423828125 671 444.423828125 671 c 0
 654.423828125 671 683.874023438 519 676.293945312 480 c 0
 674.353515625 470 668.573242188 466 657.993164062 463 c 2
 536.212890625 423 l 2
 523.442382812 419 515.442382812 419 517.572265625 430 c 0
 519.522460938 440 524.041992188 453 527.541992188 471 c 0
 537.461914062 522 523.811523438 601 422.811523438 601 c 0
 297.811523438 601 228.411132812 460 209.361328125 362 c 0
 176.12109375 191 213.37109375 74 344.37109375 74 c 0
 474.37109375 74 544.930664062 154 585.170898438 217 c 0
 594.890625 231 601.090820312 232 613.73046875 225 c 2
 641 211 l 2
EndSplineSet
Substitution2: "'c2sc' Capitals to Small Capitals in Latin lookup 11 subtable" Ccedilla.sc
AlternateSubs2: "'aalt' Access All Alternates in Latin lookup 0 subtable" Ccedilla.sc
Position2: "'cpsp' Capital Spacing in Latin lookup 0 subtable" dx=5 dy=0 dh=10 dv=0
EndChar

StartChar: uni1E08
Encoding: 7688 7688 38
Width: 659
GlyphClass: 2
Flags: MW
HStem: -225 62 -93 47 -93 167 -7.62 21G 601 70<360.33 473.33>
VStem: 44 154 178 229 315.76 91.24 530 146.3
AnchorPoint: "Anchor-5" 518 899 basechar 0
AnchorPoint: "Anchor-4" 316 0 basechar 0
LayerCount: 2
Fore
SplineSet
641 211 m 1xdc
 641.05859375 211 l 1xdc
 651.088867188 206 655.499023438 203 648.569335938 193 c 0
 593.859375 102.940429688 488.458984375 -6.2900390625 324.569335938 -10.83984375 c 1
 280.76953125 -52.990234375 l 1
 294.729492188 -47.990234375 309.119140625 -45.990234375 323.119140625 -45.990234375 c 0
 369.119140625 -45.990234375 417.059570312 -71.990234375 404.809570312 -134.990234375 c 0
 394.709960938 -186.990234375 341.3203125 -224.990234375 273.3203125 -224.990234375 c 0xdd
 246.3203125 -224.990234375 217.310546875 -219.990234375 188.830078125 -206.990234375 c 0
 173.190429688 -199.990234375 177.25 -173.990234375 180.540039062 -156.990234375 c 0
 181.709960938 -150.990234375 184.490234375 -146.990234375 188.490234375 -146.990234375 c 0
 191.490234375 -146.990234375 194.280273438 -147.990234375 196.08984375 -148.990234375 c 0xda
 215.729492188 -155.990234375 243.359375 -162.990234375 268.359375 -162.990234375 c 0
 292.359375 -162.990234375 311.719726562 -155.990234375 315.790039062 -134.990234375 c 0
 321.620117188 -104.990234375 295.950195312 -92.990234375 256.950195312 -92.990234375 c 0
 238.950195312 -92.990234375 221.379882812 -95.990234375 205.379882812 -95.990234375 c 0
 200.379882812 -95.990234375 197.959960938 -92.990234375 198.740234375 -88.990234375 c 0
 199.310546875 -85.990234375 199.700195312 -83.990234375 202.280273438 -80.990234375 c 2
 260.419921875 -7.6103515625 l 1xdd
 88.2294921875 15.1796875 18.33984375 150.83984375 51.8095703125 323 c 0
 80.3798828125 470 190.450195312 671 444.450195312 671 c 0
 654.450195312 671 683.890625 519 676.310546875 480 c 0
 674.380859375 470 668.600585938 466 658.030273438 463 c 2
 536.25 423 l 2
 523.490234375 419 515.490234375 419 517.610351562 430 c 0
 519.55078125 440 524.060546875 453 527.560546875 471 c 0
 537.48046875 522 523.830078125 601 422.830078125 601 c 0
 297.830078125 601 228.440429688 460 209.390625 362 c 0
 176.16015625 191 213.41015625 74 344.41015625 74 c 0xac80
 474.41015625 74 544.959960938 154 585.200195312 217 c 0
 594.91015625 231 601.100585938 232 613.740234375 225 c 2
 641 211 l 1xdc
390.758789062 729 m 1
 460.55859375 800 481.376953125 830 515.447265625 887 c 0
 522.567382812 898 538.767578125 899 550.767578125 899 c 0
 583.767578125 899 609.037109375 885 603.017578125 854 c 0
 590.1875 788 504.677734375 739 445.0078125 715 c 0
 439.627929688 713 434.127929688 710.379882812 429.208007812 710.379882812 c 0
 426.137695312 710.379882812 423.578125 711.4296875 420.6484375 713 c 2
 390.758789062 729 l 1
EndSplineSet
Substitution2: "'c2sc' Capitals to Small Capitals in Latin lookup 11 subtable" uni1E08.sc
AlternateSubs2: "'aalt' Access All Alternates in Latin lookup 0 subtable" uni1E08.sc
Position2: "'cpsp' Capital Spacing in Latin lookup 0 subtable" dx=5 dy=0 dh=10 dv=0
EndChar

StartChar: Ccircumflex
Encoding: 264 264 39
Width: 659
GlyphClass: 2
Flags: MW
HStem: -11 85<278.91 398.879> 601 70<360.33 473.33>
VStem: 44 154 530 146.3
AnchorPoint: "Anchor-7" 469 812 basechar 0
AnchorPoint: "Anchor-5" 480 867 basechar 0
AnchorPoint: "Anchor-4" 316 0 basechar 0
LayerCount: 2
Fore
SplineSet
641 211 m 2
 651.030273438 206 655.458007812 203 648.528320312 193 c 0
 592.638671875 101 483.87890625 -11 313.87890625 -11 c 0
 102.87890625 -11 15.0693359375 134 51.8095703125 323 c 0
 80.3798828125 470 190.450195312 671 444.450195312 671 c 0
 654.450195312 671 683.890625 519 676.310546875 480 c 0
 674.380859375 470 668.600585938 466 658.030273438 463 c 2
 536.25 423 l 2
 523.490234375 419 515.490234375 419 517.610351562 430 c 0
 519.55078125 440 524.060546875 453 527.560546875 471 c 0
 537.48046875 522 523.830078125 601 422.830078125 601 c 0
 297.830078125 601 228.440429688 460 209.390625 362 c 0
 176.16015625 191 213.41015625 74 344.41015625 74 c 0
 474.41015625 74 544.959960938 154 585.200195312 217 c 0
 594.91015625 231 601.100585938 232 613.740234375 225 c 2
 641 211 l 2
468.857421875 812 m 1
 433.327148438 763 378.646484375 708 321.646484375 708 c 0
 291.646484375 708 283.296875 737 289.70703125 770 c 0
 292.626953125 785 296.146484375 798 308.116210938 803 c 0
 370.375976562 825 403.286132812 840 485.366210938 897 c 1
 545.276367188 840 572.356445312 825 626.086914062 803 c 0
 636.106445312 798 634.586914062 785 631.666992188 770 c 0
 625.256835938 737 605.6171875 708 575.6171875 708 c 0
 518.6171875 708 485.317382812 763 468.857421875 812 c 1
EndSplineSet
Substitution2: "'c2sc' Capitals to Small Capitals in Latin lookup 11 subtable" Ccircumflex.sc
AlternateSubs2: "'aalt' Access All Alternates in Latin lookup 0 subtable" Ccircumflex.sc
Position2: "'cpsp' Capital Spacing in Latin lookup 0 subtable" dx=5 dy=0 dh=10 dv=0
EndChar

StartChar: Cdotaccent
Encoding: 266 266 40
Width: 659
GlyphClass: 2
Flags: MW
HStem: -11 85<278.91 398.879> 601 70<360.33 473.33>
VStem: 44 154 387.22 158.09 530 146.3
AnchorPoint: "Anchor-5" 475 845 basechar 0
AnchorPoint: "Anchor-4" 316 0 basechar 0
LayerCount: 2
Fore
SplineSet
641 211 m 2xe8
 651.030273438 206 655.458007812 203 648.528320312 193 c 0
 592.638671875 101 483.87890625 -11 313.87890625 -11 c 0
 102.87890625 -11 15.0693359375 134 51.8095703125 323 c 0
 80.3798828125 470 190.450195312 671 444.450195312 671 c 0
 654.450195312 671 683.890625 519 676.310546875 480 c 0
 674.380859375 470 668.600585938 466 658.030273438 463 c 2
 536.25 423 l 2
 523.490234375 419 515.490234375 419 517.610351562 430 c 0
 519.55078125 440 524.060546875 453 527.560546875 471 c 0
 537.48046875 522 523.830078125 601 422.830078125 601 c 0
 297.830078125 601 228.440429688 460 209.390625 362 c 0
 176.16015625 191 213.41015625 74 344.41015625 74 c 0
 474.41015625 74 544.959960938 154 585.200195312 217 c 0
 594.91015625 231 601.100585938 232 613.740234375 225 c 2
 641 211 l 2xe8
480.9375 863.549804688 m 0xf0
 499.947265625 859.859375 514.017578125 849.708007812 529.327148438 827.0078125 c 0
 544.647460938 804.288085938 549.0078125 788.6484375 545.317382812 769.638671875 c 0
 541.626953125 750.62890625 530.306640625 736.798828125 509.006835938 722.44921875 c 0
 486.296875 707.12890625 469.466796875 703.008789062 450.45703125 706.69921875 c 0
 432.63671875 710.159179688 419.756835938 720.069335938 403.256835938 742.999023438 c 0
 387.70703125 764.529296875 383.586914062 781.359375 387.27734375 800.369140625 c 0
 390.967773438 819.37890625 400.857421875 832.249023438 423.577148438 847.569335938 c 0
 446.287109375 862.889648438 463.1171875 867.009765625 480.9375 863.549804688 c 0xf0
EndSplineSet
Substitution2: "'c2sc' Capitals to Small Capitals in Latin lookup 11 subtable" Cdotaccent.sc
AlternateSubs2: "'aalt' Access All Alternates in Latin lookup 0 subtable" Cdotaccent.sc
Position2: "'cpsp' Capital Spacing in Latin lookup 0 subtable" dx=5 dy=0 dh=10 dv=0
EndChar

StartChar: D
Encoding: 68 68 41
Width: 695
GlyphClass: 2
Flags: MW
HStem: 0 53<-6.46973 14.3105 8.31055 14.3105 14.3105 33.3105 8.31055 293.03> 0 57<250.609 293.03> 607 53<126.28 137.49 321.01 321.01 321.01 362.01>
VStem: 562 132
AnchorPoint: "Anchor-5" 395 660 basechar 0
AnchorPoint: "Anchor-4" 279 0 basechar 0
LayerCount: 2
Fore
SplineSet
397.280273438 660 m 2x70
 607.280273438 660 726 535 686.360351562 331 c 0
 645.540039062 121 494.030273438 0 293.030273438 0 c 2
 -1.9697265625 0 l 2
 -10.9697265625 0 -15.1796875 4 -13.4296875 13 c 2x70
 -8.189453125 40 l 2
 -6.6396484375 48 -0.6796875 53 8.310546875 53 c 2
 14.310546875 53 l 2
 52.310546875 53 79.3408203125 84 89.4404296875 136 c 2xb0
 164.860351562 524 l 2
 175.540039062 579 158.990234375 607 115.990234375 607 c 0
 106.990234375 607 102.959960938 612 104.51953125 620 c 2
 109.75 647 l 2
 111.5 656 117.280273438 660 126.280273438 660 c 2
 397.280273438 660 l 2x70
228.6796875 132 m 2
 219.75 86 222.109375 57 279.109375 57 c 0
 419.109375 57 516.229492188 140 553.359375 331 c 0
 586.399414062 501 528.009765625 607 362.009765625 607 c 2
 321.009765625 607 l 1
 228.6796875 132 l 2
EndSplineSet
Substitution2: "'ss04' Style Set 4 in Latin lookup 33 subtable" u1F153
Substitution2: "'ss03' Style Set 3 in Latin lookup 31 subtable" uni24B9
Substitution2: "'c2sc' Capitals to Small Capitals in Latin lookup 11 subtable" D.sc
AlternateSubs2: "'aalt' Access All Alternates in Latin lookup 0 subtable" D.sc uni24B9 u1F153
Position2: "'cpsp' Capital Spacing in Latin lookup 0 subtable" dx=5 dy=0 dh=10 dv=0
EndChar

StartChar: uni01C4
Encoding: 452 452 42
Width: 1342
GlyphClass: 2
Flags: MW
HStem: -12 21G 0 53<-6.50098 14.2988 8.29883 14.2988 14.2988 33.2988 8.29883 292.999> 0 57<250.581 292.999> 607 53<126.29 137.49 320.99 320.99 320.99 361.99> 708 189
VStem: 562 132 1003 346
AnchorPoint: "Anchor-5" 1183 845 basechar 0
AnchorPoint: "Anchor-4" 944 0 basechar 0
LayerCount: 2
Fore
SplineSet
397.290039062 660 m 2x5e
 607.290039062 660 725.990234375 535 686.33984375 331 c 0
 645.51953125 121 493.999023438 0 292.999023438 0 c 2
 -2.0009765625 0 l 2
 -11.0009765625 0 -15.220703125 4 -13.470703125 13 c 2
 -8.220703125 40 l 2
 -6.6708984375 48 -0.701171875 53 8.298828125 53 c 2
 14.298828125 53 l 2
 52.298828125 53 79.3291015625 84 89.439453125 136 c 2
 164.859375 524 l 2
 175.549804688 579 158.990234375 607 115.990234375 607 c 0
 106.990234375 607 102.959960938 612 104.51953125 620 c 2
 109.759765625 647 l 2
 111.509765625 656 117.290039062 660 126.290039062 660 c 2
 397.290039062 660 l 2x5e
228.66015625 132 m 2
 219.719726562 86 222.081054688 57 279.081054688 57 c 0x3e
 419.081054688 57 516.2109375 140 553.340820312 331 c 0
 586.390625 501 527.990234375 607 361.990234375 607 c 2
 320.990234375 607 l 1
 228.66015625 132 l 2
1305.3515625 151 m 2
 1310.77148438 148 1310.9921875 144 1310.41210938 141 c 0
 1309.82226562 138 1308.44238281 136 1305.85253906 133 c 2
 1209.22265625 -4 l 2
 1205.25292969 -9 1201.86328125 -11 1196.86328125 -11 c 0x9e
 1194.86328125 -11 1191.86328125 -11 1189.25292969 -9 c 2
 1186.22265625 -4 l 2
 1183.00292969 0 1176.00292969 0 1170.00292969 0 c 2
 670.002929688 0 l 2x5e
 662.002929688 0 657.783203125 4 659.533203125 13 c 2
 669.052734375 62 l 2
 670.22265625 68 674.3828125 74 678.362304688 79 c 2
 1173.4921875 589 l 1
 1024.4921875 589 l 2
 944.4921875 589 900.72265625 549 848.802734375 498 c 2
 845.022460938 494 l 2
 840.052734375 489 836.47265625 486 832.47265625 486 c 0
 830.47265625 486 827.663085938 487 824.86328125 488 c 2
 791.943359375 509 l 2
 788.333007812 511 786.11328125 515 786.8828125 519 c 0
 787.47265625 522 788.862304688 524 791.442382812 527 c 2
 887.072265625 664 l 2
 891.2421875 670 895.432617188 671 900.432617188 671 c 0
 903.432617188 671 905.432617188 671 911.072265625 664 c 0
 915.291992188 660 921.291992188 660 927.291992188 660 c 2
 1398.29199219 660 l 2
 1402.29199219 660 1402.90234375 658 1402.51269531 656 c 2
 1401.54296875 651 l 2
 1400.96289062 648 1397.18261719 644 1394.60253906 641 c 2
 853.552734375 80 l 1
 971.552734375 80 l 2
 1135.55273438 80 1201.60253906 106 1248.30273438 161 c 2
 1252.27246094 166 l 2
 1256.2421875 171 1260.82226562 174 1264.82226562 174 c 0
 1267.82226562 174 1269.63183594 173 1272.43164062 172 c 2
 1305.3515625 151 l 2
1167.67285156 793 m 1
 1203.19238281 842 1257.8828125 897 1314.8828125 897 c 0
 1344.8828125 897 1353.25292969 868 1346.83300781 835 c 0
 1343.92285156 820 1340.39257812 807 1328.42285156 802 c 0
 1266.14257812 780 1233.23242188 765 1151.15234375 708 c 1
 1091.23242188 765 1064.14257812 780 1010.42285156 802 c 0
 1000.39257812 807 1001.92285156 820 1004.83300781 835 c 0
 1011.25292969 868 1030.8828125 897 1060.8828125 897 c 0
 1117.8828125 897 1151.19238281 842 1167.67285156 793 c 1
EndSplineSet
Substitution2: "'c2sc' Capitals to Small Capitals in Latin lookup 11 subtable" uni01C4.sc
AlternateSubs2: "'aalt' Access All Alternates in Latin lookup 0 subtable" uni01C4.sc
Position2: "'cpsp' Capital Spacing in Latin lookup 0 subtable" dx=5 dy=0 dh=10 dv=0
EndChar

StartChar: Dcaron
Encoding: 270 270 43
Width: 695
GlyphClass: 2
Flags: MW
HStem: 0 53<-6.46973 14.3105 8.31055 14.3105 14.3105 33.3105 8.31055 293.03> 0 57<250.609 293.03> 607 53<126.28 137.49 321.01 321.01 321.01 362.01>
VStem: 562 132
AnchorPoint: "Anchor-5" 438 845 basechar 0
AnchorPoint: "Anchor-4" 279 0 basechar 0
LayerCount: 2
Fore
SplineSet
397.280273438 660 m 2x70
 607.280273438 660 726 535 686.360351562 331 c 0
 645.540039062 121 494.030273438 0 293.030273438 0 c 2
 -1.9697265625 0 l 2
 -10.9697265625 0 -15.1796875 4 -13.4296875 13 c 2x70
 -8.189453125 40 l 2
 -6.6396484375 48 -0.6796875 53 8.310546875 53 c 2
 14.310546875 53 l 2
 52.310546875 53 79.3408203125 84 89.4404296875 136 c 2xb0
 164.860351562 524 l 2
 175.540039062 579 158.990234375 607 115.990234375 607 c 0
 106.990234375 607 102.959960938 612 104.51953125 620 c 2
 109.75 647 l 2
 111.5 656 117.280273438 660 126.280273438 660 c 2
 397.280273438 660 l 2x70
228.6796875 132 m 2
 219.75 86 222.109375 57 279.109375 57 c 0
 419.109375 57 516.229492188 140 553.359375 331 c 0
 586.399414062 501 528.009765625 607 362.009765625 607 c 2
 321.009765625 607 l 1
 228.6796875 132 l 2
422.69921875 793 m 1
 458.208984375 842 512.889648438 897 569.889648438 897 c 0
 599.889648438 897 608.259765625 868 601.83984375 835 c 0
 598.9296875 820 595.399414062 807 583.439453125 802 c 0
 521.159179688 780 488.249023438 765 406.178710938 708 c 1
 346.258789062 765 319.178710938 780 265.46875 802 c 0
 255.438476562 807 256.96875 820 259.87890625 835 c 0
 266.298828125 868 285.918945312 897 315.918945312 897 c 0
 372.918945312 897 406.21875 842 422.69921875 793 c 1
EndSplineSet
Substitution2: "'c2sc' Capitals to Small Capitals in Latin lookup 11 subtable" Dcaron.sc
AlternateSubs2: "'aalt' Access All Alternates in Latin lookup 0 subtable" Dcaron.sc
Position2: "'cpsp' Capital Spacing in Latin lookup 0 subtable" dx=5 dy=0 dh=10 dv=0
EndChar

StartChar: Dcroat
Encoding: 272 272 44
Width: 695
GlyphClass: 2
Flags: MW
HStem: 0 53<-6.48047 14.2998 8.2998 14.2998 14.2998 33.2998 8.2998 293.02> 0 57<250.608 293.02> 267 103<35.5 134.938 40.0283 114.89 274.938 411.019> 607 53<126.299 137.509 321.009 321.009 321.009 362.009>
VStem: 562 132
AnchorPoint: "Anchor-5" 395 660 basechar 0
AnchorPoint: "Anchor-4" 279 0 basechar 0
LayerCount: 2
Fore
SplineSet
40 267 m 2x78
 31 267 26.0283203125 272 26.0283203125 280 c 2
 26.0283203125 356 l 2
 26.0283203125 365 31.0283203125 370 40.0283203125 370 c 2
 134.938476562 370 l 1
 164.87890625 524 l 2
 175.55859375 579 159.008789062 607 116.008789062 607 c 0
 107.008789062 607 102.978515625 612 104.538085938 620 c 2
 109.768554688 647 l 2
 111.518554688 656 117.298828125 660 126.298828125 660 c 2
 397.298828125 660 l 2
 607.298828125 660 725.989257812 535 686.349609375 331 c 0
 645.529296875 121 494.01953125 0 293.01953125 0 c 2
 -1.98046875 0 l 2
 -10.98046875 0 -15.1904296875 4 -13.4404296875 13 c 2x78
 -8.2001953125 40 l 2
 -6.650390625 48 -0.6904296875 53 8.2998046875 53 c 2
 14.2998046875 53 l 2
 52.2998046875 53 79.330078125 84 89.4296875 136 c 2xb8
 114.889648438 267 l 1
 40 267 l 2x78
228.678710938 132 m 2
 219.749023438 86 222.108398438 57 279.108398438 57 c 0
 419.108398438 57 516.228515625 140 553.358398438 331 c 0
 586.3984375 501 528.008789062 607 362.008789062 607 c 2
 321.008789062 607 l 1
 274.938476562 370 l 1
 411.018554688 370 l 2
 420.018554688 370 424.018554688 365 424.018554688 356 c 2
 424.018554688 280 l 2
 424.018554688 272 420.018554688 267 411.018554688 267 c 2
 254.918945312 267 l 1
 228.678710938 132 l 2
EndSplineSet
Substitution2: "'c2sc' Capitals to Small Capitals in Latin lookup 11 subtable" Dcroat.sc
AlternateSubs2: "'aalt' Access All Alternates in Latin lookup 0 subtable" Dcroat.sc
Position2: "'cpsp' Capital Spacing in Latin lookup 0 subtable" dx=5 dy=0 dh=10 dv=0
EndChar

StartChar: uni1E0C
Encoding: 7692 7692 45
Width: 695
GlyphClass: 2
Flags: MW
HStem: 0 53<-6.46973 14.3105 8.31055 14.3105 14.3105 33.3105 8.31055 293.03> 0 57<250.609 293.03> 607 53<126.28 137.49 321.01 321.01 321.01 362.01>
VStem: 176.35 158.09 562 132
AnchorPoint: "Anchor-5" 395 660 basechar 0
AnchorPoint: "Anchor-4" 279 0 basechar 0
LayerCount: 2
Fore
SplineSet
397.280273438 660 m 2x68
 607.280273438 660 726 535 686.360351562 331 c 0
 645.540039062 121 494.030273438 0 293.030273438 0 c 2
 -1.9697265625 0 l 2
 -10.9697265625 0 -15.1796875 4 -13.4296875 13 c 2x68
 -8.189453125 40 l 2
 -6.6396484375 48 -0.6796875 53 8.310546875 53 c 2
 14.310546875 53 l 2
 52.310546875 53 79.3408203125 84 89.4404296875 136 c 2xa8
 164.860351562 524 l 2
 175.540039062 579 158.990234375 607 115.990234375 607 c 0
 106.990234375 607 102.959960938 612 104.51953125 620 c 2
 109.75 647 l 2
 111.5 656 117.280273438 660 126.280273438 660 c 2
 397.280273438 660 l 2x68
228.6796875 132 m 2
 219.75 86 222.109375 57 279.109375 57 c 0
 419.109375 57 516.229492188 140 553.359375 331 c 0
 586.399414062 501 528.009765625 607 362.009765625 607 c 2
 321.009765625 607 l 1
 228.6796875 132 l 2
270.079101562 -50.5302734375 m 0x78
 289.088867188 -54.220703125 303.158203125 -64.3310546875 318.478515625 -87.05078125 c 0
 333.798828125 -109.750976562 338.1484375 -125.401367188 334.458007812 -144.411132812 c 0
 330.767578125 -163.420898438 319.447265625 -177.241210938 298.147460938 -191.611328125 c 0
 275.4375 -206.931640625 258.607421875 -211.051757812 239.59765625 -207.361328125 c 0
 221.77734375 -203.901367188 208.907226562 -194.000976562 192.407226562 -171.060546875 c 0
 176.84765625 -149.55078125 172.727539062 -132.720703125 176.41796875 -113.7109375 c 0
 180.108398438 -94.701171875 190.008789062 -81.8310546875 212.71875 -66.5107421875 c 0
 235.428710938 -51.1904296875 252.258789062 -47.0703125 270.079101562 -50.5302734375 c 0x78
EndSplineSet
Substitution2: "'c2sc' Capitals to Small Capitals in Latin lookup 11 subtable" uni1E0C.sc
AlternateSubs2: "'aalt' Access All Alternates in Latin lookup 0 subtable" uni1E0C.sc
Position2: "'cpsp' Capital Spacing in Latin lookup 0 subtable" dx=5 dy=0 dh=10 dv=0
EndChar

StartChar: uni1E0E
Encoding: 7694 7694 46
Width: 695
GlyphClass: 2
Flags: MW
HStem: -153 79<122.26 378.109 142.109 362.76> 0 53<-6.46973 14.3105 8.31055 14.3105 14.3105 33.3105 8.31055 293.03> 0 57<250.609 293.03> 607 53<126.28 137.49 321.01 321.01 321.01 362.01>
VStem: 562 132
AnchorPoint: "Anchor-5" 395 660 basechar 0
AnchorPoint: "Anchor-4" 279 0 basechar 0
LayerCount: 2
Fore
SplineSet
397.280273438 660 m 2xb8
 607.280273438 660 726 535 686.360351562 331 c 0
 645.540039062 121 494.030273438 0 293.030273438 0 c 2
 -1.9697265625 0 l 2
 -10.9697265625 0 -15.1796875 4 -13.4296875 13 c 2xb8
 -8.189453125 40 l 2
 -6.6396484375 48 -0.6796875 53 8.310546875 53 c 2
 14.310546875 53 l 2
 52.310546875 53 79.3408203125 84 89.4404296875 136 c 2xd8
 164.860351562 524 l 2
 175.540039062 579 158.990234375 607 115.990234375 607 c 0
 106.990234375 607 102.959960938 612 104.51953125 620 c 2
 109.75 647 l 2
 111.5 656 117.280273438 660 126.280273438 660 c 2
 397.280273438 660 l 2xb8
228.6796875 132 m 2
 219.75 86 222.109375 57 279.109375 57 c 0
 419.109375 57 516.229492188 140 553.359375 331 c 0
 586.399414062 501 528.009765625 607 362.009765625 607 c 2
 321.009765625 607 l 1
 228.6796875 132 l 2
378.279296875 -140 m 2
 376.719726562 -148 371.759765625 -153 362.759765625 -153 c 2
 126.759765625 -153 l 2
 117.759765625 -153 114.729492188 -148 116.2890625 -140 c 2
 126.579101562 -87 l 2
 128.329101562 -78 133.109375 -74 142.109375 -74 c 2
 378.109375 -74 l 2
 387.109375 -74 390.319335938 -78 388.569335938 -87 c 2
 378.279296875 -140 l 2
EndSplineSet
Substitution2: "'c2sc' Capitals to Small Capitals in Latin lookup 11 subtable" uni1E0E.sc
AlternateSubs2: "'aalt' Access All Alternates in Latin lookup 0 subtable" uni1E0E.sc
Position2: "'cpsp' Capital Spacing in Latin lookup 0 subtable" dx=5 dy=0 dh=10 dv=0
EndChar

StartChar: uni01C5
Encoding: 453 453 47
Width: 1165
GlyphClass: 2
Flags: MW
HStem: -12 21G 0 53<-6.50098 14.2988 8.29883 14.2988 14.2988 33.2988 8.29883 292.999> 0 57<250.581 292.999> 431 20G 488 189 607 53<126.29 137.49 320.99 320.99 320.99 361.99>
VStem: 562 132 845 346
AnchorPoint: "Anchor-5" 1025 625 basechar 0
AnchorPoint: "Anchor-4" 878 0 basechar 0
LayerCount: 2
Fore
SplineSet
397.290039062 660 m 2x97
 607.290039062 660 725.990234375 535 686.33984375 331 c 0
 645.51953125 121 493.999023438 0 292.999023438 0 c 2
 -2.0009765625 0 l 2
 -11.0009765625 0 -15.220703125 4 -13.470703125 13 c 2
 -8.220703125 40 l 2
 -6.6708984375 48 -0.701171875 53 8.298828125 53 c 2
 14.298828125 53 l 2x5b
 52.298828125 53 79.3291015625 84 89.439453125 136 c 2
 164.859375 524 l 2
 175.549804688 579 158.990234375 607 115.990234375 607 c 0
 106.990234375 607 102.959960938 612 104.51953125 620 c 2
 109.759765625 647 l 2
 111.509765625 656 117.290039062 660 126.290039062 660 c 2
 397.290039062 660 l 2x97
228.66015625 132 m 2
 219.719726562 86 222.081054688 57 279.081054688 57 c 0x3b
 419.081054688 57 516.2109375 140 553.340820312 331 c 0
 586.390625 501 527.990234375 607 361.990234375 607 c 2
 320.990234375 607 l 1
 228.66015625 132 l 2
1132.27148438 130 m 2
 1138.671875 125.83984375 1139.38574219 119.201171875 1133.77539062 112.010742188 c 2
 1043.22558594 -3.9892578125 l 2
 1039.30566406 -9.01953125 1034.86523438 -10.9892578125 1030.86523438 -10.9892578125 c 0x9b
 1026.86523438 -10.9892578125 1027.00488281 -10.859375 1020.22460938 -3.9892578125 c 0
 1016.14453125 0.150390625 1011.00488281 0.0107421875 1005.00488281 0.0107421875 c 2
 666.004882812 0.0107421875 l 2x5b
 657.004882812 0.0107421875 653.78515625 4.0107421875 655.53515625 13.0107421875 c 2
 662.915039062 51.0107421875 l 2
 663.6953125 55.0107421875 664.315429688 58.630859375 666.865234375 61.0107421875 c 2
 1006.67480469 379.010742188 l 1
 921.674804688 379.010742188 l 2
 861.674804688 379.010742188 815.014648438 356.130859375 775.094726562 304.010742188 c 2
 769.734375 297.010742188 l 2
 762.134765625 287.090820312 759.424804688 286.130859375 750.764648438 292.010742188 c 2
 724.264648438 310.010742188 l 2
 717.044921875 314.911132812 717.165039062 319.911132812 723.764648438 328.000976562 c 2
 818.314453125 444.000976562 l 2
 821.774414062 448.250976562 825.674804688 451.000976562 830.674804688 451.000976562 c 0
 833.674804688 451.000976562 835.434570312 450.821289062 840.314453125 444.000976562 c 0
 843.314453125 439.810546875 849.543945312 440.000976562 855.543945312 440.000976562 c 2
 1186.60351562 440.000976562 l 2
 1191.75390625 440.000976562 1191.98339844 437.130859375 1191.203125 433.130859375 c 0
 1190.62304688 430.130859375 1188.81347656 427.23046875 1185.43359375 424 c 2
 805.873046875 61 l 1
 872.873046875 61 l 2
 933.873046875 61 1027.39257812 62.91015625 1085.45214844 136 c 2
 1089.421875 141 l 2
 1099.421875 153.599609375 1107.11132812 146.349609375 1109.19140625 145 c 2
 1132.27148438 130 l 2
1009.90527344 573.01171875 m 1
 1045.43554688 622.01171875 1100.12597656 677.01171875 1157.12597656 677.01171875 c 0
 1187.12597656 677.01171875 1195.48632812 648.01171875 1189.07617188 615.01171875 c 0
 1186.15625 600.01171875 1182.63671875 587.01171875 1170.65625 582.01171875 c 0
 1108.38671875 560.01171875 1075.46679688 545.01171875 993.38671875 488.01171875 c 1
 933.466796875 545.01171875 906.38671875 560.01171875 852.65625 582.01171875 c 0
 842.63671875 587.01171875 844.15625 600.01171875 847.076171875 615.01171875 c 0
 853.486328125 648.01171875 873.125976562 677.01171875 903.125976562 677.01171875 c 0
 960.125976562 677.01171875 993.435546875 622.01171875 1009.90527344 573.01171875 c 1
EndSplineSet
Substitution2: "'c2sc' Capitals to Small Capitals in Latin lookup 11 subtable" uni01C5.sc
AlternateSubs2: "'aalt' Access All Alternates in Latin lookup 0 subtable" uni01C5.sc
Position2: "'cpsp' Capital Spacing in Latin lookup 0 subtable" dx=5 dy=0 dh=10 dv=0
EndChar

StartChar: Eth
Encoding: 208 208 48
Width: 695
GlyphClass: 2
Flags: MW
HStem: 0 53<-6.48047 14.2998 8.2998 14.2998 14.2998 33.2998 8.2998 293.02> 0 57<250.608 293.02> 267 103<35.5 134.938 40.0283 114.89 274.938 411.019> 607 53<126.299 137.509 321.009 321.009 321.009 362.009>
VStem: 562 132
AnchorPoint: "Anchor-5" 395 660 basechar 0
AnchorPoint: "Anchor-4" 279 0 basechar 0
LayerCount: 2
Fore
SplineSet
40 267 m 2x78
 31 267 26.0283203125 272 26.0283203125 280 c 2
 26.0283203125 356 l 2
 26.0283203125 365 31.0283203125 370 40.0283203125 370 c 2
 134.938476562 370 l 1
 164.87890625 524 l 2
 175.55859375 579 159.008789062 607 116.008789062 607 c 0
 107.008789062 607 102.978515625 612 104.538085938 620 c 2
 109.768554688 647 l 2
 111.518554688 656 117.298828125 660 126.298828125 660 c 2
 397.298828125 660 l 2
 607.298828125 660 725.989257812 535 686.349609375 331 c 0
 645.529296875 121 494.01953125 0 293.01953125 0 c 2
 -1.98046875 0 l 2
 -10.98046875 0 -15.1904296875 4 -13.4404296875 13 c 2x78
 -8.2001953125 40 l 2
 -6.650390625 48 -0.6904296875 53 8.2998046875 53 c 2
 14.2998046875 53 l 2
 52.2998046875 53 79.330078125 84 89.4296875 136 c 2xb8
 114.889648438 267 l 1
 40 267 l 2x78
228.678710938 132 m 2
 219.749023438 86 222.108398438 57 279.108398438 57 c 0
 419.108398438 57 516.228515625 140 553.358398438 331 c 0
 586.3984375 501 528.008789062 607 362.008789062 607 c 2
 321.008789062 607 l 1
 274.938476562 370 l 1
 411.018554688 370 l 2
 420.018554688 370 424.018554688 365 424.018554688 356 c 2
 424.018554688 280 l 2
 424.018554688 272 420.018554688 267 411.018554688 267 c 2
 254.918945312 267 l 1
 228.678710938 132 l 2
EndSplineSet
Substitution2: "'c2sc' Capitals to Small Capitals in Latin lookup 11 subtable" Eth.sc
AlternateSubs2: "'aalt' Access All Alternates in Latin lookup 0 subtable" Eth.sc
Position2: "'cpsp' Capital Spacing in Latin lookup 0 subtable" dx=5 dy=0 dh=10 dv=0
EndChar

StartChar: E
Encoding: 69 69 49
Width: 664
GlyphClass: 2
Flags: MW
HStem: 0 53<-6.4668 9.32324 8.32324 9.32324 9.32324 30.8232 8.32324 479.033> 0 62<275.071 333.071 333.071 397.571> 320 71<279.042 342.231 265.231 356.042> 598 62<319.271 461.271 319.271 319.271> 606 54<126.303 137.813> 651 20G<596.933 600.433>
VStem: -14 669 451.47 53.17
AnchorPoint: "Anchor-6" 479 0 basechar 0
AnchorPoint: "Anchor-5" 407 660 basechar 0
AnchorPoint: "Anchor-4" 287 0 basechar 0
LayerCount: 2
Fore
SplineSet
633.73046875 189 m 2x72
 641.760742188 184 640.793945312 179 635.053710938 170 c 2
 518.233398438 -4 l 2
 514.073242188 -10 510.68359375 -12 506.68359375 -12 c 0
 503.68359375 -12 500.68359375 -12 499.2734375 -9 c 2
 496.243164062 -4 l 2
 494.033203125 0 490.033203125 0 479.033203125 0 c 2
 -1.966796875 0 l 2
 -10.966796875 0 -15.1767578125 4 -13.4267578125 13 c 2x72
 -8.1865234375 40 l 2
 -6.63671875 48 0.3232421875 53 8.3232421875 53 c 2
 9.3232421875 53 l 2
 52.3232421875 53 78.5732421875 80 89.462890625 136 c 2
 164.672851562 523 l 2
 175.36328125 578 159.813476562 606 115.813476562 606 c 0
 107.813476562 606 102.983398438 612 104.54296875 620 c 2xaa
 109.583007812 646 l 2
 111.333007812 655 117.302734375 660 126.302734375 660 c 2
 566.302734375 660 l 2x72
 575.302734375 660 579.302734375 660 584.073242188 664 c 2
 590.04296875 669 l 2
 592.432617188 671 595.432617188 671 598.432617188 671 c 0
 602.432617188 671 606.032226562 669 608.051757812 664 c 2x66
 653.921875 545 l 2
 655.33203125 542 655.751953125 539 655.362304688 537 c 0
 654.392578125 532 650.623046875 528 646.233398438 526 c 2
 607.54296875 507 l 2
 601.97265625 504 599.782226562 503 596.782226562 503 c 0
 592.782226562 503 590.372070312 506 588.341796875 511 c 2
 586.311523438 516 l 2
 561.981445312 576 529.271484375 598 461.271484375 598 c 2
 319.271484375 598 l 1
 279.041992188 391 l 1
 356.041992188 391 l 2
 409.041992188 391 443.921875 411 451.501953125 450 c 2
 452.662109375 456 l 2
 454.412109375 465 459.171875 469 468.171875 469 c 2
 494.171875 469 l 2
 503.171875 469 506.401367188 465 504.651367188 456 c 2
 465.78125 256 l 2
 464.03125 247 459.250976562 243 450.250976562 243 c 2
 424.250976562 243 l 2
 415.250976562 243 412.041015625 247 413.791015625 256 c 2
 414.750976562 261 l 2x71
 422.53125 301 396.231445312 320 342.231445312 320 c 2
 265.231445312 320 l 1
 231.411132812 146 l 2
 220.911132812 92 236.071289062 62 275.071289062 62 c 2
 333.071289062 62 l 2
 462.071289062 62 517.670898438 96 585.720703125 194 c 2
 589.890625 200 l 2
 594.05078125 206 602.630859375 209 608.840820312 205 c 2
 633.73046875 189 l 2x72
EndSplineSet
Substitution2: "'ss04' Style Set 4 in Latin lookup 33 subtable" u1F154
Substitution2: "'ss03' Style Set 3 in Latin lookup 31 subtable" uni24BA
Substitution2: "'c2sc' Capitals to Small Capitals in Latin lookup 11 subtable" E.sc
AlternateSubs2: "'aalt' Access All Alternates in Latin lookup 0 subtable" E.sc uni24BA u1F154
Position2: "'cpsp' Capital Spacing in Latin lookup 0 subtable" dx=5 dy=0 dh=10 dv=0
EndChar

StartChar: Eacute
Encoding: 201 201 50
Width: 664
GlyphClass: 2
Flags: MW
HStem: 0 53<-6.4668 9.32324 8.32324 9.32324 9.32324 30.8232 8.32324 479.033> 0 62<275.071 333.071 333.071 397.571> 320 71<279.042 342.231 265.231 356.042> 598 62<319.271 461.271 319.271 319.271> 606 54<126.303 137.813> 651 20G<596.933 600.433>
VStem: -14 669 451.47 53.17
AnchorPoint: "Anchor-6" 479 0 basechar 0
AnchorPoint: "Anchor-5" 486 899 basechar 0
AnchorPoint: "Anchor-4" 287 0 basechar 0
LayerCount: 2
Fore
SplineSet
633.73046875 189 m 2x72
 641.760742188 184 640.793945312 179 635.053710938 170 c 2
 518.233398438 -4 l 2
 514.073242188 -10 510.68359375 -12 506.68359375 -12 c 0
 503.68359375 -12 500.68359375 -12 499.2734375 -9 c 2
 496.243164062 -4 l 2
 494.033203125 0 490.033203125 0 479.033203125 0 c 2
 -1.966796875 0 l 2
 -10.966796875 0 -15.1767578125 4 -13.4267578125 13 c 2x72
 -8.1865234375 40 l 2
 -6.63671875 48 0.3232421875 53 8.3232421875 53 c 2
 9.3232421875 53 l 2
 52.3232421875 53 78.5732421875 80 89.462890625 136 c 2
 164.672851562 523 l 2
 175.36328125 578 159.813476562 606 115.813476562 606 c 0
 107.813476562 606 102.983398438 612 104.54296875 620 c 2xaa
 109.583007812 646 l 2
 111.333007812 655 117.302734375 660 126.302734375 660 c 2
 566.302734375 660 l 2x72
 575.302734375 660 579.302734375 660 584.073242188 664 c 2
 590.04296875 669 l 2
 592.432617188 671 595.432617188 671 598.432617188 671 c 0
 602.432617188 671 606.032226562 669 608.051757812 664 c 2x66
 653.921875 545 l 2
 655.33203125 542 655.751953125 539 655.362304688 537 c 0
 654.392578125 532 650.623046875 528 646.233398438 526 c 2
 607.54296875 507 l 2
 601.97265625 504 599.782226562 503 596.782226562 503 c 0
 592.782226562 503 590.372070312 506 588.341796875 511 c 2
 586.311523438 516 l 2
 561.981445312 576 529.271484375 598 461.271484375 598 c 2
 319.271484375 598 l 1
 279.041992188 391 l 1
 356.041992188 391 l 2
 409.041992188 391 443.921875 411 451.501953125 450 c 2
 452.662109375 456 l 2
 454.412109375 465 459.171875 469 468.171875 469 c 2
 494.171875 469 l 2
 503.171875 469 506.401367188 465 504.651367188 456 c 2
 465.78125 256 l 2
 464.03125 247 459.250976562 243 450.250976562 243 c 2
 424.250976562 243 l 2
 415.250976562 243 412.041015625 247 413.791015625 256 c 2
 414.750976562 261 l 2x71
 422.53125 301 396.231445312 320 342.231445312 320 c 2
 265.231445312 320 l 1
 231.411132812 146 l 2
 220.911132812 92 236.071289062 62 275.071289062 62 c 2
 333.071289062 62 l 2
 462.071289062 62 517.670898438 96 585.720703125 194 c 2
 589.890625 200 l 2
 594.05078125 206 602.630859375 209 608.840820312 205 c 2
 633.73046875 189 l 2x72
358.713867188 729 m 1
 428.513671875 800 449.33203125 830 483.40234375 887 c 0
 490.522460938 898 506.72265625 899 518.72265625 899 c 0
 551.72265625 899 576.9921875 885 570.97265625 854 c 0
 558.142578125 788 472.6328125 739 412.962890625 715 c 0
 407.583007812 713 402.083007812 710.379882812 397.163085938 710.379882812 c 0
 394.092773438 710.379882812 391.533203125 711.4296875 388.603515625 713 c 2
 358.713867188 729 l 1
EndSplineSet
Substitution2: "'c2sc' Capitals to Small Capitals in Latin lookup 11 subtable" Eacute.sc
AlternateSubs2: "'aalt' Access All Alternates in Latin lookup 0 subtable" Eacute.sc
Position2: "'cpsp' Capital Spacing in Latin lookup 0 subtable" dx=5 dy=0 dh=10 dv=0
EndChar

StartChar: Ebreve
Encoding: 276 276 51
Width: 664
GlyphClass: 2
Flags: MW
HStem: 0 53<-6.4668 9.32324 8.32324 9.32324 9.32324 30.8232 8.32324 479.033> 0 62<275.071 333.071 333.071 397.571> 320 71<279.042 342.231 265.231 356.042> 598 62<319.271 461.271 319.271 319.271> 606 54<126.303 137.813> 651 20G<596.933 600.433> 711 72<412.226 450.726 412.226 462.714>
VStem: -14 669 451.47 53.17
AnchorPoint: "Anchor-6" 479 0 basechar 0
AnchorPoint: "Anchor-5" 442 837 basechar 0
AnchorPoint: "Anchor-4" 287 0 basechar 0
LayerCount: 2
Fore
SplineSet
633.73046875 189 m 2x73
 641.760742188 184 640.793945312 179 635.053710938 170 c 2
 518.233398438 -4 l 2
 514.073242188 -10 510.68359375 -12 506.68359375 -12 c 0
 503.68359375 -12 500.68359375 -12 499.2734375 -9 c 2
 496.243164062 -4 l 2
 494.033203125 0 490.033203125 0 479.033203125 0 c 2
 -1.966796875 0 l 2
 -10.966796875 0 -15.1767578125 4 -13.4267578125 13 c 2x73
 -8.1865234375 40 l 2
 -6.63671875 48 0.3232421875 53 8.3232421875 53 c 2
 9.3232421875 53 l 2
 52.3232421875 53 78.5732421875 80 89.462890625 136 c 2
 164.672851562 523 l 2
 175.36328125 578 159.813476562 606 115.813476562 606 c 0
 107.813476562 606 102.983398438 612 104.54296875 620 c 2xab
 109.583007812 646 l 2
 111.333007812 655 117.302734375 660 126.302734375 660 c 2
 566.302734375 660 l 2x73
 575.302734375 660 579.302734375 660 584.073242188 664 c 2
 590.04296875 669 l 2
 592.432617188 671 595.432617188 671 598.432617188 671 c 0
 602.432617188 671 606.032226562 669 608.051757812 664 c 2x67
 653.921875 545 l 2
 655.33203125 542 655.751953125 539 655.362304688 537 c 0
 654.392578125 532 650.623046875 528 646.233398438 526 c 2
 607.54296875 507 l 2
 601.97265625 504 599.782226562 503 596.782226562 503 c 0
 592.782226562 503 590.372070312 506 588.341796875 511 c 2
 586.311523438 516 l 2
 561.981445312 576 529.271484375 598 461.271484375 598 c 2
 319.271484375 598 l 1
 279.041992188 391 l 1
 356.041992188 391 l 2
 409.041992188 391 443.921875 411 451.501953125 450 c 2
 452.662109375 456 l 2
 454.412109375 465 459.171875 469 468.171875 469 c 2
 494.171875 469 l 2
 503.171875 469 506.401367188 465 504.651367188 456 c 2
 465.78125 256 l 2
 464.03125 247 459.250976562 243 450.250976562 243 c 2
 424.250976562 243 l 2
 415.250976562 243 412.041015625 247 413.791015625 256 c 2
 414.750976562 261 l 2x7280
 422.53125 301 396.231445312 320 342.231445312 320 c 2
 265.231445312 320 l 1
 231.411132812 146 l 2
 220.911132812 92 236.071289062 62 275.071289062 62 c 2
 333.071289062 62 l 2
 462.071289062 62 517.670898438 96 585.720703125 194 c 2
 589.890625 200 l 2
 594.05078125 206 602.630859375 209 608.840820312 205 c 2
 633.73046875 189 l 2x73
417.213867188 711 m 0
 327.213867188 711 286.036132812 787 294.786132812 832 c 0
 296.7265625 842 304.506835938 846 312.686523438 847 c 0
 331.076171875 849 358.856445312 853 368.856445312 853 c 0
 376.856445312 853 380.06640625 849 380.31640625 840 c 0
 381.125976562 803 393.225585938 783 431.225585938 783 c 0
 470.225585938 783 490.115234375 803 505.294921875 840 c 0
 508.044921875 849 513.825195312 853 521.825195312 853 c 0
 530.825195312 853 558.03515625 849 574.634765625 847 c 0
 582.444335938 846 588.654296875 842 586.713867188 832 c 0
 577.973632812 787 508.213867188 711 417.213867188 711 c 0
EndSplineSet
Substitution2: "'c2sc' Capitals to Small Capitals in Latin lookup 11 subtable" Ebreve.sc
AlternateSubs2: "'aalt' Access All Alternates in Latin lookup 0 subtable" Ebreve.sc
Position2: "'cpsp' Capital Spacing in Latin lookup 0 subtable" dx=5 dy=0 dh=10 dv=0
EndChar

StartChar: Ecaron
Encoding: 282 282 52
Width: 664
GlyphClass: 2
Flags: MW
HStem: 0 53<-6.4668 9.32324 8.32324 9.32324 9.32324 30.8232 8.32324 479.033> 0 62<275.071 333.071 333.071 397.571> 320 71<279.042 342.231 265.231 356.042> 598 62<319.271 461.271 319.271 319.271> 606 54<126.303 137.813> 651 20G<596.933 600.433>
VStem: -14 669 451.47 53.17
AnchorPoint: "Anchor-6" 479 0 basechar 0
AnchorPoint: "Anchor-5" 450 845 basechar 0
AnchorPoint: "Anchor-4" 287 0 basechar 0
LayerCount: 2
Fore
SplineSet
633.73046875 189 m 2x72
 641.760742188 184 640.793945312 179 635.053710938 170 c 2
 518.233398438 -4 l 2
 514.073242188 -10 510.68359375 -12 506.68359375 -12 c 0
 503.68359375 -12 500.68359375 -12 499.2734375 -9 c 2
 496.243164062 -4 l 2
 494.033203125 0 490.033203125 0 479.033203125 0 c 2
 -1.966796875 0 l 2
 -10.966796875 0 -15.1767578125 4 -13.4267578125 13 c 2x72
 -8.1865234375 40 l 2
 -6.63671875 48 0.3232421875 53 8.3232421875 53 c 2
 9.3232421875 53 l 2
 52.3232421875 53 78.5732421875 80 89.462890625 136 c 2
 164.672851562 523 l 2
 175.36328125 578 159.813476562 606 115.813476562 606 c 0
 107.813476562 606 102.983398438 612 104.54296875 620 c 2xaa
 109.583007812 646 l 2
 111.333007812 655 117.302734375 660 126.302734375 660 c 2
 566.302734375 660 l 2x72
 575.302734375 660 579.302734375 660 584.073242188 664 c 2
 590.04296875 669 l 2
 592.432617188 671 595.432617188 671 598.432617188 671 c 0
 602.432617188 671 606.032226562 669 608.051757812 664 c 2x66
 653.921875 545 l 2
 655.33203125 542 655.751953125 539 655.362304688 537 c 0
 654.392578125 532 650.623046875 528 646.233398438 526 c 2
 607.54296875 507 l 2
 601.97265625 504 599.782226562 503 596.782226562 503 c 0
 592.782226562 503 590.372070312 506 588.341796875 511 c 2
 586.311523438 516 l 2
 561.981445312 576 529.271484375 598 461.271484375 598 c 2
 319.271484375 598 l 1
 279.041992188 391 l 1
 356.041992188 391 l 2
 409.041992188 391 443.921875 411 451.501953125 450 c 2
 452.662109375 456 l 2
 454.412109375 465 459.171875 469 468.171875 469 c 2
 494.171875 469 l 2
 503.171875 469 506.401367188 465 504.651367188 456 c 2
 465.78125 256 l 2
 464.03125 247 459.250976562 243 450.250976562 243 c 2
 424.250976562 243 l 2
 415.250976562 243 412.041015625 247 413.791015625 256 c 2
 414.750976562 261 l 2x71
 422.53125 301 396.231445312 320 342.231445312 320 c 2
 265.231445312 320 l 1
 231.411132812 146 l 2
 220.911132812 92 236.071289062 62 275.071289062 62 c 2
 333.071289062 62 l 2
 462.071289062 62 517.670898438 96 585.720703125 194 c 2
 589.890625 200 l 2
 594.05078125 206 602.630859375 209 608.840820312 205 c 2
 633.73046875 189 l 2x72
434.673828125 793 m 1
 470.18359375 842 524.864257812 897 581.864257812 897 c 0
 611.864257812 897 620.234375 868 613.814453125 835 c 0
 610.904296875 820 607.374023438 807 595.4140625 802 c 0
 533.133789062 780 500.223632812 765 418.153320312 708 c 1
 358.233398438 765 331.153320312 780 277.443359375 802 c 0
 267.413085938 807 268.943359375 820 271.853515625 835 c 0
 278.2734375 868 297.893554688 897 327.893554688 897 c 0
 384.893554688 897 418.193359375 842 434.673828125 793 c 1
EndSplineSet
Substitution2: "'c2sc' Capitals to Small Capitals in Latin lookup 11 subtable" Ecaron.sc
AlternateSubs2: "'aalt' Access All Alternates in Latin lookup 0 subtable" Ecaron.sc
Position2: "'cpsp' Capital Spacing in Latin lookup 0 subtable" dx=5 dy=0 dh=10 dv=0
EndChar

StartChar: uni1E1C
Encoding: 7708 7708 53
Width: 664
GlyphClass: 2
Flags: MW
HStem: -225 62<230.823 251.362 226.862 278.323> -93 47<218.953 317.122> 0 53<-6.4668 9.32324 8.32324 9.32324 9.32324 30.8232 8.32324 237.474> 0 62<-1.9668 333.071 306.853 333.071 333.071 397.571 306.853 306.853> 320 71<279.042 342.231 265.231 356.042> 598 62<319.271 461.271 319.271 319.271> 606 54<126.303 137.813> 651 20G<596.933 600.433> 711 72<412.254 450.754 412.254 462.742>
VStem: 149 229 286.76 91.24 451.47 53.17
AnchorPoint: "Anchor-6" 479 0 basechar 0
AnchorPoint: "Anchor-5" 442 837 basechar 0
AnchorPoint: "Anchor-4" 287 0 basechar 0
LayerCount: 2
Fore
SplineSet
633.73046875 189 m 2xdcb0
 641.760742188 184 640.823242188 179 635.083007812 170 c 2
 518.262695312 -4 l 2
 514.102539062 -10 510.712890625 -12 506.712890625 -12 c 0
 503.712890625 -12 500.712890625 -12 499.302734375 -9 c 2
 496.272460938 -4 l 2
 494.0625 0 490.0625 0 479.0625 0 c 2
 306.852539062 0 l 1
 251.772460938 -53 l 1
 265.732421875 -48 280.122070312 -46 294.122070312 -46 c 0
 340.122070312 -46 388.0625 -72 375.8125 -135 c 0
 365.712890625 -187 312.323242188 -225 244.323242188 -225 c 0xdcb0
 217.323242188 -225 188.313476562 -220 159.833007812 -207 c 0
 144.193359375 -200 148.252929688 -174 151.54296875 -157 c 0
 152.712890625 -151 155.493164062 -147 159.493164062 -147 c 0
 162.493164062 -147 165.283203125 -148 167.092773438 -149 c 0xdcd0
 186.732421875 -156 214.362304688 -163 239.362304688 -163 c 0
 263.362304688 -163 282.72265625 -156 286.79296875 -135 c 0
 292.623046875 -105 266.953125 -93 227.953125 -93 c 0
 209.953125 -93 192.3828125 -96 176.3828125 -96 c 0
 171.3828125 -96 168.962890625 -93 169.743164062 -89 c 0
 170.313476562 -86 170.703125 -84 173.283203125 -81 c 2
 237.473632812 0 l 1
 -1.966796875 0 l 2
 -10.966796875 0 -15.1767578125 4 -13.4267578125 13 c 2xdcb0
 -8.1865234375 40 l 2
 -6.63671875 48 0.3232421875 53 8.3232421875 53 c 2
 9.3232421875 53 l 2
 52.3232421875 53 78.5732421875 80 89.462890625 136 c 2
 164.672851562 523 l 2
 175.36328125 578 159.813476562 606 115.813476562 606 c 0
 107.813476562 606 102.983398438 612 104.54296875 620 c 2xeab0
 109.583007812 646 l 2
 111.333007812 655 117.302734375 660 126.302734375 660 c 2
 566.302734375 660 l 2xdcb0
 575.302734375 660 579.302734375 660 584.073242188 664 c 2
 590.04296875 669 l 2
 592.432617188 671 595.432617188 671 598.432617188 671 c 0
 602.432617188 671 606.032226562 669 608.051757812 664 c 2xd9b0
 653.921875 545 l 2
 655.33203125 542 655.751953125 539 655.362304688 537 c 0
 654.392578125 532 650.623046875 528 646.233398438 526 c 2
 607.54296875 507 l 2
 601.97265625 504 599.782226562 503 596.782226562 503 c 0
 592.782226562 503 590.372070312 506 588.341796875 511 c 2
 586.311523438 516 l 2
 561.981445312 576 529.271484375 598 461.271484375 598 c 2
 319.271484375 598 l 1
 279.041992188 391 l 1
 356.041992188 391 l 2
 409.041992188 391 443.921875 411 451.501953125 450 c 2
 452.662109375 456 l 2
 454.412109375 465 459.171875 469 468.171875 469 c 2
 494.171875 469 l 2
 503.171875 469 506.401367188 465 504.651367188 456 c 2
 465.78125 256 l 2
 464.03125 247 459.250976562 243 450.250976562 243 c 2
 424.250976562 243 l 2
 415.250976562 243 412.041015625 247 413.791015625 256 c 2
 414.750976562 261 l 2
 422.53125 301 396.231445312 320 342.231445312 320 c 2
 265.231445312 320 l 1
 231.411132812 146 l 2
 220.911132812 92 236.071289062 62 275.071289062 62 c 2
 333.071289062 62 l 2
 462.071289062 62 517.670898438 96 585.720703125 194 c 2
 589.890625 200 l 2
 594.05078125 206 602.630859375 209 608.840820312 205 c 2
 633.73046875 189 l 2xdcb0
417.2421875 711 m 0
 327.2421875 711 286.064453125 787 294.814453125 832 c 0
 296.754882812 842 304.53515625 846 312.71484375 847 c 0
 331.104492188 849 358.884765625 853 368.884765625 853 c 0
 376.884765625 853 380.094726562 849 380.344726562 840 c 0
 381.154296875 803 393.25390625 783 431.25390625 783 c 0
 470.25390625 783 490.143554688 803 505.323242188 840 c 0
 508.073242188 849 513.853515625 853 521.853515625 853 c 0
 530.853515625 853 558.063476562 849 574.663085938 847 c 0
 582.47265625 846 588.682617188 842 586.7421875 832 c 0
 578.001953125 787 508.2421875 711 417.2421875 711 c 0
EndSplineSet
Substitution2: "'c2sc' Capitals to Small Capitals in Latin lookup 11 subtable" uni1E1C.sc
AlternateSubs2: "'aalt' Access All Alternates in Latin lookup 0 subtable" uni1E1C.sc
Position2: "'cpsp' Capital Spacing in Latin lookup 0 subtable" dx=5 dy=0 dh=10 dv=0
EndChar

StartChar: Ecircumflex
Encoding: 202 202 54
Width: 664
GlyphClass: 2
Flags: MW
HStem: 0 53<-6.4668 9.32324 8.32324 9.32324 9.32324 30.8232 8.32324 479.033> 0 62<275.071 333.071 333.071 397.571> 320 71<279.042 342.231 265.231 356.042> 598 62<319.271 461.271 319.271 319.271> 606 54<126.303 137.813> 651 20G<596.933 600.433>
VStem: -14 669 451.47 53.17
AnchorPoint: "Anchor-7" 437 812 basechar 0
AnchorPoint: "Anchor-6" 479 0 basechar 0
AnchorPoint: "Anchor-5" 448 867 basechar 0
AnchorPoint: "Anchor-4" 287 0 basechar 0
LayerCount: 2
Fore
SplineSet
633.73046875 189 m 2x72
 641.760742188 184 640.793945312 179 635.053710938 170 c 2
 518.233398438 -4 l 2
 514.073242188 -10 510.68359375 -12 506.68359375 -12 c 0
 503.68359375 -12 500.68359375 -12 499.2734375 -9 c 2
 496.243164062 -4 l 2
 494.033203125 0 490.033203125 0 479.033203125 0 c 2
 -1.966796875 0 l 2
 -10.966796875 0 -15.1767578125 4 -13.4267578125 13 c 2x72
 -8.1865234375 40 l 2
 -6.63671875 48 0.3232421875 53 8.3232421875 53 c 2
 9.3232421875 53 l 2
 52.3232421875 53 78.5732421875 80 89.462890625 136 c 2
 164.672851562 523 l 2
 175.36328125 578 159.813476562 606 115.813476562 606 c 0
 107.813476562 606 102.983398438 612 104.54296875 620 c 2xaa
 109.583007812 646 l 2
 111.333007812 655 117.302734375 660 126.302734375 660 c 2
 566.302734375 660 l 2x72
 575.302734375 660 579.302734375 660 584.073242188 664 c 2
 590.04296875 669 l 2
 592.432617188 671 595.432617188 671 598.432617188 671 c 0
 602.432617188 671 606.032226562 669 608.051757812 664 c 2x66
 653.921875 545 l 2
 655.33203125 542 655.751953125 539 655.362304688 537 c 0
 654.392578125 532 650.623046875 528 646.233398438 526 c 2
 607.54296875 507 l 2
 601.97265625 504 599.782226562 503 596.782226562 503 c 0
 592.782226562 503 590.372070312 506 588.341796875 511 c 2
 586.311523438 516 l 2
 561.981445312 576 529.271484375 598 461.271484375 598 c 2
 319.271484375 598 l 1
 279.041992188 391 l 1
 356.041992188 391 l 2
 409.041992188 391 443.921875 411 451.501953125 450 c 2
 452.662109375 456 l 2
 454.412109375 465 459.171875 469 468.171875 469 c 2
 494.171875 469 l 2
 503.171875 469 506.401367188 465 504.651367188 456 c 2
 465.78125 256 l 2
 464.03125 247 459.250976562 243 450.250976562 243 c 2
 424.250976562 243 l 2
 415.250976562 243 412.041015625 247 413.791015625 256 c 2
 414.750976562 261 l 2x71
 422.53125 301 396.231445312 320 342.231445312 320 c 2
 265.231445312 320 l 1
 231.411132812 146 l 2
 220.911132812 92 236.071289062 62 275.071289062 62 c 2
 333.071289062 62 l 2
 462.071289062 62 517.670898438 96 585.720703125 194 c 2
 589.890625 200 l 2
 594.05078125 206 602.630859375 209 608.840820312 205 c 2
 633.73046875 189 l 2x72
436.854492188 812 m 1
 401.32421875 763 346.642578125 708 289.642578125 708 c 0
 259.642578125 708 251.29296875 737 257.703125 770 c 0
 260.623046875 785 264.143554688 798 276.11328125 803 c 0
 338.373046875 825 371.283203125 840 453.36328125 897 c 1
 513.2734375 840 540.353515625 825 594.083984375 803 c 0
 604.103515625 798 602.583984375 785 599.6640625 770 c 0
 593.25390625 737 573.614257812 708 543.614257812 708 c 0
 486.614257812 708 453.314453125 763 436.854492188 812 c 1
EndSplineSet
Substitution2: "'c2sc' Capitals to Small Capitals in Latin lookup 11 subtable" Ecircumflex.sc
AlternateSubs2: "'aalt' Access All Alternates in Latin lookup 0 subtable" Ecircumflex.sc
Position2: "'cpsp' Capital Spacing in Latin lookup 0 subtable" dx=5 dy=0 dh=10 dv=0
EndChar

StartChar: uni1EBE
Encoding: 7870 7870 55
Width: 664
GlyphClass: 2
Flags: MW
HStem: 0 53<-6.4668 9.32324 8.32324 9.32324 9.32324 30.8232 8.32324 479.033> 0 62<275.071 333.071 333.071 397.571> 320 71<279.042 342.231 265.231 356.042> 598 62<319.271 461.271 319.271 319.271> 606 54<126.303 137.813> 651 20G<596.933 600.433>
VStem: -14 763 451.47 53.17
AnchorPoint: "Anchor-7" 663 1051 basechar 0
AnchorPoint: "Anchor-6" 479 0 basechar 0
AnchorPoint: "Anchor-5" 448 867 basechar 0
AnchorPoint: "Anchor-4" 287 0 basechar 0
LayerCount: 2
Fore
SplineSet
633.73046875 189 m 2x72
 641.760742188 184 640.793945312 179 635.053710938 170 c 2
 518.233398438 -4 l 2
 514.073242188 -10 510.68359375 -12 506.68359375 -12 c 0
 503.68359375 -12 500.68359375 -12 499.2734375 -9 c 2
 496.243164062 -4 l 2
 494.033203125 0 490.033203125 0 479.033203125 0 c 2
 -1.966796875 0 l 2
 -10.966796875 0 -15.1767578125 4 -13.4267578125 13 c 2x72
 -8.1865234375 40 l 2
 -6.63671875 48 0.3232421875 53 8.3232421875 53 c 2
 9.3232421875 53 l 2
 52.3232421875 53 78.5732421875 80 89.462890625 136 c 2
 164.672851562 523 l 2
 175.36328125 578 159.813476562 606 115.813476562 606 c 0
 107.813476562 606 102.983398438 612 104.54296875 620 c 2xaa
 109.583007812 646 l 2
 111.333007812 655 117.302734375 660 126.302734375 660 c 2
 566.302734375 660 l 2x72
 575.302734375 660 579.302734375 660 584.073242188 664 c 2
 590.04296875 669 l 2
 592.432617188 671 595.432617188 671 598.432617188 671 c 0
 602.432617188 671 606.032226562 669 608.051757812 664 c 2x66
 653.921875 545 l 2
 655.33203125 542 655.751953125 539 655.362304688 537 c 0
 654.392578125 532 650.623046875 528 646.233398438 526 c 2
 607.54296875 507 l 2
 601.97265625 504 599.782226562 503 596.782226562 503 c 0
 592.782226562 503 590.372070312 506 588.341796875 511 c 2
 586.311523438 516 l 2
 561.981445312 576 529.271484375 598 461.271484375 598 c 2
 319.271484375 598 l 1
 279.041992188 391 l 1
 356.041992188 391 l 2
 409.041992188 391 443.921875 411 451.501953125 450 c 2
 452.662109375 456 l 2
 454.412109375 465 459.171875 469 468.171875 469 c 2
 494.171875 469 l 2
 503.171875 469 506.401367188 465 504.651367188 456 c 2
 465.78125 256 l 2
 464.03125 247 459.250976562 243 450.250976562 243 c 2
 424.250976562 243 l 2
 415.250976562 243 412.041015625 247 413.791015625 256 c 2
 414.750976562 261 l 2x71
 422.53125 301 396.231445312 320 342.231445312 320 c 2
 265.231445312 320 l 1
 231.411132812 146 l 2
 220.911132812 92 236.071289062 62 275.071289062 62 c 2
 333.071289062 62 l 2
 462.071289062 62 517.670898438 96 585.720703125 194 c 2
 589.890625 200 l 2
 594.05078125 206 602.630859375 209 608.840820312 205 c 2
 633.73046875 189 l 2x72
436.854492188 812 m 1
 401.32421875 763 346.642578125 708 289.642578125 708 c 0
 259.642578125 708 251.29296875 737 257.703125 770 c 0
 260.623046875 785 264.143554688 798 276.11328125 803 c 0
 338.373046875 825 371.283203125 840 453.36328125 897 c 1
 513.2734375 840 540.353515625 825 594.083984375 803 c 0
 604.103515625 798 602.583984375 785 599.6640625 770 c 0
 593.25390625 737 573.614257812 708 543.614257812 708 c 0
 486.614257812 708 453.314453125 763 436.854492188 812 c 1
536.2734375 881 m 1
 606.063476562 952 626.874023438 982 660.944335938 1039 c 0
 668.083984375 1050 684.274414062 1051 696.274414062 1051 c 0
 729.274414062 1051 754.543945312 1037 748.534179688 1006 c 0
 735.713867188 940 650.18359375 891 590.5234375 867 c 0
 585.133789062 865 579.633789062 862.379882812 574.713867188 862.379882812 c 0
 571.643554688 862.379882812 569.09375 863.4296875 566.153320312 865 c 2
 536.2734375 881 l 1
EndSplineSet
Substitution2: "'c2sc' Capitals to Small Capitals in Latin lookup 11 subtable" uni1EBE.sc
AlternateSubs2: "'aalt' Access All Alternates in Latin lookup 0 subtable" uni1EBE.sc
Position2: "'cpsp' Capital Spacing in Latin lookup 0 subtable" dx=5 dy=0 dh=10 dv=0
EndChar

StartChar: uni1EC6
Encoding: 7878 7878 56
Width: 664
GlyphClass: 2
Flags: MW
HStem: 0 53<-6.4668 9.32324 8.32324 9.32324 9.32324 30.8232 8.32324 479.033> 0 62<275.071 333.071 333.071 397.571> 320 71<279.042 342.231 265.231 356.042> 598 62<319.271 461.271 319.271 319.271> 606 54<126.303 137.813> 651 20G<596.933 600.433>
VStem: -14 669 184.35 158.09 451.47 53.17
AnchorPoint: "Anchor-7" 437 812 basechar 0
AnchorPoint: "Anchor-6" 479 0 basechar 0
AnchorPoint: "Anchor-5" 448 867 basechar 0
AnchorPoint: "Anchor-4" 287 0 basechar 0
LayerCount: 2
Fore
SplineSet
633.73046875 189 m 2x72
 641.760742188 184 640.793945312 179 635.053710938 170 c 2
 518.233398438 -4 l 2
 514.073242188 -10 510.68359375 -12 506.68359375 -12 c 0
 503.68359375 -12 500.68359375 -12 499.2734375 -9 c 2
 496.243164062 -4 l 2
 494.033203125 0 490.033203125 0 479.033203125 0 c 2
 -1.966796875 0 l 2
 -10.966796875 0 -15.1767578125 4 -13.4267578125 13 c 2x72
 -8.1865234375 40 l 2
 -6.63671875 48 0.3232421875 53 8.3232421875 53 c 2
 9.3232421875 53 l 2
 52.3232421875 53 78.5732421875 80 89.462890625 136 c 2
 164.672851562 523 l 2
 175.36328125 578 159.813476562 606 115.813476562 606 c 0
 107.813476562 606 102.983398438 612 104.54296875 620 c 2xaa
 109.583007812 646 l 2
 111.333007812 655 117.302734375 660 126.302734375 660 c 2
 566.302734375 660 l 2x72
 575.302734375 660 579.302734375 660 584.073242188 664 c 2
 590.04296875 669 l 2
 592.432617188 671 595.432617188 671 598.432617188 671 c 0
 602.432617188 671 606.032226562 669 608.051757812 664 c 2x66
 653.921875 545 l 2
 655.33203125 542 655.751953125 539 655.362304688 537 c 0
 654.392578125 532 650.623046875 528 646.233398438 526 c 2
 607.54296875 507 l 2
 601.97265625 504 599.782226562 503 596.782226562 503 c 0
 592.782226562 503 590.372070312 506 588.341796875 511 c 2
 586.311523438 516 l 2
 561.981445312 576 529.271484375 598 461.271484375 598 c 2
 319.271484375 598 l 1
 279.041992188 391 l 1
 356.041992188 391 l 2
 409.041992188 391 443.921875 411 451.501953125 450 c 2
 452.662109375 456 l 2
 454.412109375 465 459.171875 469 468.171875 469 c 2
 494.171875 469 l 2
 503.171875 469 506.401367188 465 504.651367188 456 c 2
 465.78125 256 l 2
 464.03125 247 459.250976562 243 450.250976562 243 c 2
 424.250976562 243 l 2
 415.250976562 243 412.041015625 247 413.791015625 256 c 2
 414.750976562 261 l 2x7080
 422.53125 301 396.231445312 320 342.231445312 320 c 2
 265.231445312 320 l 1
 231.411132812 146 l 2
 220.911132812 92 236.071289062 62 275.071289062 62 c 2
 333.071289062 62 l 2
 462.071289062 62 517.670898438 96 585.720703125 194 c 2
 589.890625 200 l 2
 594.05078125 206 602.630859375 209 608.840820312 205 c 2
 633.73046875 189 l 2x72
278.053710938 -50.5302734375 m 0x71
 297.063476562 -54.220703125 311.1328125 -64.3310546875 326.453125 -87.05078125 c 0
 341.7734375 -109.750976562 346.123046875 -125.401367188 342.432617188 -144.411132812 c 0
 338.7421875 -163.420898438 327.421875 -177.241210938 306.122070312 -191.611328125 c 0
 283.412109375 -206.931640625 266.58203125 -211.051757812 247.572265625 -207.361328125 c 0
 229.751953125 -203.901367188 216.881835938 -194.000976562 200.381835938 -171.060546875 c 0
 184.822265625 -149.55078125 180.702148438 -132.720703125 184.392578125 -113.7109375 c 0
 188.083007812 -94.701171875 197.983398438 -81.8310546875 220.693359375 -66.5107421875 c 0
 243.403320312 -51.1904296875 260.233398438 -47.0703125 278.053710938 -50.5302734375 c 0x71
436.853515625 812.009765625 m 1
 401.323242188 763.009765625 346.642578125 708.009765625 289.642578125 708.009765625 c 0
 259.642578125 708.009765625 251.29296875 737.009765625 257.703125 770.009765625 c 0
 260.623046875 785.009765625 264.142578125 798.009765625 276.112304688 803.009765625 c 0
 338.372070312 825.009765625 371.282226562 840.009765625 453.362304688 897.009765625 c 1
 513.272460938 840.009765625 540.352539062 825.009765625 594.083007812 803.009765625 c 0
 604.102539062 798.009765625 602.583007812 785.009765625 599.663085938 770.009765625 c 0
 593.252929688 737.009765625 573.61328125 708.009765625 543.61328125 708.009765625 c 0
 486.61328125 708.009765625 453.313476562 763.009765625 436.853515625 812.009765625 c 1
EndSplineSet
Substitution2: "'c2sc' Capitals to Small Capitals in Latin lookup 11 subtable" uni1EC6.sc
AlternateSubs2: "'aalt' Access All Alternates in Latin lookup 0 subtable" uni1EC6.sc
Position2: "'cpsp' Capital Spacing in Latin lookup 0 subtable" dx=5 dy=0 dh=10 dv=0
EndChar

StartChar: uni1EC0
Encoding: 7872 7872 57
Width: 664
GlyphClass: 2
Flags: MW
HStem: 0 53<-6.4668 9.32324 8.32324 9.32324 9.32324 30.8232 8.32324 479.033> 0 62<275.071 333.071 333.071 397.571> 320 71<279.042 342.231 265.231 356.042> 598 62<319.271 461.271 319.271 319.271> 606 54<126.303 137.813> 651 20G<596.933 600.433>
VStem: -14 669 451.47 53.17
AnchorPoint: "Anchor-7" 315 1051 basechar 0
AnchorPoint: "Anchor-6" 479 0 basechar 0
AnchorPoint: "Anchor-5" 448 867 basechar 0
AnchorPoint: "Anchor-4" 287 0 basechar 0
LayerCount: 2
Fore
SplineSet
633.73046875 189 m 2x72
 641.760742188 184 640.793945312 179 635.053710938 170 c 2
 518.233398438 -4 l 2
 514.073242188 -10 510.68359375 -12 506.68359375 -12 c 0
 503.68359375 -12 500.68359375 -12 499.2734375 -9 c 2
 496.243164062 -4 l 2
 494.033203125 0 490.033203125 0 479.033203125 0 c 2
 -1.966796875 0 l 2
 -10.966796875 0 -15.1767578125 4 -13.4267578125 13 c 2x72
 -8.1865234375 40 l 2
 -6.63671875 48 0.3232421875 53 8.3232421875 53 c 2
 9.3232421875 53 l 2
 52.3232421875 53 78.5732421875 80 89.462890625 136 c 2
 164.672851562 523 l 2
 175.36328125 578 159.813476562 606 115.813476562 606 c 0
 107.813476562 606 102.983398438 612 104.54296875 620 c 2xaa
 109.583007812 646 l 2
 111.333007812 655 117.302734375 660 126.302734375 660 c 2
 566.302734375 660 l 2x72
 575.302734375 660 579.302734375 660 584.073242188 664 c 2
 590.04296875 669 l 2
 592.432617188 671 595.432617188 671 598.432617188 671 c 0
 602.432617188 671 606.032226562 669 608.051757812 664 c 2x66
 653.921875 545 l 2
 655.33203125 542 655.751953125 539 655.362304688 537 c 0
 654.392578125 532 650.623046875 528 646.233398438 526 c 2
 607.54296875 507 l 2
 601.97265625 504 599.782226562 503 596.782226562 503 c 0
 592.782226562 503 590.372070312 506 588.341796875 511 c 2
 586.311523438 516 l 2
 561.981445312 576 529.271484375 598 461.271484375 598 c 2
 319.271484375 598 l 1
 279.041992188 391 l 1
 356.041992188 391 l 2
 409.041992188 391 443.921875 411 451.501953125 450 c 2
 452.662109375 456 l 2
 454.412109375 465 459.171875 469 468.171875 469 c 2
 494.171875 469 l 2
 503.171875 469 506.401367188 465 504.651367188 456 c 2
 465.78125 256 l 2
 464.03125 247 459.250976562 243 450.250976562 243 c 2
 424.250976562 243 l 2
 415.250976562 243 412.041015625 247 413.791015625 256 c 2
 414.750976562 261 l 2x71
 422.53125 301 396.231445312 320 342.231445312 320 c 2
 265.231445312 320 l 1
 231.411132812 146 l 2
 220.911132812 92 236.071289062 62 275.071289062 62 c 2
 333.071289062 62 l 2
 462.071289062 62 517.670898438 96 585.720703125 194 c 2
 589.890625 200 l 2
 594.05078125 206 602.630859375 209 608.840820312 205 c 2
 633.73046875 189 l 2x72
436.854492188 812 m 1
 401.32421875 763 346.642578125 708 289.642578125 708 c 0
 259.642578125 708 251.29296875 737 257.703125 770 c 0
 260.623046875 785 264.143554688 798 276.11328125 803 c 0
 338.373046875 825 371.283203125 840 453.36328125 897 c 1
 513.2734375 840 540.353515625 825 594.083984375 803 c 0
 604.103515625 798 602.583984375 785 599.6640625 770 c 0
 593.25390625 737 573.614257812 708 543.614257812 708 c 0
 486.614257812 708 453.314453125 763 436.854492188 812 c 1
356.703125 865 m 2
 353.783203125 863.4296875 351.182617188 862.379882812 348.112304688 862.379882812 c 0
 343.192382812 862.379882812 337.692382812 865 332.3125 867 c 0
 272.65234375 891 187.142578125 940 174.3125 1006 c 0
 168.29296875 1037 193.5625 1051 226.5625 1051 c 0
 238.5625 1051 254.752929688 1050 261.892578125 1039 c 0
 295.962890625 982 316.79296875 952 386.583007812 881 c 1
 356.703125 865 l 2
EndSplineSet
Substitution2: "'c2sc' Capitals to Small Capitals in Latin lookup 11 subtable" uni1EC0.sc
AlternateSubs2: "'aalt' Access All Alternates in Latin lookup 0 subtable" uni1EC0.sc
Position2: "'cpsp' Capital Spacing in Latin lookup 0 subtable" dx=5 dy=0 dh=10 dv=0
EndChar

StartChar: uni1EC2
Encoding: 7874 7874 58
Width: 664
GlyphClass: 2
Flags: MW
HStem: 0 53<-6.4668 9.32324 8.32324 9.32324 9.32324 30.8232 8.32324 479.033> 0 62<275.071 333.071 333.071 397.571> 320 71<279.042 342.231 265.231 356.042> 598 62<319.271 461.271 319.271 319.271> 606 54<126.303 137.813> 651 20G<596.933 600.433> 861 207 971 97 988.05 79.95
VStem: 451.47 53.17 503.04 161.96 550 52 585.13 79.87
AnchorPoint: "Anchor-7" 608 1098 basechar 0
AnchorPoint: "Anchor-6" 479 0 basechar 0
AnchorPoint: "Anchor-5" 448 867 basechar 0
AnchorPoint: "Anchor-4" 287 0 basechar 0
LayerCount: 2
Fore
SplineSet
633.73046875 189 m 2x7020
 641.760742188 184 640.793945312 179 635.053710938 170 c 2
 518.233398438 -4 l 2
 514.073242188 -10 510.68359375 -12 506.68359375 -12 c 0
 503.68359375 -12 500.68359375 -12 499.2734375 -9 c 2
 496.243164062 -4 l 2
 494.033203125 0 490.033203125 0 479.033203125 0 c 2
 -1.966796875 0 l 2
 -10.966796875 0 -15.1767578125 4 -13.4267578125 13 c 2x7020
 -8.1865234375 40 l 2
 -6.63671875 48 0.3232421875 53 8.3232421875 53 c 2
 9.3232421875 53 l 2
 52.3232421875 53 78.5732421875 80 89.462890625 136 c 2
 164.672851562 523 l 2
 175.36328125 578 159.813476562 606 115.813476562 606 c 0
 107.813476562 606 102.983398438 612 104.54296875 620 c 2xa820
 109.583007812 646 l 2
 111.333007812 655 117.302734375 660 126.302734375 660 c 2
 566.302734375 660 l 2x7020
 575.302734375 660 579.302734375 660 584.073242188 664 c 2
 590.04296875 669 l 2
 592.432617188 671 595.432617188 671 598.432617188 671 c 0
 602.432617188 671 606.032226562 669 608.051757812 664 c 2x6420
 653.921875 545 l 2
 655.33203125 542 655.751953125 539 655.362304688 537 c 0
 654.392578125 532 650.623046875 528 646.233398438 526 c 2
 607.54296875 507 l 2
 601.97265625 504 599.782226562 503 596.782226562 503 c 0
 592.782226562 503 590.372070312 506 588.341796875 511 c 2
 586.311523438 516 l 2
 561.981445312 576 529.271484375 598 461.271484375 598 c 2
 319.271484375 598 l 1
 279.041992188 391 l 1
 356.041992188 391 l 2
 409.041992188 391 443.921875 411 451.501953125 450 c 2
 452.662109375 456 l 2
 454.412109375 465 459.171875 469 468.171875 469 c 2
 494.171875 469 l 2
 503.171875 469 506.401367188 465 504.651367188 456 c 2
 465.78125 256 l 2
 464.03125 247 459.250976562 243 450.250976562 243 c 2
 424.250976562 243 l 2
 415.250976562 243 412.041015625 247 413.791015625 256 c 2
 414.750976562 261 l 2x7040
 422.53125 301 396.231445312 320 342.231445312 320 c 2
 265.231445312 320 l 1
 231.411132812 146 l 2
 220.911132812 92 236.071289062 62 275.071289062 62 c 2
 333.071289062 62 l 2
 462.071289062 62 517.670898438 96 585.720703125 194 c 2
 589.890625 200 l 2
 594.05078125 206 602.630859375 209 608.840820312 205 c 2
 633.73046875 189 l 2x7020
436.854492188 812 m 1
 401.32421875 763 346.642578125 708 289.642578125 708 c 0
 259.642578125 708 251.29296875 737 257.703125 770 c 0
 260.623046875 785 264.143554688 798 276.11328125 803 c 0
 338.373046875 825 371.283203125 840 453.36328125 897 c 1
 513.2734375 840 540.353515625 825 594.083984375 803 c 0
 604.103515625 798 602.583984375 785 599.6640625 770 c 0
 593.25390625 737 573.614257812 708 543.614257812 708 c 0x7010
 486.614257812 708 453.314453125 763 436.854492188 812 c 1
602.34375 866 m 1x7220
 602.33203125 866.05078125 l 1x7220
 586.032226562 849.05078125 537.692382812 876.350585938 552.791992188 892.350585938 c 0x7208
 569.091796875 909.350585938 580.391601562 923.041015625 585.111328125 947.30078125 c 0
 592.021484375 982.810546875 575.94140625 988.060546875 562.78125 988.060546875 c 0x7088
 539.111328125 988.060546875 516.091796875 961.520507812 510.2421875 974.91015625 c 0x70a0
 502.782226562 992.009765625 500.352539062 1005.75976562 503.04296875 1024.75976562 c 0
 505.153320312 1039.76953125 560.59375 1068 596.59375 1068 c 0
 659.59375 1068 670.874023438 1018 662.32421875 974 c 0x7120
 655.133789062 937 633.553710938 898 602.34375 866 c 1x7220
EndSplineSet
Substitution2: "'c2sc' Capitals to Small Capitals in Latin lookup 11 subtable" uni1EC2.sc
AlternateSubs2: "'aalt' Access All Alternates in Latin lookup 0 subtable" uni1EC2.sc
Position2: "'cpsp' Capital Spacing in Latin lookup 0 subtable" dx=5 dy=0 dh=10 dv=0
EndChar

StartChar: uni1EC4
Encoding: 7876 7876 59
Width: 664
GlyphClass: 2
Flags: MW
HStem: 0 53<-6.4668 9.32324 8.32324 9.32324 9.32324 30.8232 8.32324 479.033> 0 62<275.071 333.071 333.071 397.571> 320 71<279.042 342.231 265.231 356.042> 598 62<319.271 461.271 319.271 319.271> 606 54<126.303 137.813> 651 20G<596.933 600.433> 919 76<525.434 536.434 525.434 547.654> 1003 75<410.994 421.994>
VStem: -14 669 451.47 53.17 550.3 79.22
AnchorPoint: "Anchor-7" 437 812 basechar 0
AnchorPoint: "Anchor-6" 479 0 basechar 0
AnchorPoint: "Anchor-5" 483 1052 basechar 0
AnchorPoint: "Anchor-4" 287 0 basechar 0
LayerCount: 2
Fore
SplineSet
633.73046875 189 m 2x7080
 641.760742188 184 640.793945312 179 635.053710938 170 c 2
 518.233398438 -4 l 2
 514.073242188 -10 510.68359375 -12 506.68359375 -12 c 0
 503.68359375 -12 500.68359375 -12 499.2734375 -9 c 2
 496.243164062 -4 l 2
 494.033203125 0 490.033203125 0 479.033203125 0 c 2
 -1.966796875 0 l 2
 -10.966796875 0 -15.1767578125 4 -13.4267578125 13 c 2x7080
 -8.1865234375 40 l 2
 -6.63671875 48 0.3232421875 53 8.3232421875 53 c 2
 9.3232421875 53 l 2
 52.3232421875 53 78.5732421875 80 89.462890625 136 c 2
 164.672851562 523 l 2
 175.36328125 578 159.813476562 606 115.813476562 606 c 0
 107.813476562 606 102.983398438 612 104.54296875 620 c 2xa880
 109.583007812 646 l 2
 111.333007812 655 117.302734375 660 126.302734375 660 c 2
 566.302734375 660 l 2x7080
 575.302734375 660 579.302734375 660 584.073242188 664 c 2
 590.04296875 669 l 2
 592.432617188 671 595.432617188 671 598.432617188 671 c 0
 602.432617188 671 606.032226562 669 608.051757812 664 c 2x6480
 653.921875 545 l 2
 655.33203125 542 655.751953125 539 655.362304688 537 c 0
 654.392578125 532 650.623046875 528 646.233398438 526 c 2
 607.54296875 507 l 2
 601.97265625 504 599.782226562 503 596.782226562 503 c 0
 592.782226562 503 590.372070312 506 588.341796875 511 c 2
 586.311523438 516 l 2
 561.981445312 576 529.271484375 598 461.271484375 598 c 2
 319.271484375 598 l 1
 279.041992188 391 l 1
 356.041992188 391 l 2
 409.041992188 391 443.921875 411 451.501953125 450 c 2
 452.662109375 456 l 2
 454.412109375 465 459.171875 469 468.171875 469 c 2
 494.171875 469 l 2
 503.171875 469 506.401367188 465 504.651367188 456 c 2
 465.78125 256 l 2
 464.03125 247 459.250976562 243 450.250976562 243 c 2
 424.250976562 243 l 2
 415.250976562 243 412.041015625 247 413.791015625 256 c 2
 414.750976562 261 l 2x7040
 422.53125 301 396.231445312 320 342.231445312 320 c 2
 265.231445312 320 l 1
 231.411132812 146 l 2
 220.911132812 92 236.071289062 62 275.071289062 62 c 2
 333.071289062 62 l 2
 462.071289062 62 517.670898438 96 585.720703125 194 c 2
 589.890625 200 l 2
 594.05078125 206 602.630859375 209 608.840820312 205 c 2
 633.73046875 189 l 2x7080
436.854492188 812 m 1
 401.32421875 763 346.642578125 708 289.642578125 708 c 0
 259.642578125 708 251.29296875 737 257.703125 770 c 0
 260.623046875 785 264.143554688 798 276.11328125 803 c 0
 338.373046875 825 371.283203125 840 453.36328125 897 c 1
 513.2734375 840 540.353515625 825 594.083984375 803 c 0
 604.103515625 798 602.583984375 785 599.6640625 770 c 0
 593.25390625 737 573.614257812 708 543.614257812 708 c 0
 486.614257812 708 453.314453125 763 436.854492188 812 c 1
506.083007812 1019 m 0x7180
 513.783203125 1002 520.43359375 995 530.43359375 995 c 0
 542.43359375 995 548.374023438 1005 550.314453125 1015 c 0
 552.64453125 1027 551.974609375 1039 544.514648438 1052 c 1
 556.654296875 1063 579.75390625 1079 598.75390625 1079 c 0
 613.75390625 1079 636.534179688 1047 629.534179688 1011 c 0
 618.454101562 954 569.654296875 919 525.654296875 919 c 0x7220
 464.654296875 919 449.463867188 954 440.143554688 978 c 0
 433.633789062 996 426.994140625 1003 416.994140625 1003 c 0
 404.994140625 1003 397.673828125 991 395.923828125 982 c 0
 393.59375 970 395.263671875 958 402.723632812 945 c 1
 390.583984375 934 367.484375 918 347.484375 918 c 0
 332.484375 918 309.9140625 951 316.513671875 985 c 0
 327.7734375 1043 377.573242188 1078 421.573242188 1078 c 0
 481.573242188 1078 497.373046875 1041 506.083007812 1019 c 0x7180
EndSplineSet
Substitution2: "'c2sc' Capitals to Small Capitals in Latin lookup 11 subtable" uni1EC4.sc
AlternateSubs2: "'aalt' Access All Alternates in Latin lookup 0 subtable" uni1EC4.sc
Position2: "'cpsp' Capital Spacing in Latin lookup 0 subtable" dx=5 dy=0 dh=10 dv=0
EndChar

StartChar: uni0204
Encoding: 516 516 60
Width: 664
GlyphClass: 2
Flags: MW
HStem: 0 53<-6.4668 9.32324 8.32324 9.32324 9.32324 30.8232 8.32324 479.033> 0 62<275.071 333.071 333.071 397.571> 320 71<279.042 342.231 265.231 356.042> 598 62<319.271 461.271 319.271 319.271> 606 54<126.303 137.813> 651 20G<596.933 600.433>
VStem: -14 669 451.47 53.17
AnchorPoint: "Anchor-6" 479 0 basechar 0
AnchorPoint: "Anchor-5" 407 899 basechar 0
AnchorPoint: "Anchor-4" 287 0 basechar 0
LayerCount: 2
Fore
SplineSet
633.73046875 189 m 2x72
 641.760742188 184 640.793945312 179 635.053710938 170 c 2
 518.233398438 -4 l 2
 514.073242188 -10 510.68359375 -12 506.68359375 -12 c 0
 503.68359375 -12 500.68359375 -12 499.2734375 -9 c 2
 496.243164062 -4 l 2
 494.033203125 0 490.033203125 0 479.033203125 0 c 2
 -1.966796875 0 l 2
 -10.966796875 0 -15.1767578125 4 -13.4267578125 13 c 2x72
 -8.1865234375 40 l 2
 -6.63671875 48 0.3232421875 53 8.3232421875 53 c 2
 9.3232421875 53 l 2
 52.3232421875 53 78.5732421875 80 89.462890625 136 c 2
 164.672851562 523 l 2
 175.36328125 578 159.813476562 606 115.813476562 606 c 0
 107.813476562 606 102.983398438 612 104.54296875 620 c 2xaa
 109.583007812 646 l 2
 111.333007812 655 117.302734375 660 126.302734375 660 c 2
 566.302734375 660 l 2x72
 575.302734375 660 579.302734375 660 584.073242188 664 c 2
 590.04296875 669 l 2
 592.432617188 671 595.432617188 671 598.432617188 671 c 0
 602.432617188 671 606.032226562 669 608.051757812 664 c 2x66
 653.921875 545 l 2
 655.33203125 542 655.751953125 539 655.362304688 537 c 0
 654.392578125 532 650.623046875 528 646.233398438 526 c 2
 607.54296875 507 l 2
 601.97265625 504 599.782226562 503 596.782226562 503 c 0
 592.782226562 503 590.372070312 506 588.341796875 511 c 2
 586.311523438 516 l 2
 561.981445312 576 529.271484375 598 461.271484375 598 c 2
 319.271484375 598 l 1
 279.041992188 391 l 1
 356.041992188 391 l 2
 409.041992188 391 443.921875 411 451.501953125 450 c 2
 452.662109375 456 l 2
 454.412109375 465 459.171875 469 468.171875 469 c 2
 494.171875 469 l 2
 503.171875 469 506.401367188 465 504.651367188 456 c 2
 465.78125 256 l 2
 464.03125 247 459.250976562 243 450.250976562 243 c 2
 424.250976562 243 l 2
 415.250976562 243 412.041015625 247 413.791015625 256 c 2
 414.750976562 261 l 2x71
 422.53125 301 396.231445312 320 342.231445312 320 c 2
 265.231445312 320 l 1
 231.411132812 146 l 2
 220.911132812 92 236.071289062 62 275.071289062 62 c 2
 333.071289062 62 l 2
 462.071289062 62 517.670898438 96 585.720703125 194 c 2
 589.890625 200 l 2
 594.05078125 206 602.630859375 209 608.840820312 205 c 2
 633.73046875 189 l 2x72
625.013671875 713 m 2
 622.09375 711.4296875 619.50390625 710.379882812 616.423828125 710.379882812 c 0
 611.513671875 710.379882812 606.00390625 713 600.633789062 715 c 0
 540.963867188 739 455.454101562 788 442.633789062 854 c 0
 436.603515625 885 461.883789062 899 494.883789062 899 c 0
 506.883789062 899 523.063476562 898 530.203125 887 c 0
 564.283203125 830 585.103515625 800 654.903320312 729 c 1
 625.013671875 713 l 2
452.374023438 713 m 2
 449.43359375 711.4296875 446.874023438 710.379882812 443.803710938 710.379882812 c 0
 438.883789062 710.379882812 433.383789062 713 427.994140625 715 c 0
 368.333984375 739 282.803710938 788 269.983398438 854 c 0
 263.973632812 885 289.233398438 899 322.233398438 899 c 0
 334.233398438 899 350.423828125 898 357.563476562 887 c 0
 391.633789062 830 412.463867188 800 482.263671875 729 c 1
 452.374023438 713 l 2
EndSplineSet
Substitution2: "'c2sc' Capitals to Small Capitals in Latin lookup 11 subtable" uni0204.sc
AlternateSubs2: "'aalt' Access All Alternates in Latin lookup 0 subtable" uni0204.sc
Position2: "'cpsp' Capital Spacing in Latin lookup 0 subtable" dx=5 dy=0 dh=10 dv=0
EndChar

StartChar: Edieresis
Encoding: 203 203 61
Width: 664
GlyphClass: 2
Flags: MW
HStem: 0 53<-6.4668 9.32324 8.32324 9.32324 9.32324 30.8232 8.32324 479.033> 0 62<275.071 333.071 333.071 397.571> 320 71<279.042 342.231 265.231 356.042> 598 62<319.271 461.271 319.271 319.271> 606 54<126.303 137.813> 651 20G<596.933 600.433>
VStem: -14 669 252.62 158.09 451.47 53.17 457.62 158.09
AnchorPoint: "Anchor-6" 479 0 basechar 0
AnchorPoint: "Anchor-5" 443 845 basechar 0
AnchorPoint: "Anchor-4" 287 0 basechar 0
LayerCount: 2
Fore
SplineSet
633.73046875 189 m 2x72
 641.760742188 184 640.793945312 179 635.053710938 170 c 2
 518.233398438 -4 l 2
 514.073242188 -10 510.68359375 -12 506.68359375 -12 c 0
 503.68359375 -12 500.68359375 -12 499.2734375 -9 c 2
 496.243164062 -4 l 2
 494.033203125 0 490.033203125 0 479.033203125 0 c 2
 -1.966796875 0 l 2
 -10.966796875 0 -15.1767578125 4 -13.4267578125 13 c 2x72
 -8.1865234375 40 l 2
 -6.63671875 48 0.3232421875 53 8.3232421875 53 c 2
 9.3232421875 53 l 2
 52.3232421875 53 78.5732421875 80 89.462890625 136 c 2
 164.672851562 523 l 2
 175.36328125 578 159.813476562 606 115.813476562 606 c 0
 107.813476562 606 102.983398438 612 104.54296875 620 c 2xaa
 109.583007812 646 l 2
 111.333007812 655 117.302734375 660 126.302734375 660 c 2
 566.302734375 660 l 2x72
 575.302734375 660 579.302734375 660 584.073242188 664 c 2
 590.04296875 669 l 2
 592.432617188 671 595.432617188 671 598.432617188 671 c 0
 602.432617188 671 606.032226562 669 608.051757812 664 c 2x66
 653.921875 545 l 2
 655.33203125 542 655.751953125 539 655.362304688 537 c 0
 654.392578125 532 650.623046875 528 646.233398438 526 c 2
 607.54296875 507 l 2
 601.97265625 504 599.782226562 503 596.782226562 503 c 0
 592.782226562 503 590.372070312 506 588.341796875 511 c 2
 586.311523438 516 l 2
 561.981445312 576 529.271484375 598 461.271484375 598 c 2
 319.271484375 598 l 1
 279.041992188 391 l 1
 356.041992188 391 l 2
 409.041992188 391 443.921875 411 451.501953125 450 c 2
 452.662109375 456 l 2
 454.412109375 465 459.171875 469 468.171875 469 c 2
 494.171875 469 l 2
 503.171875 469 506.401367188 465 504.651367188 456 c 2
 465.78125 256 l 2
 464.03125 247 459.250976562 243 450.250976562 243 c 2
 424.250976562 243 l 2
 415.250976562 243 412.041015625 247 413.791015625 256 c 2
 414.750976562 261 l 2x7080
 422.53125 301 396.231445312 320 342.231445312 320 c 2
 265.231445312 320 l 1
 231.411132812 146 l 2
 220.911132812 92 236.071289062 62 275.071289062 62 c 2
 333.071289062 62 l 2
 462.071289062 62 517.670898438 96 585.720703125 194 c 2
 589.890625 200 l 2
 594.05078125 206 602.630859375 209 608.840820312 205 c 2
 633.73046875 189 l 2x72
346.32421875 863.549804688 m 0x7140
 365.344726562 859.859375 379.404296875 849.708007812 394.724609375 827.0078125 c 0
 410.044921875 804.288085938 414.39453125 788.6484375 410.704101562 769.638671875 c 0
 407.013671875 750.62890625 395.693359375 736.798828125 374.393554688 722.44921875 c 0
 351.693359375 707.12890625 334.86328125 703.008789062 315.84375 706.69921875 c 0
 298.0234375 710.159179688 285.153320312 720.069335938 268.653320312 742.999023438 c 0
 253.09375 764.529296875 248.983398438 781.359375 252.663085938 800.369140625 c 0
 256.353515625 819.37890625 266.25390625 832.249023438 288.963867188 847.569335938 c 0
 311.673828125 862.889648438 328.50390625 867.009765625 346.32421875 863.549804688 c 0x7140
551.333984375 863.538085938 m 0
 570.353515625 859.84765625 584.4140625 849.696289062 599.734375 826.99609375 c 0
 615.0546875 804.276367188 619.404296875 788.63671875 615.713867188 769.626953125 c 0
 612.0234375 750.6171875 600.703125 736.787109375 579.403320312 722.4375 c 0
 556.703125 707.1171875 539.873046875 702.997070312 520.853515625 706.6875 c 0
 503.033203125 710.147460938 490.163085938 720.057617188 473.663085938 742.987304688 c 0
 458.103515625 764.517578125 453.993164062 781.34765625 457.672851562 800.357421875 c 0
 461.36328125 819.3671875 471.263671875 832.237304688 493.973632812 847.557617188 c 0
 516.68359375 862.877929688 533.513671875 866.998046875 551.333984375 863.538085938 c 0
EndSplineSet
Substitution2: "'c2sc' Capitals to Small Capitals in Latin lookup 11 subtable" Edieresis.sc
AlternateSubs2: "'aalt' Access All Alternates in Latin lookup 0 subtable" Edieresis.sc
Position2: "'cpsp' Capital Spacing in Latin lookup 0 subtable" dx=5 dy=0 dh=10 dv=0
EndChar

StartChar: Edotaccent
Encoding: 278 278 62
Width: 664
GlyphClass: 2
Flags: MW
HStem: 0 53<-6.4668 9.32324 8.32324 9.32324 9.32324 30.8232 8.32324 479.033> 0 62<275.071 333.071 333.071 397.571> 320 71<279.042 342.231 265.231 356.042> 598 62<319.271 461.271 319.271 319.271> 606 54<126.303 137.813> 651 20G<596.933 600.433>
VStem: -14 669 355.22 158.09 451.47 53.17
AnchorPoint: "Anchor-6" 479 0 basechar 0
AnchorPoint: "Anchor-5" 443 845 basechar 0
AnchorPoint: "Anchor-4" 287 0 basechar 0
LayerCount: 2
Fore
SplineSet
633.73046875 189 m 2x72
 641.760742188 184 640.793945312 179 635.053710938 170 c 2
 518.233398438 -4 l 2
 514.073242188 -10 510.68359375 -12 506.68359375 -12 c 0
 503.68359375 -12 500.68359375 -12 499.2734375 -9 c 2
 496.243164062 -4 l 2
 494.033203125 0 490.033203125 0 479.033203125 0 c 2
 -1.966796875 0 l 2
 -10.966796875 0 -15.1767578125 4 -13.4267578125 13 c 2x72
 -8.1865234375 40 l 2
 -6.63671875 48 0.3232421875 53 8.3232421875 53 c 2
 9.3232421875 53 l 2
 52.3232421875 53 78.5732421875 80 89.462890625 136 c 2
 164.672851562 523 l 2
 175.36328125 578 159.813476562 606 115.813476562 606 c 0
 107.813476562 606 102.983398438 612 104.54296875 620 c 2xaa
 109.583007812 646 l 2
 111.333007812 655 117.302734375 660 126.302734375 660 c 2
 566.302734375 660 l 2x72
 575.302734375 660 579.302734375 660 584.073242188 664 c 2
 590.04296875 669 l 2
 592.432617188 671 595.432617188 671 598.432617188 671 c 0
 602.432617188 671 606.032226562 669 608.051757812 664 c 2x66
 653.921875 545 l 2
 655.33203125 542 655.751953125 539 655.362304688 537 c 0
 654.392578125 532 650.623046875 528 646.233398438 526 c 2
 607.54296875 507 l 2
 601.97265625 504 599.782226562 503 596.782226562 503 c 0
 592.782226562 503 590.372070312 506 588.341796875 511 c 2
 586.311523438 516 l 2
 561.981445312 576 529.271484375 598 461.271484375 598 c 2
 319.271484375 598 l 1
 279.041992188 391 l 1
 356.041992188 391 l 2
 409.041992188 391 443.921875 411 451.501953125 450 c 2
 452.662109375 456 l 2
 454.412109375 465 459.171875 469 468.171875 469 c 2
 494.171875 469 l 2
 503.171875 469 506.401367188 465 504.651367188 456 c 2
 465.78125 256 l 2
 464.03125 247 459.250976562 243 450.250976562 243 c 2
 424.250976562 243 l 2
 415.250976562 243 412.041015625 247 413.791015625 256 c 2
 414.750976562 261 l 2x7080
 422.53125 301 396.231445312 320 342.231445312 320 c 2
 265.231445312 320 l 1
 231.411132812 146 l 2
 220.911132812 92 236.071289062 62 275.071289062 62 c 2
 333.071289062 62 l 2
 462.071289062 62 517.670898438 96 585.720703125 194 c 2
 589.890625 200 l 2
 594.05078125 206 602.630859375 209 608.840820312 205 c 2
 633.73046875 189 l 2x72
448.923828125 863.549804688 m 0x71
 467.93359375 859.859375 482.00390625 849.708007812 497.313476562 827.0078125 c 0
 512.633789062 804.288085938 516.994140625 788.6484375 513.303710938 769.638671875 c 0
 509.61328125 750.62890625 498.29296875 736.798828125 476.993164062 722.44921875 c 0
 454.283203125 707.12890625 437.453125 703.008789062 418.443359375 706.69921875 c 0
 400.623046875 710.159179688 387.743164062 720.069335938 371.243164062 742.999023438 c 0
 355.693359375 764.529296875 351.573242188 781.359375 355.263671875 800.369140625 c 0
 358.954101562 819.37890625 368.84375 832.249023438 391.563476562 847.569335938 c 0
 414.2734375 862.889648438 431.103515625 867.009765625 448.923828125 863.549804688 c 0x71
EndSplineSet
Substitution2: "'c2sc' Capitals to Small Capitals in Latin lookup 11 subtable" Edotaccent.sc
AlternateSubs2: "'aalt' Access All Alternates in Latin lookup 0 subtable" Edotaccent.sc
Position2: "'cpsp' Capital Spacing in Latin lookup 0 subtable" dx=5 dy=0 dh=10 dv=0
EndChar

StartChar: uni1EB8
Encoding: 7864 7864 63
Width: 664
GlyphClass: 2
Flags: MW
HStem: 0 53<-6.4668 9.32324 8.32324 9.32324 9.32324 30.8232 8.32324 479.033> 0 62<275.071 333.071 333.071 397.571> 320 71<279.042 342.231 265.231 356.042> 598 62<319.271 461.271 319.271 319.271> 606 54<126.303 137.813> 651 20G<596.933 600.433>
VStem: -14 669 184.35 158.09 451.47 53.17
AnchorPoint: "Anchor-6" 479 0 basechar 0
AnchorPoint: "Anchor-5" 407 660 basechar 0
AnchorPoint: "Anchor-4" 287 0 basechar 0
LayerCount: 2
Fore
SplineSet
633.73046875 189 m 2x72
 641.760742188 184 640.793945312 179 635.053710938 170 c 2
 518.233398438 -4 l 2
 514.073242188 -10 510.68359375 -12 506.68359375 -12 c 0
 503.68359375 -12 500.68359375 -12 499.2734375 -9 c 2
 496.243164062 -4 l 2
 494.033203125 0 490.033203125 0 479.033203125 0 c 2
 -1.966796875 0 l 2
 -10.966796875 0 -15.1767578125 4 -13.4267578125 13 c 2x72
 -8.1865234375 40 l 2
 -6.63671875 48 0.3232421875 53 8.3232421875 53 c 2
 9.3232421875 53 l 2
 52.3232421875 53 78.5732421875 80 89.462890625 136 c 2
 164.672851562 523 l 2
 175.36328125 578 159.813476562 606 115.813476562 606 c 0
 107.813476562 606 102.983398438 612 104.54296875 620 c 2xaa
 109.583007812 646 l 2
 111.333007812 655 117.302734375 660 126.302734375 660 c 2
 566.302734375 660 l 2x72
 575.302734375 660 579.302734375 660 584.073242188 664 c 2
 590.04296875 669 l 2
 592.432617188 671 595.432617188 671 598.432617188 671 c 0
 602.432617188 671 606.032226562 669 608.051757812 664 c 2x66
 653.921875 545 l 2
 655.33203125 542 655.751953125 539 655.362304688 537 c 0
 654.392578125 532 650.623046875 528 646.233398438 526 c 2
 607.54296875 507 l 2
 601.97265625 504 599.782226562 503 596.782226562 503 c 0
 592.782226562 503 590.372070312 506 588.341796875 511 c 2
 586.311523438 516 l 2
 561.981445312 576 529.271484375 598 461.271484375 598 c 2
 319.271484375 598 l 1
 279.041992188 391 l 1
 356.041992188 391 l 2
 409.041992188 391 443.921875 411 451.501953125 450 c 2
 452.662109375 456 l 2
 454.412109375 465 459.171875 469 468.171875 469 c 2
 494.171875 469 l 2
 503.171875 469 506.401367188 465 504.651367188 456 c 2
 465.78125 256 l 2
 464.03125 247 459.250976562 243 450.250976562 243 c 2
 424.250976562 243 l 2
 415.250976562 243 412.041015625 247 413.791015625 256 c 2
 414.750976562 261 l 2x7080
 422.53125 301 396.231445312 320 342.231445312 320 c 2
 265.231445312 320 l 1
 231.411132812 146 l 2
 220.911132812 92 236.071289062 62 275.071289062 62 c 2
 333.071289062 62 l 2
 462.071289062 62 517.670898438 96 585.720703125 194 c 2
 589.890625 200 l 2
 594.05078125 206 602.630859375 209 608.840820312 205 c 2
 633.73046875 189 l 2x72
278.053710938 -50.5302734375 m 0x71
 297.063476562 -54.220703125 311.1328125 -64.3310546875 326.453125 -87.05078125 c 0
 341.7734375 -109.750976562 346.123046875 -125.401367188 342.432617188 -144.411132812 c 0
 338.7421875 -163.420898438 327.421875 -177.241210938 306.122070312 -191.611328125 c 0
 283.412109375 -206.931640625 266.58203125 -211.051757812 247.572265625 -207.361328125 c 0
 229.751953125 -203.901367188 216.881835938 -194.000976562 200.381835938 -171.060546875 c 0
 184.822265625 -149.55078125 180.702148438 -132.720703125 184.392578125 -113.7109375 c 0
 188.083007812 -94.701171875 197.983398438 -81.8310546875 220.693359375 -66.5107421875 c 0
 243.403320312 -51.1904296875 260.233398438 -47.0703125 278.053710938 -50.5302734375 c 0x71
EndSplineSet
Substitution2: "'c2sc' Capitals to Small Capitals in Latin lookup 11 subtable" uni1EB8.sc
AlternateSubs2: "'aalt' Access All Alternates in Latin lookup 0 subtable" uni1EB8.sc
Position2: "'cpsp' Capital Spacing in Latin lookup 0 subtable" dx=5 dy=0 dh=10 dv=0
EndChar

StartChar: Egrave
Encoding: 200 200 64
Width: 664
GlyphClass: 2
Flags: MW
HStem: 0 53<-6.4668 9.32324 8.32324 9.32324 9.32324 30.8232 8.32324 479.033> 0 62<275.071 333.071 333.071 397.571> 320 71<279.042 342.231 265.231 356.042> 598 62<319.271 461.271 319.271 319.271> 606 54<126.303 137.813> 651 20G<596.933 600.433>
VStem: -14 669 451.47 53.17
AnchorPoint: "Anchor-6" 479 0 basechar 0
AnchorPoint: "Anchor-5" 429 899 basechar 0
AnchorPoint: "Anchor-4" 287 0 basechar 0
LayerCount: 2
Fore
SplineSet
633.73046875 189 m 2x72
 641.760742188 184 640.793945312 179 635.053710938 170 c 2
 518.233398438 -4 l 2
 514.073242188 -10 510.68359375 -12 506.68359375 -12 c 0
 503.68359375 -12 500.68359375 -12 499.2734375 -9 c 2
 496.243164062 -4 l 2
 494.033203125 0 490.033203125 0 479.033203125 0 c 2
 -1.966796875 0 l 2
 -10.966796875 0 -15.1767578125 4 -13.4267578125 13 c 2x72
 -8.1865234375 40 l 2
 -6.63671875 48 0.3232421875 53 8.3232421875 53 c 2
 9.3232421875 53 l 2
 52.3232421875 53 78.5732421875 80 89.462890625 136 c 2
 164.672851562 523 l 2
 175.36328125 578 159.813476562 606 115.813476562 606 c 0
 107.813476562 606 102.983398438 612 104.54296875 620 c 2xaa
 109.583007812 646 l 2
 111.333007812 655 117.302734375 660 126.302734375 660 c 2
 566.302734375 660 l 2x72
 575.302734375 660 579.302734375 660 584.073242188 664 c 2
 590.04296875 669 l 2
 592.432617188 671 595.432617188 671 598.432617188 671 c 0
 602.432617188 671 606.032226562 669 608.051757812 664 c 2x66
 653.921875 545 l 2
 655.33203125 542 655.751953125 539 655.362304688 537 c 0
 654.392578125 532 650.623046875 528 646.233398438 526 c 2
 607.54296875 507 l 2
 601.97265625 504 599.782226562 503 596.782226562 503 c 0
 592.782226562 503 590.372070312 506 588.341796875 511 c 2
 586.311523438 516 l 2
 561.981445312 576 529.271484375 598 461.271484375 598 c 2
 319.271484375 598 l 1
 279.041992188 391 l 1
 356.041992188 391 l 2
 409.041992188 391 443.921875 411 451.501953125 450 c 2
 452.662109375 456 l 2
 454.412109375 465 459.171875 469 468.171875 469 c 2
 494.171875 469 l 2
 503.171875 469 506.401367188 465 504.651367188 456 c 2
 465.78125 256 l 2
 464.03125 247 459.250976562 243 450.250976562 243 c 2
 424.250976562 243 l 2
 415.250976562 243 412.041015625 247 413.791015625 256 c 2
 414.750976562 261 l 2x71
 422.53125 301 396.231445312 320 342.231445312 320 c 2
 265.231445312 320 l 1
 231.411132812 146 l 2
 220.911132812 92 236.071289062 62 275.071289062 62 c 2
 333.071289062 62 l 2
 462.071289062 62 517.670898438 96 585.720703125 194 c 2
 589.890625 200 l 2
 594.05078125 206 602.630859375 209 608.840820312 205 c 2
 633.73046875 189 l 2x72
470.14453125 713 m 2
 467.21484375 711.4296875 464.643554688 710.379882812 461.563476562 710.379882812 c 0
 456.653320312 710.379882812 451.143554688 713 445.763671875 715 c 0
 386.09375 739 300.583984375 788 287.75390625 854 c 0
 281.734375 885 307.00390625 899 340.00390625 899 c 0
 352.00390625 899 368.204101562 898 375.333984375 887 c 0
 409.4140625 830 430.234375 800 500.034179688 729 c 1
 470.14453125 713 l 2
EndSplineSet
Substitution2: "'c2sc' Capitals to Small Capitals in Latin lookup 11 subtable" Egrave.sc
AlternateSubs2: "'aalt' Access All Alternates in Latin lookup 0 subtable" Egrave.sc
Position2: "'cpsp' Capital Spacing in Latin lookup 0 subtable" dx=5 dy=0 dh=10 dv=0
EndChar

StartChar: uni1EBA
Encoding: 7866 7866 65
Width: 664
GlyphClass: 2
Flags: MW
HStem: 0 53<-6.4668 9.32324 8.32324 9.32324 9.32324 30.8232 8.32324 479.033> 0 62<275.071 333.071 333.071 397.571> 320 71<279.042 342.231 265.231 356.042> 598 62<319.271 461.271 319.271 319.271> 606 54<126.303 137.813> 651 20G<596.933 600.433> 709 207 819 97 836.05 79.95
VStem: 357.49 161.51 439.58 79.42 451.47 53.17
AnchorPoint: "Anchor-6" 479 0 basechar 0
AnchorPoint: "Anchor-5" 463 946 basechar 0
AnchorPoint: "Anchor-4" 287 0 basechar 0
LayerCount: 2
Fore
SplineSet
633.73046875 189 m 2x7040
 641.760742188 184 640.793945312 179 635.053710938 170 c 2
 518.233398438 -4 l 2
 514.073242188 -10 510.68359375 -12 506.68359375 -12 c 0
 503.68359375 -12 500.68359375 -12 499.2734375 -9 c 2
 496.243164062 -4 l 2
 494.033203125 0 490.033203125 0 479.033203125 0 c 2
 -1.966796875 0 l 2
 -10.966796875 0 -15.1767578125 4 -13.4267578125 13 c 2x7040
 -8.1865234375 40 l 2
 -6.63671875 48 0.3232421875 53 8.3232421875 53 c 2
 9.3232421875 53 l 2
 52.3232421875 53 78.5732421875 80 89.462890625 136 c 2
 164.672851562 523 l 2
 175.36328125 578 159.813476562 606 115.813476562 606 c 0
 107.813476562 606 102.983398438 612 104.54296875 620 c 2xa840
 109.583007812 646 l 2
 111.333007812 655 117.302734375 660 126.302734375 660 c 2
 566.302734375 660 l 2x7040
 575.302734375 660 579.302734375 660 584.073242188 664 c 2
 590.04296875 669 l 2
 592.432617188 671 595.432617188 671 598.432617188 671 c 0
 602.432617188 671 606.032226562 669 608.051757812 664 c 2x6440
 653.921875 545 l 2
 655.33203125 542 655.751953125 539 655.362304688 537 c 0
 654.392578125 532 650.623046875 528 646.233398438 526 c 2
 607.54296875 507 l 2
 601.97265625 504 599.782226562 503 596.782226562 503 c 0
 592.782226562 503 590.372070312 506 588.341796875 511 c 2
 586.311523438 516 l 2
 561.981445312 576 529.271484375 598 461.271484375 598 c 2
 319.271484375 598 l 1
 279.041992188 391 l 1
 356.041992188 391 l 2
 409.041992188 391 443.921875 411 451.501953125 450 c 2
 452.662109375 456 l 2
 454.412109375 465 459.171875 469 468.171875 469 c 2
 494.171875 469 l 2
 503.171875 469 506.401367188 465 504.651367188 456 c 2
 465.78125 256 l 2
 464.03125 247 459.250976562 243 450.250976562 243 c 2
 424.250976562 243 l 2
 415.250976562 243 412.041015625 247 413.791015625 256 c 2
 414.750976562 261 l 2x7010
 422.53125 301 396.231445312 320 342.231445312 320 c 2
 265.231445312 320 l 1
 231.411132812 146 l 2
 220.911132812 92 236.071289062 62 275.071289062 62 c 2
 333.071289062 62 l 2
 462.071289062 62 517.670898438 96 585.720703125 194 c 2
 589.890625 200 l 2
 594.05078125 206 602.630859375 209 608.840820312 205 c 2
 633.73046875 189 l 2x7040
456.803710938 714 m 1x7240
 456.760742188 714.05078125 l 1x7240
 440.451171875 697.05078125 392.12109375 724.350585938 407.231445312 740.350585938 c 0x7220
 423.521484375 757.350585938 434.841796875 771.041015625 439.551757812 795.30078125 c 0
 446.461914062 830.810546875 430.381835938 836.060546875 417.231445312 836.060546875 c 0x70a0
 393.551757812 836.060546875 370.532226562 809.520507812 364.702148438 822.91015625 c 0x70c0
 357.232421875 840.009765625 354.8125 853.759765625 357.502929688 872.759765625 c 0
 359.623046875 887.76953125 415.04296875 916 451.04296875 916 c 0
 514.04296875 916 525.323242188 866 516.7734375 822 c 0x7140
 509.59375 785 488.013671875 746 456.803710938 714 c 1x7240
EndSplineSet
Substitution2: "'c2sc' Capitals to Small Capitals in Latin lookup 11 subtable" uni1EBA.sc
AlternateSubs2: "'aalt' Access All Alternates in Latin lookup 0 subtable" uni1EBA.sc
Position2: "'cpsp' Capital Spacing in Latin lookup 0 subtable" dx=5 dy=0 dh=10 dv=0
EndChar

StartChar: uni0206
Encoding: 518 518 66
Width: 664
GlyphClass: 2
Flags: MW
HStem: 0 53<-6.4668 9.32324 8.32324 9.32324 9.32324 30.8232 8.32324 479.033> 0 62<275.071 333.071 333.071 397.571> 320 71<279.042 342.231 265.231 356.042> 598 62<319.271 461.271 319.271 319.271> 606 54<126.303 137.813> 651 20G<596.933 600.433> 801 72<450.633 450.694 450.694 456.184>
VStem: -14 669 451.47 53.17
AnchorPoint: "Anchor-6" 479 0 basechar 0
AnchorPoint: "Anchor-5" 454 899 basechar 0
AnchorPoint: "Anchor-4" 287 0 basechar 0
LayerCount: 2
Fore
SplineSet
633.73046875 189 m 2x73
 641.760742188 184 640.793945312 179 635.053710938 170 c 2
 518.233398438 -4 l 2
 514.073242188 -10 510.68359375 -12 506.68359375 -12 c 0
 503.68359375 -12 500.68359375 -12 499.2734375 -9 c 2
 496.243164062 -4 l 2
 494.033203125 0 490.033203125 0 479.033203125 0 c 2
 -1.966796875 0 l 2
 -10.966796875 0 -15.1767578125 4 -13.4267578125 13 c 2x73
 -8.1865234375 40 l 2
 -6.63671875 48 0.3232421875 53 8.3232421875 53 c 2
 9.3232421875 53 l 2
 52.3232421875 53 78.5732421875 80 89.462890625 136 c 2
 164.672851562 523 l 2
 175.36328125 578 159.813476562 606 115.813476562 606 c 0
 107.813476562 606 102.983398438 612 104.54296875 620 c 2xab
 109.583007812 646 l 2
 111.333007812 655 117.302734375 660 126.302734375 660 c 2
 566.302734375 660 l 2x73
 575.302734375 660 579.302734375 660 584.073242188 664 c 2
 590.04296875 669 l 2
 592.432617188 671 595.432617188 671 598.432617188 671 c 0
 602.432617188 671 606.032226562 669 608.051757812 664 c 2x67
 653.921875 545 l 2
 655.33203125 542 655.751953125 539 655.362304688 537 c 0
 654.392578125 532 650.623046875 528 646.233398438 526 c 2
 607.54296875 507 l 2
 601.97265625 504 599.782226562 503 596.782226562 503 c 0
 592.782226562 503 590.372070312 506 588.341796875 511 c 2
 586.311523438 516 l 2
 561.981445312 576 529.271484375 598 461.271484375 598 c 2
 319.271484375 598 l 1
 279.041992188 391 l 1
 356.041992188 391 l 2
 409.041992188 391 443.921875 411 451.501953125 450 c 2
 452.662109375 456 l 2
 454.412109375 465 459.171875 469 468.171875 469 c 2
 494.171875 469 l 2
 503.171875 469 506.401367188 465 504.651367188 456 c 2
 465.78125 256 l 2
 464.03125 247 459.250976562 243 450.250976562 243 c 2
 424.250976562 243 l 2
 415.250976562 243 412.041015625 247 413.791015625 256 c 2
 414.750976562 261 l 2x7280
 422.53125 301 396.231445312 320 342.231445312 320 c 2
 265.231445312 320 l 1
 231.411132812 146 l 2
 220.911132812 92 236.071289062 62 275.071289062 62 c 2
 333.071289062 62 l 2
 462.071289062 62 517.670898438 96 585.720703125 194 c 2
 589.890625 200 l 2
 594.05078125 206 602.630859375 209 608.840820312 205 c 2
 633.73046875 189 l 2x73
450.694335938 873 m 1
 450.6328125 873 l 1
 541.6328125 873 581.862304688 797 573.112304688 752 c 0
 571.171875 742 563.40234375 738 555.211914062 737 c 0
 537.822265625 735 509.052734375 731 500.052734375 731 c 0
 492.052734375 731 487.833007812 735 488.583007812 744 c 0
 487.783203125 781 475.68359375 801 436.68359375 801 c 0
 398.68359375 801 378.793945312 781 363.603515625 744 c 0
 359.853515625 735 355.083007812 731 347.083007812 731 c 0
 337.083007812 731 310.86328125 735 293.263671875 737 c 0
 285.463867188 738 279.244140625 742 281.184570312 752 c 0
 289.934570312 797 360.694335938 873 450.694335938 873 c 1
EndSplineSet
Substitution2: "'c2sc' Capitals to Small Capitals in Latin lookup 11 subtable" uni0206.sc
AlternateSubs2: "'aalt' Access All Alternates in Latin lookup 0 subtable" uni0206.sc
Position2: "'cpsp' Capital Spacing in Latin lookup 0 subtable" dx=5 dy=0 dh=10 dv=0
EndChar

StartChar: Emacron
Encoding: 274 274 67
Width: 664
GlyphClass: 2
Flags: MW
HStem: 0 53<-6.4668 9.32324 8.32324 9.32324 9.32324 30.8232 8.32324 479.033> 0 62<275.071 333.071 333.071 397.571> 320 71<279.042 342.231 265.231 356.042> 598 62<319.271 461.271 319.271 319.271> 606 54<126.303 137.813> 651 20G<596.933 600.433> 721 79<296.675 552.524 316.524 537.175>
VStem: -14 669 451.47 53.17
AnchorPoint: "Anchor-6" 479 0 basechar 0
AnchorPoint: "Anchor-5" 433 792 basechar 0
AnchorPoint: "Anchor-4" 287 0 basechar 0
LayerCount: 2
Fore
SplineSet
633.73046875 189 m 2x73
 641.760742188 184 640.793945312 179 635.053710938 170 c 2
 518.233398438 -4 l 2
 514.073242188 -10 510.68359375 -12 506.68359375 -12 c 0
 503.68359375 -12 500.68359375 -12 499.2734375 -9 c 2
 496.243164062 -4 l 2
 494.033203125 0 490.033203125 0 479.033203125 0 c 2
 -1.966796875 0 l 2
 -10.966796875 0 -15.1767578125 4 -13.4267578125 13 c 2x73
 -8.1865234375 40 l 2
 -6.63671875 48 0.3232421875 53 8.3232421875 53 c 2
 9.3232421875 53 l 2
 52.3232421875 53 78.5732421875 80 89.462890625 136 c 2
 164.672851562 523 l 2
 175.36328125 578 159.813476562 606 115.813476562 606 c 0
 107.813476562 606 102.983398438 612 104.54296875 620 c 2xab
 109.583007812 646 l 2
 111.333007812 655 117.302734375 660 126.302734375 660 c 2
 566.302734375 660 l 2x73
 575.302734375 660 579.302734375 660 584.073242188 664 c 2
 590.04296875 669 l 2
 592.432617188 671 595.432617188 671 598.432617188 671 c 0
 602.432617188 671 606.032226562 669 608.051757812 664 c 2x67
 653.921875 545 l 2
 655.33203125 542 655.751953125 539 655.362304688 537 c 0
 654.392578125 532 650.623046875 528 646.233398438 526 c 2
 607.54296875 507 l 2
 601.97265625 504 599.782226562 503 596.782226562 503 c 0
 592.782226562 503 590.372070312 506 588.341796875 511 c 2
 586.311523438 516 l 2
 561.981445312 576 529.271484375 598 461.271484375 598 c 2
 319.271484375 598 l 1
 279.041992188 391 l 1
 356.041992188 391 l 2
 409.041992188 391 443.921875 411 451.501953125 450 c 2
 452.662109375 456 l 2
 454.412109375 465 459.171875 469 468.171875 469 c 2
 494.171875 469 l 2
 503.171875 469 506.401367188 465 504.651367188 456 c 2
 465.78125 256 l 2
 464.03125 247 459.250976562 243 450.250976562 243 c 2
 424.250976562 243 l 2
 415.250976562 243 412.041015625 247 413.791015625 256 c 2
 414.750976562 261 l 2x7280
 422.53125 301 396.231445312 320 342.231445312 320 c 2
 265.231445312 320 l 1
 231.411132812 146 l 2
 220.911132812 92 236.071289062 62 275.071289062 62 c 2
 333.071289062 62 l 2
 462.071289062 62 517.670898438 96 585.720703125 194 c 2
 589.890625 200 l 2
 594.05078125 206 602.630859375 209 608.840820312 205 c 2
 633.73046875 189 l 2x73
552.694335938 734 m 2
 551.134765625 726 546.174804688 721 537.174804688 721 c 2
 301.174804688 721 l 2
 292.174804688 721 289.14453125 726 290.694335938 734 c 2
 300.994140625 787 l 2
 302.744140625 796 307.524414062 800 316.524414062 800 c 2
 552.524414062 800 l 2
 561.524414062 800 564.734375 796 562.984375 787 c 2
 552.694335938 734 l 2
EndSplineSet
Substitution2: "'c2sc' Capitals to Small Capitals in Latin lookup 11 subtable" Emacron.sc
AlternateSubs2: "'aalt' Access All Alternates in Latin lookup 0 subtable" Emacron.sc
Position2: "'cpsp' Capital Spacing in Latin lookup 0 subtable" dx=5 dy=0 dh=10 dv=0
EndChar

StartChar: uni1E16
Encoding: 7702 7702 68
Width: 664
GlyphClass: 2
Flags: MW
HStem: 0 53<-6.4668 9.32324 8.32324 9.32324 9.32324 30.8232 8.32324 479.033> 0 62<275.071 333.071 333.071 397.571> 320 71<279.042 342.231 265.231 356.042> 598 62<319.271 461.271 319.271 319.271> 606 54<126.303 137.813> 651 20G<596.933 600.433> 721 79<296.675 552.524 316.524 537.175>
VStem: -14 669 451.47 53.17
AnchorPoint: "Anchor-6" 479 0 basechar 0
AnchorPoint: "Anchor-5" 511 1031 basechar 0
AnchorPoint: "Anchor-4" 287 0 basechar 0
LayerCount: 2
Fore
SplineSet
633.73046875 189 m 2x73
 641.760742188 184 640.793945312 179 635.053710938 170 c 2
 518.233398438 -4 l 2
 514.073242188 -10 510.68359375 -12 506.68359375 -12 c 0
 503.68359375 -12 500.68359375 -12 499.2734375 -9 c 2
 496.243164062 -4 l 2
 494.033203125 0 490.033203125 0 479.033203125 0 c 2
 -1.966796875 0 l 2
 -10.966796875 0 -15.1767578125 4 -13.4267578125 13 c 2x73
 -8.1865234375 40 l 2
 -6.63671875 48 0.3232421875 53 8.3232421875 53 c 2
 9.3232421875 53 l 2
 52.3232421875 53 78.5732421875 80 89.462890625 136 c 2
 164.672851562 523 l 2
 175.36328125 578 159.813476562 606 115.813476562 606 c 0
 107.813476562 606 102.983398438 612 104.54296875 620 c 2xab
 109.583007812 646 l 2
 111.333007812 655 117.302734375 660 126.302734375 660 c 2
 566.302734375 660 l 2x73
 575.302734375 660 579.302734375 660 584.073242188 664 c 2
 590.04296875 669 l 2
 592.432617188 671 595.432617188 671 598.432617188 671 c 0
 602.432617188 671 606.032226562 669 608.051757812 664 c 2x67
 653.921875 545 l 2
 655.33203125 542 655.751953125 539 655.362304688 537 c 0
 654.392578125 532 650.623046875 528 646.233398438 526 c 2
 607.54296875 507 l 2
 601.97265625 504 599.782226562 503 596.782226562 503 c 0
 592.782226562 503 590.372070312 506 588.341796875 511 c 2
 586.311523438 516 l 2
 561.981445312 576 529.271484375 598 461.271484375 598 c 2
 319.271484375 598 l 1
 279.041992188 391 l 1
 356.041992188 391 l 2
 409.041992188 391 443.921875 411 451.501953125 450 c 2
 452.662109375 456 l 2
 454.412109375 465 459.171875 469 468.171875 469 c 2
 494.171875 469 l 2
 503.171875 469 506.401367188 465 504.651367188 456 c 2
 465.78125 256 l 2
 464.03125 247 459.250976562 243 450.250976562 243 c 2
 424.250976562 243 l 2
 415.250976562 243 412.041015625 247 413.791015625 256 c 2
 414.750976562 261 l 2x7280
 422.53125 301 396.231445312 320 342.231445312 320 c 2
 265.231445312 320 l 1
 231.411132812 146 l 2
 220.911132812 92 236.071289062 62 275.071289062 62 c 2
 333.071289062 62 l 2
 462.071289062 62 517.670898438 96 585.720703125 194 c 2
 589.890625 200 l 2
 594.05078125 206 602.630859375 209 608.840820312 205 c 2
 633.73046875 189 l 2x73
552.694335938 734 m 2
 551.134765625 726 546.174804688 721 537.174804688 721 c 2
 301.174804688 721 l 2
 292.174804688 721 289.14453125 726 290.694335938 734 c 2
 300.994140625 787 l 2
 302.744140625 796 307.524414062 800 316.524414062 800 c 2
 552.524414062 800 l 2
 561.524414062 800 564.734375 796 562.984375 787 c 2
 552.694335938 734 l 2
384.3046875 860.620117188 m 1
 454.104492188 931.620117188 474.903320312 961.629882812 508.983398438 1018.62988281 c 0
 516.11328125 1029.62988281 532.303710938 1030.62988281 544.303710938 1030.62988281 c 0
 577.303710938 1030.62988281 602.583984375 1016.62988281 596.57421875 985.629882812 c 0
 583.744140625 919.629882812 498.213867188 870.629882812 438.553710938 846.629882812 c 0
 433.173828125 844.629882812 427.6640625 842.009765625 422.75390625 842.009765625 c 0
 419.673828125 842.009765625 417.124023438 843.040039062 414.194335938 844.620117188 c 2
 384.3046875 860.620117188 l 1
EndSplineSet
Substitution2: "'c2sc' Capitals to Small Capitals in Latin lookup 11 subtable" uni1E16.sc
AlternateSubs2: "'aalt' Access All Alternates in Latin lookup 0 subtable" uni1E16.sc
Position2: "'cpsp' Capital Spacing in Latin lookup 0 subtable" dx=5 dy=0 dh=10 dv=0
EndChar

StartChar: uni1E14
Encoding: 7700 7700 69
Width: 664
GlyphClass: 2
Flags: MW
HStem: 0 53<-6.4668 9.32324 8.32324 9.32324 9.32324 30.8232 8.32324 479.033> 0 62<275.071 333.071 333.071 397.571> 320 71<279.042 342.231 265.231 356.042> 598 62<319.271 461.271 319.271 319.271> 606 54<126.303 137.813> 651 20G<596.933 600.433> 721 79<296.675 552.524 316.524 537.175>
VStem: -14 669 451.47 53.17
AnchorPoint: "Anchor-6" 479 0 basechar 0
AnchorPoint: "Anchor-5" 454 1031 basechar 0
AnchorPoint: "Anchor-4" 287 0 basechar 0
LayerCount: 2
Fore
SplineSet
633.73046875 189 m 2x73
 641.760742188 184 640.793945312 179 635.053710938 170 c 2
 518.233398438 -4 l 2
 514.073242188 -10 510.68359375 -12 506.68359375 -12 c 0
 503.68359375 -12 500.68359375 -12 499.2734375 -9 c 2
 496.243164062 -4 l 2
 494.033203125 0 490.033203125 0 479.033203125 0 c 2
 -1.966796875 0 l 2
 -10.966796875 0 -15.1767578125 4 -13.4267578125 13 c 2x73
 -8.1865234375 40 l 2
 -6.63671875 48 0.3232421875 53 8.3232421875 53 c 2
 9.3232421875 53 l 2
 52.3232421875 53 78.5732421875 80 89.462890625 136 c 2
 164.672851562 523 l 2
 175.36328125 578 159.813476562 606 115.813476562 606 c 0
 107.813476562 606 102.983398438 612 104.54296875 620 c 2xab
 109.583007812 646 l 2
 111.333007812 655 117.302734375 660 126.302734375 660 c 2
 566.302734375 660 l 2x73
 575.302734375 660 579.302734375 660 584.073242188 664 c 2
 590.04296875 669 l 2
 592.432617188 671 595.432617188 671 598.432617188 671 c 0
 602.432617188 671 606.032226562 669 608.051757812 664 c 2x67
 653.921875 545 l 2
 655.33203125 542 655.751953125 539 655.362304688 537 c 0
 654.392578125 532 650.623046875 528 646.233398438 526 c 2
 607.54296875 507 l 2
 601.97265625 504 599.782226562 503 596.782226562 503 c 0
 592.782226562 503 590.372070312 506 588.341796875 511 c 2
 586.311523438 516 l 2
 561.981445312 576 529.271484375 598 461.271484375 598 c 2
 319.271484375 598 l 1
 279.041992188 391 l 1
 356.041992188 391 l 2
 409.041992188 391 443.921875 411 451.501953125 450 c 2
 452.662109375 456 l 2
 454.412109375 465 459.171875 469 468.171875 469 c 2
 494.171875 469 l 2
 503.171875 469 506.401367188 465 504.651367188 456 c 2
 465.78125 256 l 2
 464.03125 247 459.250976562 243 450.250976562 243 c 2
 424.250976562 243 l 2
 415.250976562 243 412.041015625 247 413.791015625 256 c 2
 414.750976562 261 l 2x7280
 422.53125 301 396.231445312 320 342.231445312 320 c 2
 265.231445312 320 l 1
 231.411132812 146 l 2
 220.911132812 92 236.071289062 62 275.071289062 62 c 2
 333.071289062 62 l 2
 462.071289062 62 517.670898438 96 585.720703125 194 c 2
 589.890625 200 l 2
 594.05078125 206 602.630859375 209 608.840820312 205 c 2
 633.73046875 189 l 2x73
552.694335938 734 m 2
 551.134765625 726 546.174804688 721 537.174804688 721 c 2
 301.174804688 721 l 2
 292.174804688 721 289.14453125 726 290.694335938 734 c 2
 300.994140625 787 l 2
 302.744140625 796 307.524414062 800 316.524414062 800 c 2
 552.524414062 800 l 2
 561.524414062 800 564.734375 796 562.984375 787 c 2
 552.694335938 734 l 2
495.734375 844.620117188 m 2
 492.814453125 843.040039062 490.224609375 842 487.154296875 842 c 0
 482.234375 842 476.734375 844.620117188 471.364257812 846.620117188 c 0
 411.694335938 870.620117188 326.1640625 919.620117188 313.34375 985.620117188 c 0
 307.32421875 1016.62011719 332.59375 1030.62011719 365.59375 1030.62011719 c 0
 377.59375 1030.62011719 393.784179688 1029.62011719 400.923828125 1018.62011719 c 0
 434.994140625 961.620117188 455.82421875 931.620117188 525.624023438 860.620117188 c 1
 495.734375 844.620117188 l 2
EndSplineSet
Substitution2: "'c2sc' Capitals to Small Capitals in Latin lookup 11 subtable" uni1E14.sc
AlternateSubs2: "'aalt' Access All Alternates in Latin lookup 0 subtable" uni1E14.sc
Position2: "'cpsp' Capital Spacing in Latin lookup 0 subtable" dx=5 dy=0 dh=10 dv=0
EndChar

